<svg xmlns="http://www.w3.org/2000/svg" viewBox="0 0 238.8 48.8"><path fill="#F9A955" d="M0 41.5L8.6 37c1.1 2.4 2.5 2.9 3.8 2.8 1.1-.1 2.2-1.1 2.2-2.1 0-5-12.9-6.3-12.9-16.8 0-5 4.3-9.7 11.9-10.1s11.3 2.4 13.5 6.3L18.9 21c-.8-1.5-1.6-2.4-3.2-2.3-1.3.1-2.2 1.1-2.2 2.6 0 3.6 13.5 5.8 13.5 16.8 0 6.5-5.9 10.3-13.5 10.7S1.8 45.4 0 41.5zM30.6 10.9l13.5-.7c9.2-.5 14 4.8 14 11.3 0 7.7-6.2 12.5-13.8 12.9h-2.4v12l-11.3.6V10.9zM47.3 22c0-3-1.6-3.9-5.4-3.7v8c3.8-.2 5.4-1.3 5.4-4.3zM65.3 9.1l10.8-.6L85.8 44l-11.9.6-.5-4.5-5.4.4-.6 4.5-11.9.6 9.8-36.5zm6.9 22.6L71 22.8l-.3-3h-.1l-.3 3-1.2 9.1 3.1-.2zM85.7 26c0-10 4.3-19.2 15.6-19.8 8.6-.5 12.4 4.3 14 10.8l-9.7 2.5c-.5-2.7-2-4.4-4.3-4.3-2.7.1-4.3 3.7-4.3 10.2 0 6.5 1.6 9.9 4.3 9.8 2.2-.1 3.2-1.2 4.3-2.7v-3l-4.3.2.5-7.5 13.5-.7V36c-3.2 5.2-8.1 7.9-14 8.2C90 44.8 85.7 36 85.7 26zM119.5 6.3l11.3-.6v12.5l5.4-.3V5.4l11.3-.6v36l-11.3.6V26.9l-5.4.3v14.5l-11.3.6v-36zM152.3 4.5l20-1 .5 9-9.2.5v4.5l8.1-.4v8.5l-8.1.4v4.5l9.2-.5-.5 9.5-20 1v-36zM181.5 12l-6.5.3 1.1-9.1L198.2 2l1.1 8.9-6.5.3v27l-11.3.8V12zM207.2 10.7l-6.5.3 1.1-9.1L223.9.7l1.1 8.9-6.5.3v27l-11.3.6V10.7zM227.5.6l11.3-.6v36l-11.3.6V.6z"/></svg>