<svg xmlns="http://www.w3.org/2000/svg" viewBox="0 0 93.7 51"><g fill="#FFF"><path d="M8.8 39.5L0 16.5l11.4-2 2.4 12.6c.2 1 .3 1.9.4 2.9h.1c.1-1 .2-2 .4-3.1l2.4-13.4 11.4-2-8.8 26V49L8.8 51V39.5zM31 11.1l19.7-3.5.5 8.9-9 1.6v4.5l8-1.4v8.5l-8 1.4v4.5l9-1.6-.5 9.6L31 47.1v-36zM54 36l8.5-5.5c1.1 2.3 2.5 2.6 3.7 2.3 1.1-.2 2.1-1.4 2.1-2.4 0-5-12.8-4.7-12.8-15.2 0-5 4.3-10.3 11.7-11.6 7.4-1.3 11.2 1 13.3 4.7l-8 4.9c-.8-1.4-1.5-2.2-3.2-1.9-1.3.2-2.1 1.4-2.1 2.9 0 3.6 13.3 4.2 13.3 15.2 0 6.5-5.9 11-13.3 12.3-7.4 1.3-11.5-2-13.2-5.7zM84.1 1.7L93.7 0v25l-9.6 1.7v-25zm0 28l9.6-1.7v8l-9.6 1.7v-8z"/></g></svg>