<?xml version="1.0" encoding="utf-8"?>
<!-- Generator: Adobe Illustrator 18.1.1, SVG Export Plug-In . SVG Version: 6.00 Build 0)  -->
<svg version="1.1" id="Layer_1" xmlns="http://www.w3.org/2000/svg" xmlns:xlink="http://www.w3.org/1999/xlink" x="0px" y="0px"
	 viewBox="0 0 238.8 48.8" enable-background="new 0 0 238.8 48.8" xml:space="preserve">
<path fill="#FAAB54" d="M0,41.5l8.6-4.5c1.1,2.4,2.5,2.9,3.8,2.8c1.1-0.1,2.2-1.1,2.2-2.1c0-5-12.9-6.3-12.9-16.8
	c0-5,4.3-9.7,11.9-10.1s11.3,2.4,13.5,6.3L18.9,21c-0.8-1.5-1.6-2.4-3.2-2.3c-1.3,0.1-2.2,1.1-2.2,2.6c0,3.6,13.5,5.8,13.5,16.8
	c0,6.5-5.9,10.3-13.5,10.7S1.8,45.4,0,41.5z"/>
<path fill="#FAAB54" d="M30.6,10.9l13.5-0.7c9.2-0.5,14,4.8,14,11.3c0,7.7-6.2,12.5-13.8,12.9c-0.8,0-1.6,0-2.4,0v12l-11.3,0.6V10.9
	z M47.3,22c0-3-1.6-3.9-5.4-3.7v8C45.7,26.1,47.3,25,47.3,22z"/>
<path fill="#FAAB54" d="M65.3,9.1l10.8-0.6L85.8,44l-11.9,0.6l-0.5-4.5L68,40.5L67.4,45l-11.9,0.6L65.3,9.1z M72.2,31.7L71,22.8
	c-0.1-1-0.2-2-0.3-3l-0.1,0c-0.1,1-0.2,2-0.3,3l-1.2,9.1L72.2,31.7z"/>
<path fill="#FAAB54" d="M85.7,26c0-10,4.3-19.2,15.6-19.8c8.6-0.5,12.4,4.3,14,10.8l-9.7,2.5c-0.5-2.7-2-4.4-4.3-4.3
	c-2.7,0.1-4.3,3.7-4.3,10.2c0,6.5,1.6,9.9,4.3,9.8c2.2-0.1,3.2-1.2,4.3-2.7v-3l-4.3,0.2l0.5-7.5l13.5-0.7V36
	c-3.2,5.2-8.1,7.9-14,8.2C90,44.8,85.7,36,85.7,26z"/>
<path fill="#FAAB54" d="M119.5,6.3l11.3-0.6v12.5l5.4-0.3V5.4l11.3-0.6v36l-11.3,0.6V26.9l-5.4,0.3v14.5l-11.3,0.6V6.3z"/>
<path fill="#FAAB54" d="M152.3,4.5l20-1l0.5,9l-9.2,0.5v4.5l8.1-0.4v8.5l-8.1,0.4v4.5l9.2-0.5l-0.5,9.5l-20,1V4.5z"/>
<path fill="#FAAB54" d="M181.5,12l-6.5,0.3l1.1-9.1l22.1-1.2l1.1,8.9l-6.5,0.3v27L181.5,39V12z"/>
<path fill="#FAAB54" d="M207.2,10.7l-6.5,0.3l1.1-9.1l22.1-1.2l1.1,8.9l-6.5,0.3v27l-11.3,0.6V10.7z"/>
<path fill="#FAAB54" d="M227.5,0.6L238.8,0v36l-11.3,0.6V0.6z"/>
</svg>
