<svg xmlns="http://www.w3.org/2000/svg" xmlns:xlink="http://www.w3.org/1999/xlink" width="266" height="109.1" viewBox="0 0 266 109.1"><style type="text/css">.st0{clip-path:url(#SVGID_2_);} .st1{fill:#FAAB54;} .st2{clip-path:url(#SVGID_4_);fill:url(#SVGID_5_);} .st3{fill:#910028;} .st4{fill:#FFFEF2;}</style><defs><path id="SVGID_1_" d="M0 0h266v109.1h-266z"/></defs><clipPath id="SVGID_2_"><use xlink:href="#SVGID_1_" overflow="visible"/></clipPath><path class="st0" d="M132.9 0h-1.7999999999999998c-25.1.9-46 12.9-54 30.8h-58.6c-11.1 0-18.6 6.6-18.6 16.5v44.9c0 9.4 7.7 16.8 17.4 16.8h233.3c7.4 0 15.4-7.1 15.4-17.6v-44c0-7.7-6.6-16.3-16.2-16.3-21.9 0-53.6-.1-61.7-.2-7.6-17.7-27.9-29.4-53.3-30.9l-1.8-.1h-.1v.1m-126.7 92.3v-44.9c0-6.4 4.6-10.3 12.4-10.3h62.8l.8-2c6.4-16.7 25.7-28 49.3-28.8h1.6c.1 0 1.5.1 1.5.1 23.8 1.3 42.4 12.2 48.6 28.5l.2.4c.8 1.9 2.6 2 3.6 2h9.2l21.9.1 31.9.1c6.1 0 9.9 6 9.9 10.1v44.1c0 6.7-4.8 11.3-9.2 11.3h-233.3c-6.4-.1-11.2-4.7-11.2-10.7z"/><path class="st1" d="M262.9 47.4v44.1c0 8.7-6.4 14.4-12.3 14.4h-233.2c-8.3 0-14.3-6.2-14.3-13.7v-44.8c0-7.9 5.6-13.4 15.4-13.4h60.7c6.8-17.7 27.2-29.9 52.1-30.8.5 0 1.1-.1 1.7-.1.6 0 1.1 0 1.7.1 24.4 1.4 44.5 12.7 51.3 30.5 0 0 .1.3.1.4 0 .1 63.7.2 63.7.2 7.9-.1 13.1 7.3 13.1 13.1"/><defs><path id="SVGID_3_" d="M132.9 8c1.2 0 .5 0 1.7.1 23 1.3 41.7 12.4 46.9 29.6 2.1 7 1.6 8.8 1.6 14.6h-100.5c-.1-5.8-.5-7.6 1.6-14.6 5.2-17.3 23.9-28.4 46.9-29.7 1.2 0 .5-.1 1.8 0"/></defs><clipPath id="SVGID_4_"><use xlink:href="#SVGID_3_" overflow="visible"/></clipPath><linearGradient id="SVGID_5_" gradientUnits="userSpaceOnUse" x1=".138" y1="126.896" x2="1.001" y2="126.896" gradientTransform="matrix(0 -35.631 -35.631 0 4654.288 49.562)"><stop offset="0" stop-color="#FFFEF6"/><stop offset=".15" stop-color="#FFFEF6"/><stop offset=".594" stop-color="#FFF685"/><stop offset=".735" stop-color="#FFE578"/><stop offset="1" stop-color="#FEC35A"/></linearGradient><path class="st2" d="M82.1 7.9h101.6v44.3h-101.6z"/><path class="st3" d="M247 38.9h-58.5c1 5 1.4 10.6 1.3 15.1l-.1 2.8v1h-113.6v-3.8c-.1-4.5-.1-10.1.9-15.1h-57.6c-7.5 0-11.1 4.8-11.1 10.6v41.2c0 5.8 4.8 10.2 10.6 10.2h228.1c5.8 0 10.6-4.8 10.6-10.6v-40.8c0-5.8-4.8-10.6-10.6-10.6"/><path d="M247 101.4h-228.1c-6.3 0-11.2-4.7-11.2-10.7v-41.2c0-6.8 4.6-11.2 11.6-11.2h58.3l-.1.6c-.9 4.9-1 10.3-.9 15l.1 3.3h112.6v-.5l.1-2.8c.1-4.5-.4-10.1-1.3-15l-.1-.6h59.2c6.2 0 11.2 5 11.2 11.2v40.8c-.3 6.1-5.3 11.1-11.4 11.1m-170.6-62h-57c-7.8 0-10.6 5.2-10.6 10.1v41.2c0 5.4 4.4 9.6 10.1 9.6h228.1c5.6 0 10.1-4.5 10.1-10.1v-40.7c0-5.6-4.5-10.1-10.1-10.1h-57.9c.9 4.8 1.3 10.2 1.2 14.6l-.1 4.3h-113.1c-1.3 0-1.5 0-1.5-.5l-.1-3.8c0-4.6 0-9.8.9-14.6zM182.1 37.5c-2.6-8.5-8.4-15.8-17-21.1-8.3-5.2-18.8-8.2-30.4-8.9-.4 0-.6 0-.7-.1h-2c-.1 0-.3 0-.7.1-11.5.6-22 3.7-30.4 8.9-8.6 5.3-14.4 12.6-17 21.1-1.8 6-1.8 8.2-1.7 12.2l.1 2.5v.5h101.5v-3c0-4 .1-6.2-1.7-12.2m-99 12.2c0-1.9-.1-3.5.1-5.2l.6.2c.1 0 .3 0 .4.1h.4v-.1c.1-.1.3-.2.5-.3.2-.2.5-.1.8 0l.8.4c.2.1.4.4.5.6.2.1.3.3.4.5l.6 1c0 .4 0 .9-.1 1.2-.1.3-.2.5-.2.8.1.3-.3.5-.4.7-.1.1-.2.2-.2.3 0 .1-.2.2-.3.2h-4.1l.2-.4zm7.9-6.2c.2-.1.3-.2.4-.3l.2.1c.1.1 0 .2 0 .3l-.7.8h-.2l-.1-.3.1-.5s.2 0 .3-.1zm0-2.2c.1-.2.3-.1.4-.1h.2c.1.1.1.2.1.2.1.1.1.2 0 .3-.1.1-.3.1-.4.1-.1 0-.3.1-.3 0-.1-.2 0-.3 0-.5zm0 4.4c.1-.1.1-.2.2-.2l.6-.7c.1-.1.2-.3.3-.3.3 0 .7-.1 1 .2.1 0 .2.2.3.3.2 0 .3.1.4.1.1.1.3-.1.4-.1.5-.5 1.3-.2 1.6-.8.1-.1.1-.3.1-.5l.2-.5c.1-.2.4-.2.6-.2l.1.1.1 1.2v.3c-.1 1.2 0 2.3 0 3.5 0 .1-.1.1-.1.1-.3.1-.7-.1-.8.3 0 .2.1.4-.1.5l-.6.1c-.1 0-.2 0-.2.1-.1.2.1.6-.1.8-.4.1-.9.1-1.3.1s-.9-.1-1.3 0c-.3-.1-.4-.1-.4-.1h-.7l-.2-.3c-.2-.2-.5-.4-.5-.7-.1-.3-.2-.6-.1-.9v-.7c-.1-.3 0-.5 0-.8v-.3c.1-.3.3-.5.5-.6zm5.3-4.8c.1.2.4.1.6.2h26c.2 0 .5 0 .6.1.1.1 0 .3 0 .4 0 0 0 .2-.1.2h-27c-.3 0-.7 0-.9-.3-.1-.3.1-.5 0-.7.1-.4.9-6.2 1-6.4 0-.2 0-.3.2-.4.1-.1.2-.1.3-.1.1 0 .1 0 .2.1l-.1.6c0 .5-1 6.1-.8 6.3zm18.2-11.4v-.8c.1-.2 0-.4 0-.5 0-.1 0-.1.1-.1h1.1c.1 0 .1.1.1.2-.1.2-.1.5-.2.8 0 .3.1.6-.1.8-.2.3-.5.5-.4.9.2.2.4.1.7.1h.4c0 .1 0 .1.1.2s.1.3.2.3c.2.1.4.1.6 0 .2-.1.2-.2.2-.4.1-.2.3-.1.5-.2.2 0 .5 0 .6-.1l.1-.3v-.1c-.1-.2-.3-.4-.3-.7 0-.2-.1-.3 0-.5 0-.1 0-.1-.1-.2 0-.2-.1-.3 0-.4-.1-.1-.1-.3 0-.4.1-.1.3-.1.4-.1.2-.1.4 0 .6 0 .2 0 .1.2.1.3v2.8c0 .3.1.7 0 1-.2.2-.5.1-.7.1h-3.3c-.2-.1-.5.1-.6-.1-.1-.4 0-.8 0-1.3v-1.1c-.1 0-.1-.1-.1-.2zm10.5 9.8c0 .2 0 .5.1.7v.1c.1.4-.1 1 .5 1 .4.1 2.5-.1 3.1 0h.5c.1.1.2.4.2.5 0 .1-.1.2-.1.2h-3.9c-.7 0-.8-.5-.8-.8l-.2-1-.1-.7v-.2l-.1-.5v-.2c0-.2-.1-.5.1-.6.1 0 .2-.1.3 0 .1 0 .1.1.2.2l.2.9c0 .1-.1.3 0 .4zm2 4.9c.4.1.3 1.9.2 2.5v1.1c0 .1-.1.1-.2.1h-3.8c-.1-.1-.4 0-.4-.2-.1-.3 0-.6 0-.9.1-.1 0-.3 0-.4v-1.7c0-.2.1-.3.3-.4.2-.1 3.6-.1 3.9-.1zm-7.7 1.5c0 .1 0 .2-.2.3h-2c-.1 0-.2 0-.3-.1l-.1-1v-1c.1-.2.3-.1.5-.2.3.1.6 0 1 0h.7l.2.1v.1c.1.7.2 1.3.2 1.8zm-6.5-1.3c0-.1.1-.2 0-.3 0-.1.1-.3.2-.3.6 0 1.1.1 1.7 0 .1 0 .3 0 .3.2.1.5 0 1 0 1.4v.6c-.1.1-.3.1-.4.1h-1.6c-.1 0-.2-.1-.2-.2 0-.5.1-1 0-1.5zm-4.1-.2c0-.1 0-.3.1-.4h1.3c.3 0 .6 0 .9.1 0 0 .1 0 .1.1 0 .3 0 .6.1.8-.1.4 0 .8 0 1.1-.1.3-.5.1-.7.2h-1.6c-.1 0-.1 0-.1-.1-.1-.1-.1-.3-.1-.4v-.8c-.1-.2 0-.4 0-.6zm-1.8 1.6l-.1.3h-2.2c-.1 0-.1-.1-.2-.2v-1.9c0-.1.2-.2.3-.2.1 0 .3-.1.4 0 .2 0 .4-.1.5 0h1c.1 0 .2.1.2.2 0 .5.2 1.2.1 1.8zm-6.8-.2v-1.5c0-.1 0-.3.1-.3.1-.1.3 0 .5 0h1.8c.1 0 .2.1.2.1v2.1c-.1.1-.2.1-.4.1-.4 0-.9-.1-1.3 0h-.7c-.3-.1-.1-.4-.2-.5zm-10.3-3.9c0 .1 0 .2-.1.3h-.1c-.1-.1-.1-.1-.1-.2s.1-.1.1-.1c.1-.1.2-.1.2 0zm-1.5 2.1c-.1-.4 0-.8 0-1.2 0-.1 0-.3.1-.4.2.1.2.2.3.4.2.1.3.4.6.4.1.1.2.1.2.3l-.1.5c-.2.3-.2.7-.3 1h-.1c-.2-.1-.3-.3-.5-.5-.3 0-.2-.3-.2-.5zm.4-3.8c.1 0 .3-.1.4 0 0 .3.3.7-.1.8-.2 0-.2-.2-.3-.2-.1-.1-.1-.1-.1-.2-.1-.1-.1-.3.1-.4zm-1.7 3c.1 0 .2-.2.3-.1v.7999999999999999c-.2.1-.3.1-.4 0-.2-.1-.2-.3-.2-.5.1-.1.2-.2.3-.2zm-.6-1.9c0-.2.1-.5.3-.6l.4.2v.2c0 .2-.2.2-.3.2-.2.1-.3.1-.4 0zm55.7 5.5c0 .2 0 .4-.1.6-.2.2-.4.1-.7.2h-.8c-.1 0-.2-.1-.2-.2v-3.2c.2-.3.6-.2.9-.2h.5c.1 0 .2.1.2.2l.1.8.1 1.8zm2.4-.4v.9c0 .1 0 .3-.1.3-.2.1-.5 0-.7 0h-.7c-.3-.2-.1-.7-.2-1 0-.2-.1-.3 0-.5 0-.4-.1-.7 0-1.1v-.9c0-.1.1-.2.2-.3.4-.1.8 0 1.3 0l.2.1.1.9-.1 1.6zm-.1-8.8c0 .1-.1.2-.2.2-.1.1-.3 0-.5 0-.3 0-.5 0-.7-.1-.2-.2-.1-.5-.1-.7-.1-.5-.1-1.1.1-1.5.1-.2.4-.3.6-.4.3 0 .5.2.6.4 0 .1.1.2.1.4l.1.7c-.1.3 0 .6 0 1zm20.1 8.7h-3.2c-.1 0-.2 0-.3-.2v-2.2c0-.1.1-.2.2-.2.4 0 .9-.1 1.3 0h.6c.4.1.8 0 1.1 0 .3.1.2.5.2.8v1.6c.2.1.1.2.1.2zm.1 1.2v.8s0 .1-.1.1c-.2 0-.5.1-.6-.1v-1.3c0-.1.1-.2.2-.2.2 0 .3 0 .4.1l.1.6zm-1.3.8c0 .1 0 .3-.1.3s-.3.1-.4 0c-.1 0-.2 0-.3-.1-.1-.4 0-.7 0-1.1 0-.1 0-.2.1-.3.1-.1.3-.1.5-.1h.2l.1.5c-.1.3-.1.5-.1.8zm-1.4.2c-.3.1-.5.1-.7.1-.1-.1-.1-.1-.1-.2v-1.1c0-.1.1-.2.2-.2.2 0 .5-.1.6.1v1.3zm-10.9-6c-.2 0-.3-.1-.4-.3-.2-.2-4.2-7.8-4.4-8.2v-.2c.1-.1.3 0 .4 0 .1 0 4.3 7.8 4.4 7.9.2.2.5.2.8.2l12.8-.1c.2.1.3.2.3.4 0 .1 0 .1-.1.2l-13.8.1zm7.5 4.4c-.1.2.1.6-.2.7h-.6c-.5 0-1 .1-1.5 0h-2c-.1-.1-.2-.1-.2-.3v-3.2c0-.1.1-.2.1-.2.2-.1.5 0 .7 0 .7 0 1.4-.1 2.1 0h1.5c.1.1.1.2.1.3v2.7zm-7.1-1.8c0-.5 0-.9.1-1.4.1-.1.3-.1.4 0 .1.1.1.4.1.6v1.6c0 .3.1.5 0 .7v.9l-.1 1.3c-.1.2-.3.1-.5.1-.4.1-.9 0-1.3 0h-.2v-.1l.4-.2c.1 0 .2-.1.4-.1.1 0 .1 0 .2-.1s.3-.1.4-.3v-1.3c.2-.5.1-1.1.1-1.7zm-1.1 4.7h2.1c.1 0 .1.1.1.1v.3c-.1.1-.3.1-.4.1h-1.7c-.5 0-.9 0-1.4-.1-.1 0-.1-.1-.1-.1v-.3l.1-.1 1.3.1zm-3.5-5.9c.1 0 .2 0 .2.1.1.5 0 1.1 0 1.7v1.6c0 .1-.1.2-.1.2l-.1.1h-1.3l-.2-.1c0-1-.1-1.9 0-2.8v-.6c.1-.2.3-.1.4-.2.4 0 .8-.1 1.1 0zm28.4-1.1c.1.1.3.1.4.3.1 0 .2.1.2.2v.4c-.2 0-.3.1-.4 0l-.5-.6c0-.1-.1-.1 0-.2-.1-.2.1-.2.3-.1zm-.2-1.3c0-.2.3-.3.4-.4l.2.1c-.1.2.1.5-.2.6-.2 0-.3-.1-.4-.2v-.1zm6.5-.8c0 .1-.1.3-.3.2-.1 0-.2-.2-.2-.3 0-.1.1-.2.2-.2s.2 0 .2.1c.1.1.1.1.1.2zm-1.3 1.6c-.1.1-.3.1-.4.3-.1 0-.2.2-.3.3l-.6.4c-.1-.1-.1-.2-.1-.3l.2-.3c.1-.1.2-.2.3-.4.1-.2.3-.4.3-.7 0-.1.1-.1.1-.1.1 0 .3 0 .3.2l.1.4c.1 0 .1.1.1.2zm-2.7-1.8c.1-.1.3 0 .4.1.1.1.3.2.3.4l-.3.4-.3.2c-.2-.1-.1-.4-.2-.6-.1-.2 0-.3.1-.5zm2.2 9.9l-.2-.2c-.1-.2-.1-.4-.3-.6-.2-.3-.6-.4-.7-.7v-.3c0-.2-.1-.5.1-.7 0-.2.1-.3.1-.6-.1-.2-.1-.3-.1-.5l.1-.5c0-.3.3-.6.4-.8.2-.1.4-.3.5-.4h.1c.2.1.3.1.4.3.2.3.5.3.7.5.3 0 .7.1 1 0l.3-.2c.1-.2.3-.1.5-.1.1 1.5.1 2.8 0 4.5v.5l-2.9-.2zm-78.4-32.9c8.2-5.1 18.5-8.1 29.9-8.7.5 0 .7-.1.8-.1h1.9c.1 0 .3 0 .8.1 11.4.6 21.7 3.7 29.9 8.7 5.2 3.2 9.4 7.2 12.5 11.8-.2 0-.3.1-.5-.1l-.3-.3-.6-.4c-.2-.1-.5 0-.7 0h-.2c-.1-.1-.3-.1-.5-.1-.3.1-.6.2-.9.5-.1 0-.2.1-.3.3-.2.2-.3.4-.4.6-.2.2-.1.4-.1.6l-.3.6c-.1.1-.3.3-.4.3-.2-.1-.5-.1-.8-.1-.1.1-.3.1-.3.2l-.3.1c-.1.1-.2.2-.2.3 0 .1-.1.3-.2.4-.1.1-.3.1-.4.1h-.1l-.4-.1c-.3-.1-.5.1-.7.1-.2.2-.4.2-.5.4-.2.2-.1.5-.2.8-.1.3-.4.2-.5.4-.1.2-.1.3 0 .5.1.1.1.3.1.4.1.1.1.2.1.3-.1.1-.3.2-.5.3-.3.1-.5.5-.5.8 0 .3-.2.5 0 .8.1.5-.5.6-.7 1 0 .1-.1.3-.2.4-.2.4.3.6.4.9l1.3 1.4 1 1 .4.5c.2.3.5.5.4.9 0 .2 0 .4-.1.5-.1.1-.3.1-.4.1h-.6c-.1 0-.3-.1-.4.1-.1.2 0 .3 0 .5.1.2.2.5.4.6l.5.3.3.1h.2c.2-.1.4-.1.5-.2.2 0 .3-.1.4-.3.1-.1 0-.3.2-.4.2-.1.4-.4.7-.4.1 0 .2.1.3.2.1.3 0 .6 0 .8 0 .2.1.4 0 .5v.8c0 .1-.2.1-.2.1-.2.1-.5.1-.7.4-.2.2-.3.5-.4.7-.1.2-.1.4-.1.6 0 .3 0 .6.2.8.1.2.2.4.4.6.2.2.4.3.7.3.2.1.5.1.8.1l.5-.1c.3-.1.5-.3.7-.6.2-.1.2-.4.3-.6 0-.3.1-.6 0-.9-.1-.1-.1-.2-.1-.3-.1-.2-.2-.5-.4-.6l-.5-.4c-.1 0-.2-.2-.2-.3v-1.6c0-.1 0-.2.1-.3.2-.1.4.2.5.4.1.1.2.2.4.3l.3.1.4.1.7-.1c.2.1.5.2.5.4.2.2.4.3.7.3.2.1.3.3.5.5v.3c-.1.1 0 .3 0 .4 0 .1 0 .2-.1.3l.1.5c.1.2 0 .4 0 .6l-.1.3-.1.7c-.1.3-.4.4-.6.5-.3.1-.3.5-.6.7-.1.1-.3 0-.4 0-.7-.1-1.4 0-2.1 0h-.8c-.2 0-.3-.1-.5 0h-.7l-.5.1h-.9c-.1-.1-.1-.1-.1-.2 0-.2.1-.4-.1-.6l-.7-.1c-.1 0-.2 0-.3-.1-.1-.2-.1-.5-.1-.7l-.1-.2c-.1-.1-.2 0-.3 0-.2-.1-.6.1-.7-.1v-1.7c-.1-.6-.1-1.3-.1-1.9v-.4c-.1-.4 0-.8 0-1.1v-.1c.1-.2.3-.1.5-.1.6 0 1.1.1 1.7 0l.1-.1c.1-.2-.1-.4-.2-.6-.4-.3-.7-.7-1-1l-1.6-1.8-.9-.9c-.2-.2-.5-.2-.7-.2-.6.1-3.4-5.6-3.6-5.7h-1.9l-.2-.1c-.1-.1-.1-1.3-.3-1.5h-1.6c-.2 0-.5 0-.5.2l-.1 1.1c0 .1-.1.1-.2.1h-9.5c-.3 0-.5-.3-.5-.5l-.6-1.2-.5-.9c0-.2-.2-.3-.3-.5h-.2c-.1 0-.1.1-.1.1l-6.9 13c-.1.1 0 .3 0 .4 0 .1.1.2.2.2h1.6c.1 0 .4 0 .4.2 0 .4.1.5 0 .9 0 .2 0 .6-.1.7-.2.1-.4.3-.5.5-.1.2-.2.3-.2.4-.1.2-.4.2-.6.2-.3.1-.5.1-.7.3l-.4.5c-.1.2-.2.5-.4.6h-.6l-.6.3v-.1l-.1-21.8c.1-.3-.1-.7.1-.9.1-.1 0-.4-.1-.5-.1-.2-.3-.2-.4-.2-.1 0-.2.2-.3.3-.1.2.2.5-.1.7-.3.3-.5.6-.6.9l-.2.5c-.2.4-.3.8-.6 1.2l-.7.8c-.1.2-.4.5-.4.7-.1 0-.1.1-.1.2 0 .2-.1.4-.2.7v.1c-.1.5-.1 1.1-.2 1.7v.5c0 .3-.1.7 0 1 0 .2 0 .4.1.5h.2c.1-.2.2-.5.5-.7.1-.2.2-.3.4-.5l.7-.6.1-.1.3-.5c0-.1.1-.1.1-.1.1-.1.1-.2.1-.2.1-.3.2-.5.4-.7.2 0 .1.2.2.3l-.2 16.4c0 .4-.1.7 0 1.1 0 .2 0 .4-.1.6-.2.1-.5.3-.7.5l-.3.3-.4.7c-.2.1-.5 0-.7 0h-.4s0-.1-.1-.1-.2-.1-.2-.3v-.7c0-.1-.1-.1-.2-.2h-1.2c-.2-.1-.1-.2-.2-.4v-3.4000000000000004c-.1-.2 0-.5 0-.7v-1.1c0-.2 0-.2.1-.3.1-.1.2-.1.2-.1h.9c.2-.1.5 0 .6-.2.1-.2.1-.4 0-.6l-2-5.3c-.1-.1-.2-.2-.4-.3h-4.3999999999999995c-.2-.1-.3-.3-.3-.5l-.7-3.7c-.1-.2-.3-.3-.5-.3h-2c-.1 0-.1-.1-.1-.2v-5c.1-.2.3-.1.4-.1.2-.1.4 0 .6 0 .1 0 .2-.1.2-.2 0-.3.1-.6-.1-.9l-.2-.3c-.4-.3-.6-.7-1-1.1l-.6-.6c-.1 0-.2-.1-.2-.1h-5.5l-.5.1-.8.8-.3.3c-.3.5-.9.8-1.1 1.3 0 .2-.1.6.2.7h.9c.1 0 .1.2.1.2v4.4c0 .2.1.6-.2.7h-12.6c-.3-.1-.3-.4-.4-.6-.3-.3-.3-.7-.7-.9-.2 0-.3-.1-.5-.2s-.5.1-.7-.1c-.4-.2-.4-.6-.4-.9-.1-.2-.2-.4-.4-.5l-.6-.4c-.3-.2-.6 0-.9.1-.4-.1-.7.2-1 .1-.2-.2-.4-.4-.5-.7.1-.2 0-.4-.2-.5-.1-.2-.2-.3-.4-.4-.2-.1-.4-.3-.6-.3-.2-.1-.5 0-.7 0-.4.1-.7-.2-1.1-.3h-.4c-.1.1-.2.1-.3.1 2.5-3.8 6.2-7 10.5-9.6zm71.7 24.8l-.1.2c-.1 0-.2 0-.2-.1-.2-.1-.3-.3-.6-.3l-.1-.2c0-.1.1-.2.2-.2.2 0 .2.1.4.2.1.1.2.1.2.1.1.1.4.1.2.3zm-1.5 5c.3.2.4.5.4.9 0 .2-.3.3-.4.5-.2.1-.4.1-.6 0-.3 0-.4-.3-.5-.5 0-.3 0-.6.3-.8.2-.1.4-.3.7-.1h.1zM32.2 57.2c0-4.6-2.3-1.3-2.3-5.2v-.9h11.4v.9c0 3.9-2.3.6-2.3 5.2v25.1c0 6.1-2.6 11-9.9 11-3.7 0-9-2.3-9-8.8 0-3.1 1.4-5.7 3.7-5.7 1.8 0 3.6 2.2 3.6 4.9s-1.1 3.1-1.1 4.4c0 1.8 1.4 2.4 2.4 2.4 3.4 0 3.6-3.4 3.6-7.5v-25.8"/><path d="M62.8 79.1c0 8.8-4.9 14.8-10.9 14.8-6.1 0-10.8-6.4-10.8-15.1 0-9 4.8-14.8 10.9-14.8 6.3 0 10.8 6 10.8 15.1m-14.7.1c0 3.7.4 12 4 12s3.8-7.8 3.8-11.5-.2-12.9-4-12.9c-3.6 0-3.8 8.8-3.8 12.4zM62.9 92.2v-.9c0-3.9 2.3-.6 2.3-5.2v-28.9c0-4.6-2.3-1.3-2.3-5.2v-.9l8.7-.4v15.3c1.7-1.9 3.6-3 5.9-3 4.3 0 6.6 3.1 6.6 8.8v14.3c0 4.6 2.3 1.3 2.3 5.2v.9h-11v-.9c0-3.9 2.2-.6 2.2-5.2v-12.9c0-2.9-.3-6.1-2.8-6.1-1.1 0-2.5 1.1-3.2 2.4v16.6c0 4.6 2.2 1.3 2.2 5.2v.9h-10.9M95.5 63.5v2.9c1.9-2.3 3.4-3.3 6-3.3 4.9 0 6.7 3.7 6.7 9.3v13.7c0 4.6 2.3 1.3 2.3 5.2v.9h-10.9v-.9c0-3.9 2.2-.6 2.2-5.2v-14.2c0-2.3-.4-4.8-2.7-4.8-1 0-2.6.8-3.2 2.1v16.9c0 4.5 2.5 1.2 2.5 5.2v.9h-11.3v-.9c0-3.9 2.3-.6 2.3-5.2v-16.2c0-4.6-2.3-1.3-2.3-5.2v-.9l8.4-.3M116 88.4c0 1.3 1.9 1.6 2.5 1.6 1.7 0 4-1 4-3.9 0-5.6-11.2-3.6-11.2-13.4 0-6.9 4.9-9.6 9-9.6 2.4 0 6.8 1.2 6.8 5.6 0 2.2-1.4 3.6-2.8 3.6-1.3 0-2.7-1.2-2.7-3.2 0-.6.3-1.5.3-1.9 0-.9-1.3-1.2-1.8-1.2-1.2 0-3 1-3 3.1 0 5.4 11.2 2.8 11.2 13.3 0 7.3-5.3 10.5-9.7 10.5-2.9 0-8.1-1.3-8.1-6.7 0-2.3 1.3-3.9 2.9-3.9 1.6 0 3.1 1.5 3.1 3.9 0 .5-.1.8-.2 1.3-.2.3-.3.7-.3.9"/><path d="M150.4 78.2c0 8.8-4.9 14.8-10.9 14.8s-10.8-6.4-10.8-15.1c0-9 4.8-14.8 10.9-14.8 6.3-.1 10.8 6 10.8 15.1m-14.8 0c0 3.7.4 12 4 12s3.8-7.8 3.8-11.5-.2-12.9-4-12.9c-3.5 0-3.8 8.9-3.8 12.4zM158.9 63.5v2.9c1.9-2.3 3.4-3.3 6-3.3 4.9 0 6.7 3.7 6.7 9.3v13.7c0 4.6 2.3 1.3 2.3 5.2v.9h-10.9v-.9c0-3.9 2.2-.6 2.2-5.2v-14.2c0-2.3-.4-4.8-2.7-4.8-1 0-2.6.8-3.2 2.1v16.9c0 4.5 2.5 1.2 2.5 5.2v.9h-11.2v-.9c0-3.9 2.3-.6 2.3-5.2v-16.2c0-4.6-2.3-1.3-2.3-5.2v-.9l8.3-.3M200.9 86.2v-22.7l-7.3.3h-7.2v.9c0 3.4 2.2 1.2 2.2 3.5 0 .5-.4 1.6-.5 1.9l-3.6 12.3-3.6-12.7c-.1-.5-.5-1.7-.5-2.2 0-1.2 2-.7 2-2.1v-1.6h-11.4v.9c0 3.7 1.4 0 2.8 4.8l6.9 22.7h3.3l7-23.3c.5-1.7 1.3-2.1 1.8-2.1s1.7.1 1.7 3.1v16.2c0 4.6-2.3 1.3-2.3 5.2v.9h11.1v-.9c-.1-3.8-2.4-.5-2.4-5.1M197.2 60.9c2.2 0 3.8-2.4 3.8-5.4 0-2.7-1.7-5.1-3.6-5.1-2.1 0-3.7 2.5-3.7 5.4-.1 2.7 1.5 5.1 3.5 5.1M203.6 92.3v-.9c0-3.9 2.3-.6 2.3-5.2v-28.9c0-4.6-2.3-1.3-2.3-5.2v-.9l8.8-.4v35.4c0 4.6 2.3 1.3 2.3 5.2v.9h-11.1M215.2 92.3v-.9c0-3.9 2.3-.6 2.3-5.2v-28.9c0-4.6-2.3-1.3-2.3-5.2v-.9l8.8-.4v35.4c0 4.6 2.3 1.3 2.3 5.2v.9h-11.1"/><path d="M233 77.5v.7c0 5.3 1.4 11.4 5.9 11.4 2.5 0 4.1-1.9 5.7-4.5l1.6 2c-2 4.1-5.2 6-8.7 6-6.4 0-11.2-6.6-11.2-15.8 0-8.1 4.2-14.2 9.9-14.2 6.3 0 9.8 5.7 9.9 14.4h-13.1m6.7-3c0-3.2-.4-8.5-3.2-8.5-2.9 0-3.3 5.3-3.4 8.5h6.6z"/><path class="st4" d="M30.7 55.5c0-4.6-2.3-1.3-2.3-5.2v-.9h11.4v.9c0 3.9-2.3.6-2.3 5.2v25.1c0 6.1-2.6 11-9.9 11-3.7 0-9-2.3-9-8.8 0-3.1 1.4-5.7 3.7-5.7 1.8 0 3.6 2.2 3.6 4.9s-1.1 3.1-1.1 4.4c0 1.8 1.4 2.4 2.4 2.4 3.4 0 3.6-3.4 3.6-7.5v-25.8"/><path class="st4" d="M61.3 77.4c0 8.8-4.9 14.8-10.9 14.8-6.1 0-10.8-6.4-10.8-15.1 0-9 4.8-14.8 10.9-14.8 6.3 0 10.8 6.1 10.8 15.1m-14.7.1c0 3.7.4 12 4 12s3.8-7.8 3.8-11.5-.2-12.9-4-12.9c-3.6 0-3.8 8.8-3.8 12.4zM61.3 90.5v-.9c0-3.9 2.3-.6 2.3-5.2v-28.9c0-4.6-2.3-1.3-2.3-5.2v-.9l8.7-.4v15.3c1.7-1.9 3.6-3 5.9-3 4.3 0 6.6 3.1 6.6 8.8v14.3c0 4.6 2.3 1.3 2.3 5.2v.9h-10.9v-.9c0-3.9 2.2-.6 2.2-5.2v-12.9c0-2.9-.3-6.1-2.8-6.1-1.1 0-2.5 1-3.2 2.4v16.6c0 4.6 2.2 1.3 2.2 5.2v.9h-11M94 61.8v2.9c1.9-2.3 3.4-3.3 6-3.3 4.9 0 6.7 3.7 6.7 9.3v13.7c0 4.6 2.3 1.3 2.3 5.2v.9h-10.9v-.9c0-3.9 2.2-.6 2.2-5.2v-14.2c0-2.3-.4-4.8-2.7-4.8-1 0-2.6.8-3.2 2.1v16.9c0 4.5 2.5 1.2 2.5 5.2v.9h-11.3v-.9c0-3.9 2.3-.6 2.3-5.2v-16.2c0-4.6-2.3-1.3-2.3-5.2v-.9l8.4-.3M114.5 86.7c0 1.3 1.9 1.6 2.5 1.6 1.7 0 4-1 4-3.9 0-5.6-11.2-3.6-11.2-13.4 0-6.9 4.9-9.6 9-9.6 2.4 0 6.8 1.2 6.8 5.6 0 2.2-1.4 3.6-2.8 3.6-1.3 0-2.7-1.2-2.7-3.2 0-.6.3-1.5.3-1.9 0-.9-1.3-1.2-1.8-1.2-1.2 0-3 1-3 3.2 0 5.4 11.2 2.8 11.2 13.3 0 7.3-5.3 10.5-9.7 10.5-2.9 0-8.1-1.3-8.1-6.7 0-2.3 1.3-3.9 2.9-3.9 1.6 0 3.1 1.5 3.1 3.9 0 .5-.1.8-.2 1.3-.2.2-.3.6-.3.8"/><path class="st4" d="M148.9 76.5c0 8.8-4.9 14.8-10.9 14.8s-10.8-6.4-10.8-15.1c0-9 4.8-14.8 10.9-14.8 6.3 0 10.8 6 10.8 15.1m-14.8 0c0 3.7.4 12 4 12s3.8-7.8 3.8-11.5-.2-12.9-4-12.9c-3.5.1-3.8 8.9-3.8 12.4zM157.4 61.8v2.9c1.9-2.3 3.4-3.3 6-3.3 4.9 0 6.8 3.7 6.8 9.3v13.7c0 4.6 2.3 1.3 2.3 5.2v.9h-10.9v-.9c0-3.9 2.2-.6 2.2-5.2v-14.2c0-2.3-.4-4.8-2.7-4.8-1 0-2.6.8-3.2 2.1v16.9c0 4.5 2.4 1.2 2.4 5.2v.9h-11.2v-.9c0-3.9 2.3-.6 2.3-5.2v-16.2c0-4.6-2.3-1.3-2.3-5.2v-.9l8.3-.3M199.4 84.5v-22.7l-7.3.3h-7.2v.9c0 3.4 2.2 1.2 2.2 3.5 0 .5-.4 1.6-.5 1.9l-3.6 12.3-3.6-12.7c-.1-.5-.5-1.7-.5-2.2 0-1.2 2-.7 2-2.1v-1.6h-11.3v.9c0 3.7 1.4 0 2.8 4.8l6.9 22.7h3.3l7-23.3c.5-1.7 1.3-2.1 1.8-2.1s1.7.1 1.7 3.1v16.2c0 4.6-2.3 1.3-2.3 5.2v.9h11.1v-.9c-.2-3.8-2.5-.5-2.5-5.1M195.7 59.2c2.2 0 3.8-2.4 3.8-5.4 0-2.7-1.7-5.1-3.6-5.1-2.1 0-3.7 2.4-3.7 5.4-.1 2.7 1.5 5.1 3.5 5.1M202.1 90.6v-.9c0-3.9 2.3-.6 2.3-5.2v-28.9c0-4.6-2.3-1.3-2.3-5.2v-.9l8.8-.4v35.4c0 4.6 2.3 1.3 2.3 5.2v.9h-11.1M213.7 90.6v-.9c0-3.9 2.3-.6 2.3-5.2v-28.9c0-4.6-2.3-1.3-2.3-5.2v-.9l8.8-.4v35.4c0 4.6 2.3 1.3 2.3 5.2v.9h-11.1"/><path class="st4" d="M231.5 75.8v.7c0 5.3 1.4 11.4 5.9 11.4 2.5 0 4.1-1.9 5.7-4.5l1.6 2c-2 4.1-5.2 6-8.7 6-6.4 0-11.2-6.6-11.2-15.8 0-8.1 4.2-14.2 9.9-14.2 6.3 0 9.8 5.7 9.9 14.4h-13.1m6.7-3c0-3.2-.4-8.5-3.2-8.5-2.9 0-3.3 5.3-3.4 8.5h6.6zM250.8 63.5c.5.6.8 1.2.8 2s-.3 1.5-.8 2c-.6.6-1.2.8-2 .8s-1.5-.3-2-.8c-.5-.6-.8-1.2-.8-2s.3-1.5.8-2c.6-.6 1.2-.8 2-.8s1.5.2 2 .8m.4-.3c-.6-.6-1.4-1-2.3-1-.9 0-1.7.3-2.3 1-.6.6-1 1.4-1 2.3 0 .9.3 1.7 1 2.3.6.7 1.4 1 2.3 1 .9 0 1.7-.3 2.3-1 .6-.6 1-1.4 1-2.3 0-.9-.4-1.7-1-2.3zm-1.9 2.1c-.1.1-.3.1-.6.1h-.6v-1.3h.5c.4 0 .6 0 .8.1.2.1.2.3.2.5.1.4 0 .5-.3.6zm-1.8 2h.6v-1.4h.5c.3 0 .6 0 .7.1.2.1.3.4.3.8v.4h.6v-.8c0-.2-.1-.4-.2-.6-.1-.2-.3-.3-.6-.4.2 0 .4-.1.5-.2.2-.2.4-.4.4-.7 0-.5-.2-.8-.6-.9-.2-.1-.5-.1-1-.1h-1.3v3.8z"/></svg>