<svg xmlns="http://www.w3.org/2000/svg" viewBox="0 0 349.6 95.6"><path fill="#FFF" d="M0 89.7l8.5-5.5c1.1 2.3 2.5 2.6 3.7 2.3 1.1-.2 2.1-1.4 2.1-2.4 0-5-12.8-4.7-12.8-15.2 0-5 4.3-10.3 11.7-11.6 7.4-1.3 11.2 1 13.3 4.7l-8 4.9c-.8-1.4-1.5-2.2-3.2-1.9-1.3.2-2.1 1.4-2.1 2.9 0 3.6 13.3 4.2 13.3 15.2 0 6.5-5.9 11-13.3 12.3-7.3 1.3-11.4-2-13.2-5.7zM36.8 54.2l10.6-1.9L57 86.6l-11.7 2.1-.5-4.4-5.3.9-.5 4.6-11.7 2.1 9.5-37.7zM43.6 76l-1.2-8.8-.3-3H42l-.3 3-1.2 9.2 3.1-.4zM58 74.5v-24l11.2-2v24c0 2.5.5 3.9 2.7 3.5 2.1-.4 2.7-2 2.7-4.5v-24l11.2-2v24c0 9-4.8 13.8-13.8 15.4-9.2 1.7-14-1.4-14-10.4zM87.6 74.2l8.5-5.5c1.1 2.3 2.5 2.6 3.7 2.3 1.1-.2 2.1-1.4 2.1-2.4 0-5-12.8-4.7-12.8-15.2 0-5 4.3-10.3 11.7-11.6 7.4-1.3 11.2 1 13.3 4.7l-8 4.9c-.8-1.4-1.5-2.2-3.2-1.9-1.3.2-2.1 1.4-2.1 2.9 0 3.6 13.3 4.2 13.3 15.2 0 6.5-5.9 11-13.3 12.3-7.3 1.3-11.4-2-13.2-5.7zM124.5 38.7l10.6-1.9 9.6 34.3-11.7 2.1-.5-4.4-5.3.9-.5 4.6-11.7 2.1 9.5-37.7zm6.8 21.8l-1.2-8.8-.3-3h-.1l-.3 3-1.2 9.2 3.1-.4zM144.6 53.2c0-10 4.3-19.8 15.4-21.7 8.5-1.5 12.2 2.8 13.8 9.1l-9.6 3.7c-.5-2.6-2-4.2-4.3-3.8-2.7.5-4.3 4.3-4.3 10.8 0 6.5 1.6 9.7 4.3 9.3 2.1-.4 3.2-1.6 4.3-3.3v-3l-4.2.7.5-7.6 13.3-2.3v14.5c-3.2 5.6-8 8.9-13.8 9.9-11.2 2-15.4-6.3-15.4-16.3zM177.9 29.3l19.7-3.5.5 8.9-9 1.6v4.5l8-1.4v8.5l-8 1.4v4.5l9-1.6-.5 9.6-19.7 3.5v-36zM202.5 42l13.8-2.4v7.5l-13.8 2.4V42zM227.1 20.7l10.6-1.9 9.6 34.3-11.7 2.1-.5-4.4-5.3.9-.5 4.6-11.7 2.1 9.5-37.7zm6.8 21.8l-1.2-8.8-.3-3h-.1l-.3 3-1.2 9.2 3.1-.4zM249.8 16.6l14.9-2.6c7.9-1.4 11.2 3 11.2 7 0 3.5-1.6 6.8-4.8 8.3v.1c3.7.8 5.9 3.4 5.9 7.9 0 5-2.7 11-12.2 12.7l-14.9 2.6v-36zm15.4 8.3c0-2.4-1.1-3.3-4.3-2.7v7c3.3-.6 4.3-1.7 4.3-4.3zm.6 13.4c0-2.9-1.6-3.7-4.8-3.2v7.5c3.2-.5 4.8-1.5 4.8-4.3zM280.5 11.2l11.2-2v27l8.5-1.5-1.1 9.2-18.6 3.3v-36zM302.7 7.3l19.7-3.5.5 8.9-9 1.6v4.5l8-1.4v8.5l-8 1.4v4.5l9-1.6-.5 9.6-19.7 3.5v-36zM331.8 25c0-8.1 8.2-9.8 8.2-14.9 0-2-.5-2.9-2.1-2.6-1.4.2-2.8 1.2-2.8 4.3 0 .5.1 1 .1 1.6l-9 1.6c-.1-.7-.1-1.4-.1-2 0-7.5 5.5-11.7 12.3-12.9 7.4-1.3 11.2 2.4 11.2 7.3 0 10.3-7.6 10-7.6 16.9 0 .4.1.8.1 1.4L332 27.5c-.1-.8-.2-1.7-.2-2.5zm.3 5.6l10.1-1.8v7.5l-10.1 1.8v-7.5z"/></svg>