<svg xmlns="http://www.w3.org/2000/svg" width="275" height="68.7" viewBox="0 0 275 68.7"><style type="text/css">.st0{fill:#FFFFFF;}</style><path class="st0" d="M271.6 21.3c-.2-.2-.5.1-.7.6-1.5 4.2-2.7 8.5-4.1 12.7-1 1.9-2.6 3.4-3.8 4.3-1.6 1.2-3.4 1.8-4 .3-.6-1.4 1.4-7.3 1.8-8.2.4-.9 2.1-6.3 2.1-6.4 0-.1-.6-1-1.1-1.7-.5-.7-1.6-2.6-2-1.7-.3.6-2.6 7.8-3 9.2-.2.7-.7 1.9-1 3.4-.6 1.2-2.1 3.9-3.2 4.8-1.4 1.2-1.8 1.4-2.4 1.5-1.3.1-.7-4.9-.6-5.5.4-2 1-3.9 1.8-5.8.4-.9.9-1.7 1.4-2.5.3-.5.8-1.4.6-1.9-.4-.9-1.6-3.3-2.2-2.7-.2.2-.6.8-1.1 1.7-.3-.6-.9-1.5-2.2-1.9-3.1-1.1-5.9 1.1-7.9 3.1-2.1 2.1-3.7 5.1-4.6 8-.3.9-.5 2-.6 3.1-.1.2-.2.5-.4.7-.7 1-1.4 2-2.2 3-.8.9-1.9 2.5-3.3 1.9-1.2-.5-.8-2.1-.6-3.1.9-3.2 3.1-8.8 4-11.3 1.3-3.7 5-12.7 5.8-14.4.8-1.8 1.2-3.6 1.3-3.7.1-.1.1-.3-.2-.6-.4-.3-1.9-2.1-2.1-2.2-.3-.1-.4-.3-.7 0-.3.4-5.9 15.5-7.2 18.6-.2.6-.5 1.2-.8 2-.3-.9-1-2.9-1.9-3.7-.9-.8-2.8-1.6-5.3-.2-2.5 1.4-5.3 5-6.6 7.8-.8 1.6-1.7 4.1-1.6 6.5-.8.7-1.6 1.6-2.3 2.4-.2.2-2.1 1.7-2.2 1.1-.1-.3.2-1.6.7-3.3.5-1.7 2.8-8 2.9-9.3.1-1.3-.1-3.4-2.1-4.1-1.7-.6-3.5.2-4.9 1.2-.7.5-1.4 1.1-2.1 1.8-.3.3-.7.6-1 1 .4-1.3.8-2.4.8-2.6.1-.4.2-.8-.5-1.3-.6-.5-1.7-1.9-2.3-1.5 0 0-4.2 12.7-4.5 13.4-.1.1-.1.5-.3 1-.9 1.3-1.9 2.7-2.6 3.4-1.4 1.3-2.2 2.1-3 1.8-.9-.3.1-4.7.4-5.4l4.5-10.8c.2-.6 1.2-1.9.1-2.4-1-.5-2-1-2.7-1-.5 0-2.1 4.5-2.4 5.2-.9 2.3-1.7 4.6-2.4 7v-.1.2l-.2.6c-.5 1.3-2.1 3.4-2.7 4.1-.9 1-2.7 2.7-4.1 2.9-2.2.2 1.2-8 1.5-8.8.8-2 2-4.2 2.9-6.4.4-.9 1.2-2.4 1.1-2.7-.2-.5-3.2-1.6-3.5-1.5-.4.1-4.5 10.4-5.3 13.6-1.2 4.8 1.3 9.6 5.9 7.3 1.8-.9 3.1-2.8 3.9-4.1.2 2.9 1.5 5.6 5.2 4.5.7-.2 1.7-.8 2.6-1.5 0 .3.1.5.2.6.6.7 1.2.9 1.5.9s.7-.1 1-1.2c.2-.9 1.9-6.9 2.9-9.9 1.5-1.8 3-3.5 4.8-4.9 1-.8 2.1-1.9 3.3-2.3.8-.3.8 0 .7.5-.1.5-.5 1.7-1.1 3.1-.6 1.4-2.2 5.5-2.7 8.8-.4 2.5.8 4.3 2.4 4.7 1.6.4 3.5-1 4.1-1.7.4-.4 1.2-1.2 1.9-1.8.3 1 .8 1.9 1.7 2.7 3.5 3.3 7.7-.2 8.4-.9.4-.4 1.2-1.3 1.8-2.1.2 1.8 1 3.4 2.8 4.2 3.2 1.3 5.4-1.4 7.3-3.6.2.6.5 1.2.9 1.7 3 3.6 8 1 10.7-1.9.8 2.1 2.1 3.5 3.8 3.3 1.9-.2 4.3-2.6 5.4-4.3l.1.3c1.5 3.8 4.7 4.4 6.9 3.1.7-.4 1.4-.8 1.8-1.2l-.9 2.1c-2.1 4.5-4.9 8.5-8.8 11.6-4.1 3.2-8.9 3.6-14 3.7-9.3.1-18.6-.7-27.6-2.6-6.6-1.4-13.1-3.9-20-4-6.7-.1-16.1 2.7-18.7 9.5-1.5 3.9.7 6 1.3 6.3.4.2.9-.6 1.1-1.5.3-.8 2.1-4.7 5.6-7.1 5.3-3.7 9.9-4.2 16.2-3 5.1 1 12.8 2.4 18 3.3 4 .7 15.8 1.9 20.7 2.1 4.9.2 11.4.3 14.9-1.1 3.5-1.4 8.6-4 11.4-8.3 2.9-4.3 4.6-8.5 6.3-14.2 1.6-5.4 3.3-11.6 3.6-12.3.3-.7.3-1.1.1-1.5-.7-.4-2.4-2.3-2.6-2.5zm-45.9 13.2l-.9 1.1c-1.1 1.5-2.1 3.2-3.7 4.3-1.1.8-3 1.6-4.2.7-2.3-1.6.2-5.9 1-7.8.6-1.5 6.5-11.7 8.4-7.7.5 1.1 1.1 3.1 1.3 3.6-.8 2.2-1.5 4.3-1.9 5.8zm19.8 2.7c-1.3 1.4-3.9 2.8-5.4 2.7-1.1-.1-1.9-.7-2.1-1.9-.4-2.3.8-4.7 1.8-6.7.9-1.8 1.9-3.6 3.2-5.2.9-1.2 2.7-3 4.2-3 1.3 0 1.6 1 2 1.6-.5.9-1 1.9-1.2 2.7-.6 1.8-1.8 5.8-1.7 8.9l-.8.9zM179 15.9l-.4 1.8c-.1.3-.2.5-.2.7l-.3.9c.1 1 2.7.8 3 0 0 0 .7-1.7.9-2.1 1.2-4-.1-9.9-5-10.4-3.9-.4-7.8 2.4-9.3 7.3-1.5 5 1.5 13 1.9 21.1.4 8.1-5.1 12.6-7.4 13.5-4.1 1.7-10.5-1-12.7-4.6-2.5-4.3.2-10.2 3.5-13.2 2.6-2.4 6.3-2.4 7-2.5.7-.1 1.5-.3 1.4-.6-.1-.6-1.5-2.3-5-1.8-2.8.4-4.8 1.7-6.6 3.7-1.7 1.9-3 4-3.8 6.4-1.4 4.6-.6 10.2 3 13.6.1.1.3.2.4.4 4.7 4.1 12.3 5.4 17.9 1.2 7.7-5.8 6.1-17.7 4.7-25.1-.8-4-2.4-13.7 2.9-15.7 2.1-.8 3.4.9 3.9 2.9.1.8.2 1.7.2 2.5zM250.2 23.4c.1.1.2.3.2.4 0 0 0-.1.1-.1l-.3-.3zM229 44.5c3.1 1.3 5.2-1.2 7-3.3-.2-.3-.3-.7-.4-1-1.9 2.2-4.1 4.9-7.3 3.6-.5-.2-.9-.5-1.3-.8.5.6 1.1 1.2 2 1.5zM197 45.4c.3 0 .7-.1 1-1.2.2-.9 1.9-6.9 2.9-9.9 1.5-1.8 3-3.5 4.8-4.9 1-.8 2-1.8 3.2-2.3 0-.1 0-.2.1-.3.1-.5.1-.8-.7-.5-1.2.4-2.3 1.5-3.3 2.3-1.9 1.4-3.3 3.2-4.8 4.9-1 3-2.7 9-2.9 9.9-.2 1.1-.7 1.2-1 1.2-.2 0-.5-.1-.9-.4l.1.3c.7.7 1.3.9 1.5.9zM251.6 44.1c1.8-.2 4-2.4 5.2-4-.1-.2-.2-.5-.3-.8l-.1-.3c-1.1 1.7-3.5 4.1-5.4 4.3-.8.1-1.6-.2-2.2-.8.7 1.1 1.7 1.7 2.8 1.6zM208.2 44.1c1.6.4 3.5-1 4.1-1.7.3-.3 1-1 1.7-1.6-.2-.3-.3-.7-.4-1-.7.7-1.6 1.5-1.9 1.8-.7.7-2.5 2.1-4.1 1.7-.4-.1-.8-.3-1.2-.6.4.7 1.1 1.2 1.8 1.4zM226.7 25.7c-1.9-3.9-7.8 6.3-8.4 7.8-.8 1.8-3.3 6.2-1 7.8-1-1.9 1-5.4 1.7-7 .5-1.4 5.3-9.9 7.7-8.6zM264 43.2c.2-.1.3-.2.4-.3l.7-1.7c-.4.3-1.1.8-1.8 1.2-1.6.9-3.7.8-5.3-.7 1.7 2.3 4.2 2.5 6 1.5zM247.6 23.7c-1.6 0-3.3 1.8-4.2 3-1.3 1.6-2.2 3.4-3.2 5.2-1 2-2.2 4.4-1.8 6.7.1.7.4 1.2.9 1.5-.1-.2-.2-.4-.2-.7-.4-2.3.8-4.7 1.8-6.7.9-1.8 1.9-3.6 3.2-5.2.9-1.2 2.7-3 4.2-3 .4 0 .8.1 1 .3-.3-.6-.8-1.1-1.7-1.1zM192.8 45.4c.7-.2 1.6-.7 2.5-1.4l-.3-.3c-.1-.1-.1-.3-.2-.6-.9.7-1.9 1.3-2.6 1.5-1.6.5-2.8.2-3.6-.5.7 1.3 2 1.9 4.2 1.3zM215.2 42.5c.2.3.5.6.7.8 3.5 3.3 7.7-.2 8.4-.9.3-.3.9-1 1.4-1.6l-.3-1.2c-.6.8-1.4 1.7-1.8 2.1-.6.7-4.8 4.2-8.4.8.1.1.1 0 0 0zM247.6 41c-.2-.3-.3-.6-.4-1-2.6 2.8-7.3 5.3-10.3 2.4l.2.3c3 3.4 7.8 1.1 10.5-1.7zM202.2 28.2c.4-.4.8-.7 1-1l.3-.3c.1-.3.2-.5.2-.6.1-.4.2-.8-.5-1.3 0 0-.1-.1-.2-.1.1.2 0 .4 0 .6-.1.3-.4 1.4-.8 2.7zM190.3 37.1c-.3.6-1.3 5.1-.4 5.4l.3.1c-.1-1.3.5-4.2.8-4.7l4.5-10.8c.2-.6 1.2-1.9.1-2.4l-.2-.1c.1.6-.4 1.3-.6 1.7-.2.6-4.2 10.1-4.5 10.8zM185.6 28.3c.4-.9 1.2-2.4 1.1-2.7-.1-.1-.3-.3-.7-.5-.1.5-.7 1.7-1 2.4-.9 2.2-2.1 4.4-2.9 6.4-.3.8-3.7 8.8-1.6 8.8-.3-2 2-7.4 2.3-8.1.7-1.9 1.9-4.2 2.8-6.3zM273.4 23.3c.4.4.7.8.8 1 .2.4.2.7-.1 1.5-.3.7-1.9 6.9-3.6 12.3-1.7 5.7-3.5 9.9-6.3 14.2-2.9 4.3-7.9 6.9-11.4 8.3-3.5 1.4-10.1 1.2-14.9 1.1-4.9-.2-16.7-1.4-20.7-2.1-5.2-.9-12.8-2.3-18-3.3-6.3-1.2-10.9-.7-16.2 3-3.4 2.4-5.3 6.2-5.6 7.1-.3.8-.7 1.6-1.1 1.5-.1 0-.2-.1-.4-.3.4.6.8.9 1.1 1 .4.2.9-.6 1.1-1.5.3-.8 2.1-4.7 5.6-7.1 5.3-3.7 9.9-4.2 16.2-3 5.1 1 12.8 2.4 18 3.3 4 .7 15.8 1.9 20.7 2.1 4.9.2 11.4.3 14.9-1.1 3.5-1.4 8.6-4 11.4-8.3 2.9-4.3 4.6-8.5 6.3-14.2 1.6-5.4 3.3-11.6 3.6-12.3.3-.7.3-1.1.1-1.5-.2-.2-.9-1.1-1.5-1.7zM208.7 41c.1.2.4.1.7 0 .1-.6.3-1.5.6-2.5.5-1.7 2.8-8 2.9-9.3 0-1.1-.1-2.7-1.2-3.6.5.9.6 2 .6 2.8-.1 1.3-2.4 7.6-2.9 9.3-.5 1.6-.8 2.9-.7 3.3zM229 26.6c-.4-.9-.9-1.9-1.5-2.4l-.1-.1c.6 1 1.1 2.3 1.4 3 .1-.2.1-.4.2-.5zM183.7 45c1.5-.8 2.7-2.2 3.5-3.4-.1-.5-.2-1-.2-1.5-.8 1.3-2.1 3.2-3.9 4.1-1.9.9-3.4.7-4.5-.3 1 1.6 2.8 2.3 5.1 1.1zM251.9 29.3c-.8 1.8-1.5 3.8-1.8 5.8-.1.6-.7 5.6.6 5.5-.4-1.4 0-4.3.1-4.8.4-2 1-3.9 1.8-5.8.4-.9.9-1.7 1.4-2.5.3-.5.8-1.4.6-1.9-.3-.7-1.1-2.3-1.7-2.7.4.7.9 1.5 1.1 2 .3.6-.3 1.5-.6 1.9-.6.9-1.1 1.7-1.5 2.5zM264 25.9c0-.1-.6-1-1.1-1.7-.3-.4-.9-1.4-1.4-1.8.3.4.5.8.7 1 .5.7 1 1.6 1.1 1.7 0 .1-1.7 5.5-2.1 6.4-.4.9-2.3 6.8-1.8 8.2.1.4.4.6.6.7-.5-1.5 1.4-7.3 1.8-8.2.5-.8 2.2-6.2 2.2-6.3zM240.5 10.1c.1-.1.1-.3-.2-.6l-.4-.4c0 .1 0 .2-.1.2-.1.1-.5 1.9-1.3 3.7-.7 1.7-4.4 10.7-5.8 14.4-.9 2.6-3.1 8.1-4 11.3-.3.9-.6 2.5.5 3-.2-.7 0-1.6.2-2.3.9-3.2 3.1-8.8 4-11.3 1.3-3.7 5-12.7 5.8-14.4.8-1.8 1.2-3.5 1.3-3.6zM151 46l-.5-.7c-2.5-4.3.2-10.2 3.5-13.2 2.6-2.4 6.3-2.4 7-2.5.7-.1 1.5-.3 1.4-.6 0-.2-.3-.6-.7-1l.1.2c.1.4-.7.6-1.4.6-.7.1-4.4.1-7 2.5-3.3 3-6.1 8.9-3.5 13.2.3.6.6 1 1.1 1.5zM175.3 10.9c-5.3 2-3.7 11.7-2.9 15.7 1.5 7.4 3 19.4-4.7 25.1-5.6 4.2-13.2 2.9-17.9-1.2-.1-.1-.3-.2-.4-.4l-.4-.4c.3.4.7.8 1.1 1.2.1.1.3.2.4.4 4.7 4.1 12.3 5.4 17.9 1.2 7.7-5.8 6.1-17.7 4.7-25.1-.8-4-2.4-13.7 2.9-15.7 1-.4 1.8-.2 2.5.4-.8-1.1-1.8-1.7-3.2-1.2zM182.1 20.5s.7-1.7.9-2.1c.9-2.9.4-6.8-1.7-8.9 1.6 2.2 1.9 5.6 1.1 8.1-.1.3-.9 2.1-.9 2.1-.2.5-1.4.8-2.3.6 0 .1-.1.2-.1.2.2 1 2.8.8 3 0zM20.8 49.9c7.7-5.8 6.2-17.9 4.7-25.3-1.5-7.4-.8-11.1.9-13.9 1.7-2.8 5.7-2.7 7.5 1.1 1.7 3.7-.9 10.3-.9 10.3.1 1.2 3.4.9 3.7 0 3-3.6 8.6-12 20.3-12.6 3.8-.2 11.9.3 21.4 2.2 12.6 2.5 22.7 3.5 29.6 3.8 2.8.2 5.5.3 8.3.2h.8c6.2-.3 14.4-3.4 16.2-9.9 1-3.8-1.2-5.5-1.8-5.7-.4-.1-.7.7-.9 1.5-.3.7-1.6 4.4-4.6 7-4.5 4-9 4.9-14.9 4.7-1.5 0-3.2-.2-5-.4-.4 0-.8-.1-1.1-.1-1-.1-2.1-.2-3.1-.4-9.8-1.3-16.2-2.6-29.9-5.5l-3-.6c-14.2-2.8-24.2-.1-31.5 10.2.1-1.6.2-3.1.1-4.3-.2-2.9-3.3-6.7-7.2-7.1-3.9-.4-7.8 2.4-9.3 7.3s1.5 13 1.9 21.1c.4 8.1-5.1 12.6-7.4 13.5-2.2.9-5.8 1.2-9.9-2.7-2.3-2.2-3.8-5.7-3.2-8.8.3-1.8 1.3-3.1 2.7-4.2 1.5-1.1 3.2-1.4 3.6-1.4.4 0 .8 0 .8-.2 0-.3-.6-1.5-2.4-1.5-3.2.1-5.6 3.5-6.5 6.4-1.4 4.2-.5 9 2 12.3 3.4 4.2 11.6 7.9 18.1 3zM143 36.5c-.2.1-.3.4-.4.5-.2.3-.4.6-.7 1-.4.6-.8 1.1-1.2 1.6l-1.3 1.5c-.7.8-1.7 1.5-2.7 1.9-1 .5-2.2.6-3.3.2-1.7-.5-3.2-2.1-3.6-3.7l-.3-1.2.6-.3c1.2-.7 5.2-2.7 8.3-6.8 3.1-4 1.8-7.3 1.2-7.9-.6-.6-2.2-1.8-5.9-.2-5 2.1-8.1 7.9-7.8 13.2l-6.8 5.3c2-5 7-15.9 7.3-16.6.4-.9.7-1.1.2-1.8-.5-.7-1.6-1.9-1.9-2-.3-.1-.5 0-.9.8-.2.4-.8 1.6-1.5 3.2-.3-1-1.1-2.5-2.6-2.9-2.4-.6-6.8 1.3-10.3 7.5-1.7 3-2.3 5.9-2.2 8.2-.8.8-1.7 1.7-2.7 1.9-.9.2-1.9.2-2.1-1.2-.1-.7-.1-1.9.4-3.5 1.7-5.2 3.3-7.5 3.6-8.1.3-.6-.1-1-.5-1.6-.5-.6-1.4-2-1.9-1.1l-.5 1.1c-.7-.8-2.3-2.1-5-1.6-3.2.6-5.7 3.2-7.2 6l-.2.3c-.5.7-1.2 1.8-2.8 3.9-.7 1-1.3 1.7-1.8 2.2 0-.8-.1-1.6-.3-2.4-.7-2.3-1.6-5.1-1.5-6.9.1-1.2.3-2 .4-2.4.2-.1.3-.2.4-.3.1-.2.3-1.4-.6-1.6-1-.2-2.4 0-4 1.2-1.5 1.2-3.3 3.1-4.8 5.5-2.4 3.8-5 8.1-6 9-1.4 1.3-2.7 2.9-3.6 2.7-1.4-.5 1.2-7.2 1.8-8.6l1.9-4.2c.7-1.6 1.1-3.1.5-3.8-.6-.7-1.7-2.1-2.6-1.2 0 0-.2 1-.8 2.2-.6 1.1-2.8 6-3.6 8.9-.2.5-.3 1.1-.4 1.6l-.4.6c-.5.7-1 1.4-1.6 2-1 1.2-2.4 2.6-3.9 3.1-1.7.5-1.3-1.8-1.1-2.7.5-2.9 1.3-6 2.6-8.6.7-1.4 1.2-2.7 1.8-4.2.2-.5.5-.7-.1-1.4s-1.5-1.9-2-2.1c-.2-.1-.5 0-.6.4-.1.3-.4.9-.7 1.4-.3.5-2.2 4.6-3 6.9-.4 1.1-.9 2.6-1.2 4.2-.9 1.2-1.9 2.5-3 3.5-.7.7-1.5 1.3-2.3 1.8-.5.3-1.2.7-1.8.3-1-.7 1-5.3 1.5-6.2.5-.9 3.2-6.9 3.7-7.7.4-.8.6-1.4.2-1.9-.3-.5-1.2-1.5-1.5-1.7-.3-.2-.5-.1-.8.2-.1.1-.3.6-.8 1.3-.3-.8-1.2-1.9-4.1-1.5-3.6.5-8.9 3.8-11.5 8.5-2.2 3.9-2.4 9 .9 11.3 3.9 2.8 8.3-2.8 9-3.8.1 1.5.6 2.8 1.7 3.4 2.2 1.1 4.8-.7 5.8-1.5.6-.5 1.8-1.8 2.6-2.7 0 .5.1 1 .3 1.4.9 2.5 2.6 4 4.6 3.6 2.1-.4 4.1-2.6 5.2-4.4 0 0 0-.1.1-.1.1 1.1.5 2.2 1.4 3.1 2 2.1 4.4 1.1 5.7.1 1.3-1 5.2-5.9 6.3-7.7 1.1-1.8 4.1-6.8 5.4-8.2 0 .4 0 .9.1 1.4.1.6 1.7 5.6 1.6 6.8-.1 1.2-.3 2.7-1.4 3.9-1.1 1.2-1.9 1.9-3.8 1.8-1.9-.1-2.5-1.4-2.6-1.6-.1-.2-.8.1-.8.4 0 .3.6 3.1 3.4 4 2.8.9 5.6-1.1 6.8-2.9l.1-.2c.5-.4 1.2-.9 1.6-1.3.5-.5 1.7-1.7 2.5-2.6-.3 3.1.4 6.5 3.6 6.8 1.7.2 3.6-.5 4.9-1.5.4-.3 2.1-1.4 2.2-1.9v-.1c.5 1.5 1.4 2.6 2.9 2.7 2.1.1 3.7-1.2 4.7-2.2.5 1.4 1.4 2.5 2.7 2.9 2.3.8 3.6.4 4.8-.3-.4 1.1-.8 2-1.1 2.8l-.9.7s-7.4 4.2-9.1 7.8c-1.7 3.6-.3 5.8 1.2 6.4s5.6.2 8.3-4.2c2.2-3.4 3.4-7.5 4.2-10.4l1.2-.9 3.7-2.9c1.3-1 2.5-2.1 3.9-3 .3 1.2.9 2.3 1.6 3.3 2 2.7 5.5 3.6 8.6 2.7 1.2-.3 2.2-.9 3.1-1.8 1-1 1.7-1.7 1.9-2.2.2-.6.7-2 .8-2.4.3-.1 1.1-2.1.6-2.2zm-99.7-1l-.3 1.3c-1.3 1.5-2.6 3-4.1 4.2-1 .8-2.4 1.5-3.7 1-1.2-.4-1.4-1.8-1.4-3l.1-1.1c.7-4.4 5.6-9 8.1-10.5 2.5-1.4 4.5-2.4 4.6-.3v1.3c-1.4 2.8-2.8 5.7-3.3 7.1zm50.4 4.7c-.9-.3-1.2-3.3.2-7.6 1-3 4-6.6 7.4-6.4.8 0 .8 1.6.8 2.7-.8 1.9-1.5 3.9-1.9 5.2-.1.5-.2 1-.3 1.6-.3.4-.8 1-1.3 1.6-1.8 2.2-3.7 3.3-4.9 2.9zm22.7-2.5c-1 1.2-4.8 4.5-6.3 2.3s2.1-8.9 3.6-11.2c1.6-2.3 4.3-4.6 5.3-4.4s1.7 2.1 1.6 4.5v.3l-.5 1.2c-.4 1.1-1.3 3.3-2.3 5.8-.6.7-1.2 1.3-1.4 1.5zm-5.5 15.7c-.8 1.3-2.8 4.5-4.6 4.3-.8-.1-.5-1.6.1-2.5.6-.9 4.5-4.9 6-5.8.2-.1.4-.2.5-.3-.6 1.5-1.2 3-2 4.3zm19.5-20.7c1-2.6 2.4-5 4.8-6.5.7-.5 2.5-1.5 3.3-.7.7.6-.6 2.2-3.3 5.1-1.4 1.5-3.8 3.3-5.6 4.5.2-.8.5-1.6.8-2.4zM5.9 44.5c-1.7-2.2-2.8-5.1-2.2-7.8.3-1.7 1.2-3 2.6-4.1 1.5-1.1 3.2-1.4 3.6-1.4.4 0 .8 0 .8-.2s-.2-.7-.7-1.1v.3c0 .2-.4.3-.8.2-.4 0-2.1.3-3.6 1.4-1.4 1.1-2.3 2.4-2.6 4.2-.6 3 .8 6.3 2.9 8.5zM37.9 17l.8-1.1v-2.5c-.1-1.5-1-3.2-2.3-4.6.9 1.2 1.5 2.6 1.6 3.8.1 1.3.1 2.9-.1 4.4zM37.8 23.3c3-3.6 8.6-12 20.3-12.6 3.8-.2 11.9.3 21.4 2.2 12.6 2.5 22.7 3.5 29.6 3.8 2.8.2 5.5.3 8.3.2h.8c6.2-.3 14.4-3.4 16.2-9.9.8-2.8-.3-4.5-1.1-5.3.6.9 1.1 2.4.5 4.5-1.8 6.5-9.9 9.6-16.2 9.9h-.8c-2.8.1-5.5 0-8.3-.2-6.8-.3-16.9-1.3-29.6-3.8-9.6-1.9-17.7-2.4-21.4-2.2-11.7.6-17.3 9-20.3 12.6-.2.7-2 1.1-3 .7v.1c0 1.3 3.3 1 3.6 0zM21.9 51.1c7.7-5.8 6.2-17.9 4.7-25.3-1.5-7.4-.8-11.1.9-13.9 1.4-2.2 4.2-2.6 6.2-.7-1.9-2.7-5.3-2.5-6.9 0-1.7 2.8-2.4 6.5-.9 13.9s3 19.6-4.7 25.3c-6.1 4.6-13.6 1.7-17.3-2.3 3.4 4.3 11.5 7.9 18 3zM102.4 27.5c-.1-.4-.3-.7-.7-.8-3.5-.2-6.5 3.4-7.4 6.4-1.4 4.3-1.1 7.3-.2 7.6h.1c-.4-1.2-.3-3.7.7-6.8 1-2.9 4-6.5 7.5-6.4zM122.1 24.3c.3.5.6 1 .7 1.5.1-.1.1-.2.2-.4-.3-.4-.5-.8-.9-1.1zM85.6 25.2c-.1.4-.3 1.2-.4 2.4-.1 1.8.7 4.6 1.5 6.9.3.8.3 1.6.3 2.4.2-.2.4-.4.6-.7-.1-.3-.1-.6-.2-1-.7-2.3-1.6-5.1-1.5-6.9.1-1.2.3-2 .4-2.4.2-.1.3-.2.4-.3.1-.2.3-1.3-.6-1.6.1.4 0 .7-.1.9 0 .1-.1.2-.4.3zM46.6 41.8c.1.1.2.1.4.1-.1-1.5 1.4-4.8 1.7-5.6.5-.9 3.2-6.9 3.7-7.7.4-.8.6-1.4.2-1.9-.2-.3-.5-.7-.9-1.1.1.1.2.2.2.3.3.5.2 1-.2 1.9-.4.8-3.2 6.8-3.7 7.7-.4 1-2.5 5.6-1.4 6.3zM68.9 33.1c-.6 1.4-3.3 8.1-1.8 8.6h.2c-.2-1.9 1.7-6.7 2.2-7.9l1.9-4.2c.7-1.6 1.1-3.1.5-3.8l-.5-.6c.5.8.1 2.2-.6 3.7-.6 1.4-1.3 2.7-1.9 4.2zM59.4 30.8c-1.3 2.7-2 5.7-2.6 8.6-.2.8-.5 2.6.5 2.8-.1-.6 0-1.5.1-2 .5-2.9 1.3-6 2.6-8.6.7-1.4 1.2-2.7 1.8-4.2.2-.5.5-.7-.1-1.4-.3-.4-.8-.9-1.2-1.4.2.2.4.4.5.6.6.7.3.9.1 1.4-.5 1.4-1 2.8-1.7 4.2zM103.4 35.7c-.5 1.6-.5 2.8-.4 3.5.1.7.4 1.1.8 1.2-.1-.1-.1-.3-.1-.5-.1-.7-.1-1.9.4-3.5 1.7-5.2 3.3-7.5 3.6-8.1.3-.6-.1-1-.5-1.6-.2-.3-.6-.8-.9-1.1.1.1.2.2.2.3.5.6.8 1 .5 1.6-.4.7-1.9 3-3.6 8.2zM121.1 41.1c2.3-5.4 6.2-14.1 6.5-14.8.4-.9.7-1.1.2-1.8-.2-.3-.5-.6-.8-1 .1.1.1.2.2.2.5.6.3.9-.2 1.8-.4.8-5.3 11.6-7.3 16.6l1.4-1zM130.6 38.5l-.6.3c.1.4.1.8.3 1.2.3.8.8 1.7 1.5 2.4-.4-.5-.7-1.1-.8-1.6l-.3-1.2.6-.3c1.2-.7 5.2-2.7 8.3-6.8 3.1-4 1.8-7.3 1.2-7.9-.1-.1-.2-.2-.4-.3.6 1.2 1.1 4-1.5 7.5-3.1 4-7.1 6-8.3 6.7zM120.1 25.6l.3.1c-.3-.5-.6-.8-1-.9-1-.3-3.7 2.1-5.3 4.4-1.6 2.3-5.2 9.1-3.6 11.2.2.2.3.4.5.5-1.1-2.4 2.3-8.8 3.8-11 1.6-2.2 4.3-4.5 5.3-4.3zM106.7 58.3h.2c0-.5.2-1.2.6-1.7.5-.8 3.4-3.8 5.2-5.2.2-.5.4-1.1.7-1.6-.2.1-.4.2-.5.3-1.5.9-5.4 4.9-6 5.8-.7.8-1 2.3-.2 2.4zM111.5 44.4c1.6.6 2.7.5 3.6.2.2-.4.3-.8.5-1.3-1.2.7-2.5 1.1-4.8.3-.5-.2-1-.5-1.4-.9.6.8 1.3 1.4 2.1 1.7zM130.1 35.6c.3-.2.7-.5 1.1-.7.1-.3.2-.6.3-1 1-2.6 2.4-5 4.8-6.5.6-.4 1.9-1.2 2.8-.9 0-.2 0-.4-.2-.5-.9-.8-2.6.2-3.3.7-2.4 1.5-3.8 3.9-4.8 6.5-.3.8-.5 1.6-.7 2.4zM104.1 43.7c1.9.1 3.5-1 4.5-2-.2-.3-.3-.6-.5-1-1 1.1-2.6 2.3-4.7 2.2-.6 0-1.2-.3-1.6-.6.6.9 1.3 1.4 2.3 1.4zM94.1 44.5c1.7.2 3.6-.5 4.9-1.5.3-.2 1.6-1.1 2-1.6-.2-.3-.4-.7-.5-1.1v.1c-.1.5-1.8 1.7-2.2 1.9-1.4 1-3.2 1.6-4.9 1.5-.9-.1-1.5-.4-2.1-.8.7.8 1.6 1.4 2.8 1.5zM89.9 36.9c-.8.9-2 2.1-2.5 2.6l-1.6 1.3c0 .1-.1.2-.1.2-1.2 1.8-3.9 3.8-6.8 2.9-.8-.2-1.4-.6-1.8-1.1.5.7 1.3 1.5 2.5 1.9 2.8.9 5.6-1.1 6.8-2.9l.1-.2c.5-.4 1.2-.9 1.6-1.3.4-.3 1.1-1.1 1.8-1.8-.1-.5-.1-1.1 0-1.6zM76.7 40.2l.3.3c0-.1-.1-.2-.1-.2 0-.1-.1-.1-.2-.1zM140.3 43.9c-.9.8-2 1.4-3.1 1.8-2.7.8-5.9.2-7.9-1.9 2 2.7 5.4 3.5 8.4 2.7.9-.3 1.6-.8 2-1.2.5-.5 1.1-1.3 1.4-2-.3.2-.6.4-.8.6zM123.7 43.5c1.2-1 2.3-1.9 3.5-2.8l-.3-1c-1.4.9-2.5 2-3.9 3-1.2 1-2.4 1.9-3.7 2.9l-1.2.9c-.8 2.9-2.1 7-4.2 10.4-2.8 4.4-6.9 4.8-8.3 4.2-.2-.1-.5-.2-.7-.4.4.6.9 1 1.4 1.2 1.4.6 5.6.2 8.3-4.2 2.2-3.4 3.4-7.5 4.2-10.4l1.2-.9c1.3-1 2.5-2 3.7-2.9zM59 45.2c1.9-.4 3.8-2.3 4.9-3.9l-.3-1.3s0 .1-.1.1c-1.1 1.7-3.2 4-5.2 4.4-1.1.2-2.2-.1-3-.9.9 1.2 2.2 1.9 3.7 1.6zM82.6 28.8c-.1 0-.1-.1 0 0-.1-.5-.1-1-.1-1.4-1.4 1.4-4.3 6.4-5.4 8.2-1.2 1.8-5 6.7-6.3 7.7-1.3.9-3.5 1.9-5.5.1l.4.6c2 2.1 4.4 1.1 5.7.1 1.3-1 5.2-5.9 6.3-7.7 1-1.7 3.4-5.7 4.9-7.6zM48.9 25.8c-.1-.1-.1-.1-.2-.1l.1.3c0-.2.1-.2.1-.2zM34.2 44.1l-.6-.5c.3.5.8.9 1.3 1.3 3.4 2.4 7.2-1.6 8.6-3.2-.1-.4-.2-.8-.2-1.3-.8.9-5.2 6.5-9.1 3.7zM53.6 40.7c-.1-.4-.2-.8-.2-1.2-.8.9-2 2.2-2.6 2.7-1 .9-3.6 2.6-5.8 1.5l-.4-.3c.3.4.6.8 1.1 1 2.2 1.1 4.8-.7 5.8-1.5.4-.4 1.4-1.3 2.1-2.2zM47 27.4c-.3-1.5-2.2-.6-4.5.7-2.5 1.4-7.5 6.1-8.1 10.5-.1.4-.1.7-.1 1.1 0 1 .1 2.2 1 2.8-.3-.6-.4-1.4-.3-2l.1-1.1c.7-4.4 5.6-9 8.1-10.5 1.6-1 3-1.7 3.8-1.5z"/></svg>