<svg xmlns="http://www.w3.org/2000/svg" viewBox="0 0 206.9 46.8"><path fill="#F9A955" d="M0 10.8l14.6-.8c6.3-.2 12.4 3.4 12.4 9.9 0 6-2.2 8.6-5.6 10.3l6.2 15.2-11.4.6-4.7-13.8h-.1v14L0 46.8v-36zm16.7 10.7c0-3.2-2.2-3.9-5.4-3.7v8c3.3-.2 5.4-1.2 5.4-4.3zM30.5 9.2l11.3-.6v36l-11.3.6v-36zm15 17.3c0-10 4.3-19.2 15.6-19.8 8.6-.5 12.4 4.3 14 10.8L65.4 20c-.5-2.7-2-4.4-4.3-4.3-2.7.1-4.3 3.7-4.3 10.2 0 6.5 1.6 9.9 4.3 9.8 2.2-.1 3.2-1.2 4.3-2.7v-3l-4.3.2.5-7.5 13.5-.7v14.5c-3.2 5.2-8.1 7.9-14 8.2-11.3.5-15.6-8.2-15.6-18.2zM86.1 6.3l10.8-.6 9.7 35.5-11.9.6-.5-4.5-5.4.3-.5 4.5-11.9.6 9.7-36.4zM93 29l-1.2-9-.3-3h-.1l-.3 3-1.1 9.1 3-.1zm17.8-15l-6.5.3 1.1-9.1L127.5 4l1.1 8.9-6.5.3v27l-11.3.8V14zm18.2 8.1c0-11.5 5.3-19.3 14.8-19.8 9.6-.5 14.8 6.7 14.8 18.2s-5.3 19.3-14.9 19.8c-9.5.5-14.7-6.7-14.7-18.2zm18.4-1c0-7-.9-10-3.5-9.8-2.6.1-3.5 3.2-3.5 10.2 0 7 .9 10 3.5 9.8 2.6-.1 3.5-3.2 3.5-10.2zm14.9-18.8l10.8-.6 5.7 14.2c.3.7.5 1.5.7 2.2h.1V1.4l11.3-.6v36l-10.8.6-5.7-14.2c-.3-.8-.5-1.5-.7-2.2h-.1v16.8l-11.3.6V2.3zM195.6.6l11.3-.6v36l-11.3.6V.6z"/></svg>