<?xml version="1.0" encoding="utf-8"?>
<!-- Generator: Adobe Illustrator 18.1.1, SVG Export Plug-In . SVG Version: 6.00 Build 0)  -->
<!DOCTYPE svg PUBLIC "-//W3C//DTD SVG 1.1//EN" "http://www.w3.org/Graphics/SVG/1.1/DTD/svg11.dtd">
<svg version="1.1" id="Layer_1" xmlns="http://www.w3.org/2000/svg" xmlns:xlink="http://www.w3.org/1999/xlink" x="0px" y="0px"
	 width="162px" height="13.3px" viewBox="0 0 162 13.3" style="enable-background:new 0 0 162 13.3;" xml:space="preserve">
<style type="text/css">
	.st0{fill:#FFFFFF;}
	.st1{fill:#0079C1;}
	.st2{clip-path:url(#SVGID_2_);fill:#0079C1;}
	.st3{clip-path:url(#SVGID_4_);fill:#FFFFFF;}
</style>
<path class="st0" d="M76.4,5.3l0.1-0.8c0.1-0.7,0.5-1.1,1.8-1.1h0.1c0.1,0,0.1,0,0.1,0.1l0,0.2c0,0.1-0.1,0.1-0.1,0.1h0
	c-0.9,0-1.2,0.3-1.3,0.8l-0.1,0.8h1.1c0.1,0,0.1,0,0.1,0.1l0,0.2c0,0.1,0,0.1-0.1,0.1h-1.1l-0.7,6c0,0.1,0,0.1-0.1,0.1h-0.3
	c-0.1,0-0.1,0-0.1-0.1l0.7-6h-0.6c-0.1,0-0.1,0-0.1-0.1l0-0.1c0-0.1,0-0.1,0.1-0.1L76.4,5.3L76.4,5.3"/>
<path class="st0" d="M79.6,6.4c0.1-0.7,0.5-1.1,1.8-1.1c1.1,0,1.6,0.4,1.6,1c0,0.1,0,0.1,0,0.2l-0.3,2.4c-0.1,0.7-0.5,1.1-1.8,1.1
	c-1.1,0-1.6-0.4-1.6-1c0,0,0-0.1,0-0.2L79.6,6.4 M82.5,6.4c0-0.1,0-0.1,0-0.1c0-0.4-0.3-0.7-1.1-0.7c-0.9,0-1.2,0.3-1.3,0.8
	l-0.3,2.4c0,0,0,0.1,0,0.1c0,0.4,0.3,0.6,1.1,0.6c0.9,0,1.2-0.3,1.3-0.8L82.5,6.4z"/>
<path class="st0" d="M87.5,5.3l0,0.2c0,0.1,0,0.1-0.1,0.1c-0.7,0-1.4,0.4-1.6,0.6l-0.4,3.4c0,0.1,0,0.1-0.1,0.1h-0.3
	c-0.1,0-0.1,0-0.1-0.1l0.5-4.3c0-0.1,0-0.1,0.1-0.1h0.2c0.1,0,0.1,0,0.1,0.1l0,0.5c0.3-0.2,0.9-0.7,1.6-0.7
	C87.5,5.2,87.5,5.3,87.5,5.3"/>
<path class="st0" d="M91.7,11.7c-0.1,0-0.2-0.1-0.2-0.2V1.7c0-0.1,0.1-0.2,0.2-0.2h2.5c2.4,0,3.1,0.9,3.1,2v1c0,0.8-0.4,1.5-1.4,1.8
	c1.3,0.3,1.8,0.9,1.8,1.9v1.4c0,1.2-0.7,2.1-3.1,2.1H91.7 M92.4,2.2v3.9h2.1c1.6,0,2.2-0.6,2.2-1.5V3.7c0-0.9-0.6-1.5-2.3-1.5H92.4z
	 M92.4,6.8V11h2.3c1.8,0,2.3-0.6,2.3-1.5V8.3c0-0.9-0.6-1.5-2.3-1.5H92.4z"/>
<path class="st0" d="M102.2,9.6c0,0.9,0.6,1.5,2.3,1.5c1.7,0,2.3-0.6,2.3-1.5V1.7c0-0.1,0.1-0.2,0.2-0.2h0.4c0.1,0,0.2,0.1,0.2,0.2
	v8c0,1.2-0.7,2.1-3.1,2.1c-2.4,0-3.1-0.9-3.1-2.1v-8c0-0.1,0.1-0.2,0.2-0.2h0.4c0.1,0,0.2,0.1,0.2,0.2V9.6"/>
<path class="st0" d="M116.8,3.6c0-0.9-0.5-1.5-2.2-1.5s-2.2,0.6-2.2,1.5v0.6c0,0.8,0.5,1.1,0.9,1.3l2.9,1.1c0.7,0.3,1.5,0.9,1.5,1.9
	v1.3c0,1.2-0.7,2.1-3.1,2.1c-2.4,0-3.1-0.9-3.1-2.1V8.9c0-0.1,0.1-0.2,0.2-0.2h0.4c0.1,0,0.2,0.1,0.2,0.2v0.7c0,0.9,0.6,1.5,2.3,1.5
	c1.8,0,2.3-0.6,2.3-1.5V8.6c0-0.8-0.7-1.2-1.2-1.4l-2.8-1.1c-0.6-0.2-1.3-0.8-1.3-1.8V3.5c0-1.2,0.7-2.1,3-2.1c2.3,0,3,0.9,3,2.1
	v0.7c0,0.1,0,0.2-0.2,0.2H117c-0.1,0-0.2-0.1-0.2-0.2V3.6"/>
<path class="st0" d="M122.5,11.5c0,0.1,0,0.2-0.2,0.2h-0.4c-0.1,0-0.2-0.1-0.2-0.2V1.7c0-0.1,0.1-0.2,0.2-0.2h0.4
	c0.1,0,0.2,0.1,0.2,0.2V11.5"/>
<path class="st0" d="M133.2,11.5c0,0.1,0,0.2-0.2,0.2h-0.4c-0.1,0-0.1,0-0.2-0.1L128.2,4c-0.2-0.4-0.5-0.9-0.5-0.9v8.4
	c0,0.1,0,0.2-0.2,0.2h-0.4c-0.1,0-0.2-0.1-0.2-0.2V1.7c0-0.1,0.1-0.2,0.2-0.2h0.4c0.1,0,0.1,0,0.1,0.1l4.3,7.7
	c0.1,0.2,0.4,0.9,0.4,0.9V1.7c0-0.1,0.1-0.2,0.2-0.2h0.4c0.1,0,0.2,0.1,0.2,0.2V11.5"/>
<path class="st0" d="M137.6,11.7c-0.1,0-0.2-0.1-0.2-0.2V1.7c0-0.1,0.1-0.2,0.2-0.2h5.1c0.1,0,0.2,0,0.2,0.2V2
	c0,0.1-0.1,0.2-0.2,0.2h-4.5V6h4.2c0.1,0,0.2,0,0.2,0.2v0.3c0,0.1-0.1,0.2-0.2,0.2h-4.2V11h4.7c0.1,0,0.2,0,0.2,0.2v0.3
	c0,0.1-0.1,0.2-0.2,0.2H137.6"/>
<path class="st0" d="M151.8,3.6c0-0.9-0.5-1.5-2.2-1.5c-1.7,0-2.2,0.6-2.2,1.5v0.6c0,0.8,0.5,1.1,0.9,1.3l2.9,1.1
	c0.7,0.3,1.5,0.9,1.5,1.9v1.3c0,1.2-0.7,2.1-3.1,2.1c-2.4,0-3.1-0.9-3.1-2.1V8.9c0-0.1,0.1-0.2,0.2-0.2h0.4c0.1,0,0.2,0.1,0.2,0.2
	v0.7c0,0.9,0.6,1.5,2.3,1.5c1.8,0,2.3-0.6,2.3-1.5V8.6c0-0.8-0.7-1.2-1.2-1.4l-2.8-1.1c-0.6-0.2-1.3-0.8-1.3-1.8V3.5
	c0-1.2,0.7-2.1,3-2.1c2.3,0,3,0.9,3,2.1v0.7c0,0.1,0,0.2-0.2,0.2h-0.4c-0.1,0-0.2-0.1-0.2-0.2V3.6"/>
<path class="st0" d="M161.2,3.6c0-0.9-0.5-1.5-2.2-1.5c-1.7,0-2.2,0.6-2.2,1.5v0.6c0,0.8,0.5,1.1,0.9,1.3l2.9,1.1
	c0.7,0.3,1.5,0.9,1.5,1.9v1.3c0,1.2-0.7,2.1-3.1,2.1c-2.4,0-3.1-0.9-3.1-2.1V8.9c0-0.1,0.1-0.2,0.2-0.2h0.4c0.1,0,0.2,0.1,0.2,0.2
	v0.7c0,0.9,0.6,1.5,2.3,1.5c1.8,0,2.3-0.6,2.3-1.5V8.6c0-0.8-0.7-1.2-1.2-1.4l-2.8-1.1c-0.6-0.2-1.3-0.8-1.3-1.8V3.5
	c0-1.2,0.7-2.1,3-2.1c2.3,0,3,0.9,3,2.1v0.7c0,0.1,0,0.2-0.2,0.2h-0.4c-0.1,0-0.2-0.1-0.2-0.2V3.6"/>
<path class="st1" d="M62.8,0c-0.3,0-0.5,0.2-0.5,0.5v3.3H71L67,0H62.8"/>
<g>
	<defs>
		<rect id="SVGID_1_" x="0" y="0" width="162" height="13.3"/>
	</defs>
	<clipPath id="SVGID_2_">
		<use xlink:href="#SVGID_1_"  style="overflow:visible;"/>
	</clipPath>
	<path class="st2" d="M71.3,4.7c0-0.3-0.2-0.5-0.5-0.5h-3.3v8.7L71.3,9V4.7"/>
	<path class="st2" d="M66.6,13.3c0.3,0,0.5-0.2,0.5-0.5V9.5h-8.7l3.9,3.7L66.6,13.3"/>
</g>
<path class="st1" d="M58,8.5C58,8.8,58.3,9,58.5,9h3.3V0.3L58,4.3L58,8.5"/>
<polyline class="st0" points="18.3,1.6 18.3,5.6 12.8,5.6 12.8,1.6 10.7,1.6 10.7,11.7 12.8,11.7 12.8,7.3 18.3,7.3 18.3,11.7 
	20.4,11.7 20.4,1.6 18.3,1.6 "/>
<g>
	<defs>
		<rect id="SVGID_3_" x="0" y="0" width="162" height="13.3"/>
	</defs>
	<clipPath id="SVGID_4_">
		<use xlink:href="#SVGID_3_"  style="overflow:visible;"/>
	</clipPath>
	<polyline class="st3" points="45.4,1.6 45.4,11.7 54.3,11.7 53.2,9.9 47.4,9.9 47.4,7.3 53,7.3 53,5.6 47.4,5.6 47.4,3.3 53.2,3.3 
		54.3,1.6 45.4,1.6 	"/>
	<path class="st3" d="M3.2,1.6C1.1,1.6,0,2.9,0,4.7v3.8c0,2.2,1.4,3.2,3.2,3.2l6.4,0L8.4,9.8H3.6c-1,0-1.5-0.4-1.5-1.5V4.9
		c0-1.1,0.4-1.5,1.5-1.5h4.8l1.1-1.8H3.2"/>
</g>
<path class="st0" d="M36.5,1.6c-1.2,0-2.5,0.7-2.5,2.6v0.5c0,2,1.2,2.7,2.4,2.7h4.2c0.4,0,0.8,0.1,0.8,0.8v0.9
	c0,0.7-0.3,0.8-0.8,0.8h-5.6l-1.1,1.8h6.8c1.6,0,2.8-0.8,2.8-2.7V8.3c0-1.8-1-2.7-2.7-2.7h-4c-0.4,0-0.8-0.1-0.8-0.8l0-0.7
	c0-0.6,0.2-0.8,0.7-0.8l5.3,0l1.1-1.7L36.5,1.6"/>
<path class="st0" d="M26.3,1.6l-4.8,10.1h2.3l0.9-2.1h5.2l0.9,2.1h2.3L28.3,1.6H26.3 M27.3,3.7l1.8,4.2h-3.7L27.3,3.7z"/>
</svg>
