<?xml version="1.0" encoding="utf-8"?>
<!-- Generator: Adobe Illustrator 18.1.1, SVG Export Plug-In . SVG Version: 6.00 Build 0)  -->
<!DOCTYPE svg PUBLIC "-//W3C//DTD SVG 1.1//EN" "http://www.w3.org/Graphics/SVG/1.1/DTD/svg11.dtd">
<svg version="1.1" id="Layer_1" xmlns="http://www.w3.org/2000/svg" xmlns:xlink="http://www.w3.org/1999/xlink" x="0px" y="0px"
	 width="211px" height="192.1px" viewBox="0 0 211 192.1" style="enable-background:new 0 0 211 192.1;" xml:space="preserve">
<style type="text/css">
	.st0{fill:#FFFFFF;}
	.st1{opacity:0.75;}
</style>
<g>
	<path class="st0" d="M201.5,96.2c-0.4-0.2-0.7,0.3-0.9,1.1c-1,6.6-1.7,13.3-2.6,19.9c-1,3-2.9,5.8-4.5,7.4
		c-2.1,2.1-4.6,3.5-5.8,1.6c-1.2-2,0.1-11.2,0.4-12.6c0.3-1.5,1.4-9.8,1.3-10c-0.1-0.2-1.1-1.4-2-2.2c-0.9-0.8-3-3.4-3.4-2
		c-0.3,1-1.7,12.2-1.9,14.5c-0.1,1.1-0.5,3-0.6,5.3c-0.6,1.9-2,6.3-3.3,8c-1.7,2.2-2.3,2.6-3.2,2.8c-1.9,0.5-2.4-7.1-2.4-8
		c0-3,0.4-6.1,1.1-9c0.4-1.4,0.9-2.7,1.3-4.1c0.3-0.8,0.9-2.3,0.3-3c-0.9-1.1-3.3-4.4-4-3.4c-0.2,0.3-0.7,1.4-1.2,2.8
		c-0.6-0.7-1.8-1.9-3.7-2.2c-4.9-0.7-8.3,3.3-10.8,6.8c-2.5,3.6-4.1,8.6-4.6,13c-0.1,1.5-0.2,3.1,0,4.8c-0.1,0.4-0.2,0.8-0.4,1.2
		c-0.8,1.7-1.5,3.4-2.4,5c-0.9,1.6-2.1,4.2-4.4,3.8c-1.9-0.4-1.8-2.9-1.7-4.4c0.5-5,2.1-13.8,2.8-17.8c1-5.8,3.9-20.1,4.6-22.8
		c0.7-2.9,0.8-5.6,0.9-5.8c0.1-0.2,0.1-0.5-0.5-0.9c-0.6-0.3-3.3-2.6-3.8-2.7c-0.5-0.1-0.7-0.3-1,0.2c-0.3,0.7-4.5,24.5-5.6,29.4
		c-0.2,0.9-0.4,2-0.6,3.2c-0.7-1.2-2.3-3.9-3.9-4.9c-1.6-1-4.6-1.6-7.9,1.2c-3.2,2.8-6.4,8.8-7.6,13.4c-0.7,2.6-1.3,6.4-0.6,10
		c-1,1.3-1.9,2.9-2.8,4.1c-0.2,0.3-2.6,3-3,2.2c-0.2-0.4-0.2-2.5,0.1-5.1c0.3-2.6,2-12.5,1.7-14.5c-0.3-2-1.1-5-4.2-5.4
		c-2.7-0.4-5.1,1.3-7,3.1c-1,1-1.8,2-2.5,3.2c-0.3,0.5-0.8,1.1-1.2,1.7c0.3-2,0.5-3.8,0.5-4.1c0.1-0.6,0-1.2-1-1.7
		c-1.1-0.6-3-2.3-3.8-1.5c0,0-2.7,19.9-2.9,21c0,0.2-0.1,0.8-0.1,1.5c-0.9,2.1-2.1,4.5-2.9,5.7c-1.7,2.4-2.6,3.6-3.9,3.5
		c-1.3-0.2-1.1-7-0.8-8c0.3-1,3.5-16.2,3.7-17.2c0.2-1,1.2-3.1-0.5-3.6c-1.6-0.5-3.3-0.9-4.2-0.7c-0.7,0.2-1.9,7.2-2.2,8.4
		c-0.7,3.6-1.2,7.3-1.5,11c0-0.1,0-0.1,0-0.1c0,0.1,0,0.2,0,0.2c0,0.3-0.1,0.6-0.1,1c-0.4,2.1-2.2,5.6-2.9,6.7
		c-1,1.7-3.3,4.8-5.3,5.4c-3.3,0.9-0.4-12.1-0.1-13.5c0.7-3.1,1.7-6.8,2.5-10.2c0.3-1.5,1.1-3.9,0.8-4.3c-0.5-0.6-5.2-1.5-5.6-1.2
		c-0.6,0.3-3.8,16.7-4.1,21.6c-0.5,7.4,4.6,13.8,10.6,9.1c2.4-1.8,3.9-5,4.6-7.1c1.1,4.3,3.8,7.8,8.9,5.2c1-0.5,2.3-1.7,3.5-3
		c0.1,0.4,0.2,0.7,0.4,0.8c1.1,0.8,2,0.9,2.4,0.9c0.4,0,1-0.3,1.1-2c0-1.4,0.8-10.7,1.5-15.4c1.8-3,3.4-6,5.8-8.6
		c1.3-1.4,2.5-3.3,4.2-4.3c1.1-0.6,1.1-0.2,1.2,0.6c0,0.8-0.3,2.6-0.8,4.8c-0.4,2.3-1.7,8.8-1.6,13.7c0.1,3.8,2.4,6.1,4.8,6.2
		s4.8-2.4,5.6-3.6c0.4-0.6,1.5-2.1,2.4-3.2c0.7,1.4,1.8,2.6,3.2,3.6c6,3.9,11.3-2.4,12.1-3.6c0.5-0.7,1.4-2.3,2.1-3.6
		c0.8,2.6,2.5,4.8,5.3,5.4c5.1,1.1,7.6-3.5,9.7-7.3c0.5,0.9,1.1,1.7,1.8,2.3c5.4,4.5,12.1-0.7,15.3-5.7c1.7,2.9,4.1,4.6,6.5,3.9
		c2.7-0.8,5.7-5.1,6.8-7.9c0.1,0.1,0.2,0.3,0.2,0.4c3.3,5.2,8.1,5.1,11,2.7c1-0.8,1.8-1.6,2.3-2.2c-0.2,1.2-0.5,2.3-0.8,3.4
		c-1.8,7.1-4.9,13.8-9.8,19.6c-5.1,5.9-12.2,7.8-19.6,9.2c-13.6,2.6-27.6,4.1-41.5,3.8c-10.2-0.2-20.5-2.1-30.6-0.3
		c-9.9,1.7-23,8.4-25,19.1c-1.2,6.2,2.6,8.7,3.7,8.9c0.7,0.1,1.1-1.2,1.2-2.5c0.1-1.3,1.9-7.5,6.3-12c6.8-7,13.5-9,23-8.9
		c7.9,0,19.6,0.1,27.4,0c6.1-0.1,23.8-1.5,31.1-2.6c7.2-1.1,16.9-2.7,21.7-5.7c4.8-3,11.5-8.3,14.6-15.4c3-7.1,4.4-13.7,5.4-22.6
		c0.9-8.4,1.7-18,1.9-19.2c0.2-1.2,0.2-1.6-0.3-2.2C204.9,98.8,201.9,96.5,201.5,96.2z M137.3,128.4c-0.4,0.6-0.7,1.3-1,1.9
		c-1.2,2.5-2.3,5.3-4.2,7.4c-1.4,1.5-4,3.2-6.1,2.2c-3.8-1.7-1.3-8.8-0.7-11.7c0.5-2.4,6.4-19,10.3-13.7c1.1,1.4,2.5,4.2,2.9,5
		C138,122.6,137.5,126,137.3,128.4z M167.3,126.9c-1.6,2.4-4.9,5.2-7.2,5.5c-1.7,0.2-3-0.5-3.7-2.2c-1.3-3.2-0.1-7.2,0.8-10.3
		c0.8-2.9,1.8-5.8,3.2-8.5c1-1.9,3.1-5.1,5.4-5.6c1.9-0.4,2.7,1,3.3,1.8c-0.5,1.5-0.9,3.1-1.1,4.2c-0.4,2.8-1.1,9.1-0.1,13.7
		C167.8,125.9,167.6,126.4,167.3,126.9z"/>
	<path class="st0" d="M34,103.9c9.7-10.6,4.2-28.1,0-38.7c-4.2-10.5-4.2-16.1-2.4-20.7c1.8-4.6,7.7-5.5,11.3-0.5
		c3.6,5.1,1.5,15.5,1.5,15.5c0.5,1.8,5.3,0.5,5.4-1.1c0,0,0,0,0,0c0,0,0,0,0,0c3.4-6.1,9.4-20,26.5-24.1c5.5-1.3,17.6-2.8,32.2-2.6
		c19.3,0.3,34.5-1.1,44.7-2.4c4.1-0.5,8.2-1.1,12.2-2c0.3-0.1,0.5-0.1,0.8-0.2l0,0c0.1,0,0.3-0.1,0.4-0.1c9.1-2.2,20.3-9,21.2-19
		c0.5-5.8-3.3-7.8-4.3-7.9c-0.6-0.1-0.9,1.2-0.9,2.4c0,1.2-1,7.1-4.6,11.7c-5.6,7.1-12,9.7-20.6,11c-2.2,0.3-4.8,0.6-7.5,0.8l0,0
		c-0.6,0-1.2,0.1-1.7,0.1c-1.6,0.1-3.2,0.2-4.7,0.3c-14.8,0.8-24.5,0.7-45.5,0.1c-1.5,0-3.1-0.1-4.6-0.1
		c-21.7-0.2-35.7,6.5-43.7,23.7c-0.2-2.3-0.5-4.7-1-6.3c-1.2-4.3-6.7-9-12.5-8.5c-5.9,0.5-10.9,5.6-11.7,13.4s5.8,18.7,8.6,30.6
		c2.8,11.9-4.1,19.9-7.2,21.9c-3,2-8.2,3.4-15.4-1.3c-3.9-2.6-7.2-7.4-7.1-12.2c0-2.7,1-4.9,2.8-6.9c2-2,4.4-3,4.9-3.1
		c0.6-0.1,1.1-0.3,1.1-0.6c-0.1-0.5-1.3-2.1-4-1.6c-4.7,1-7.3,6.7-7.8,11.2l0,0c-1,6.6,1.7,13.4,6.3,17.5
		C12.7,109.7,25.8,112.9,34,103.9z"/>
	<path class="st0" d="M63.4,113.7c0,1-0.1,1.9-0.1,2.7c-0.1,0.4-0.1,0.7-0.1,1c-0.1,0.9-0.2,1.5-0.2,1.5c0.4,1.4,4.3,0.4,4.4-0.9
		c0,0,0.6-2.8,0.7-3.3c0.7-6.2-2.8-14.6-10.2-13.9c-5.9,0.5-10.9,5.6-11.7,13.4c-0.9,7.8,5.8,18.7,8.6,30.6
		c2.8,11.9-4.1,19.9-7.2,21.9c-5.6,3.7-15.8,1.5-20-3.4c-4.9-5.6-2.5-15.1,1.6-20.4c3.3-4.2,8.6-5.3,9.6-5.6
		c1.1-0.3,2.1-0.8,1.9-1.3c-0.3-0.8-2.9-2.9-7.9-1.2c-4,1.4-6.7,3.8-8.8,7.3c-2,3.3-3.4,6.7-3.8,10.5c-0.7,7.2,1.9,15.1,8.2,19.2
		c0.2,0.1,0.4,0.3,0.7,0.4c8.1,4.7,19.7,4.5,26.7-3.2c9.7-10.6,4.2-27.8,0-38.4c-2.2-5.6-7.4-19.6,0-24c2.9-1.7,5.2,0.4,6.5,3.2
		C62.8,111.2,63.2,112.5,63.4,113.7z"/>
	<path class="st0" d="M210.7,50.6C210.6,50.6,210.6,50.7,210.7,50.6c-0.3,0.3-0.4,0.6-0.5,0.9c-0.2,0.5-0.5,1.1-0.7,1.6
		c-0.4,0.9-0.8,1.9-1.3,2.7c-0.5,0.9-1,1.7-1.6,2.6c-0.9,1.4-2.1,2.6-3.4,3.6c-1.4,1-3,1.4-4.7,1.3c-2.7-0.3-5.2-2.3-6.4-4.4
		c-0.3-0.6-0.5-1.1-0.7-1.7c0.3-0.2,0.6-0.4,0.8-0.7c1.6-1.4,6.9-5.5,10.4-12.3c3.5-6.8,0.7-11.3-0.3-12c-1-0.7-3.7-2-8.7,1.3
		c-6.7,4.5-9.8,13.8-7.9,21.7l-8.6,9.7c1.6-8,5.9-25.3,6.2-26.5c0.4-1.4,0.7-1.9-0.2-2.7c-0.9-0.9-2.9-2.3-3.4-2.4
		c-0.4-0.1-0.8,0.1-1.2,1.5c-0.2,0.6-0.7,2.6-1.3,5.1c-0.8-1.4-2.3-3.4-4.7-3.6c-3.8-0.2-9.7,3.9-13.1,13.9c-1.6,4.8-1.8,9.3-1,12.7
		c-0.9,1.4-2.1,2.9-3.4,3.5c-1.2,0.6-2.7,0.8-3.4-1.3c-0.4-1.1-0.7-2.8-0.4-5.3c1.1-8.1,2.8-11.9,3-12.9c0.3-0.9-0.4-1.4-1.2-2.2
		c-0.8-0.8-2.6-2.6-3.1-1.1c-0.1,0.2-0.2,0.8-0.5,1.8c-1.3-1-4-2.5-7.9-1c-4.5,1.7-7.5,6.3-9,10.9c-0.1,0.2-0.1,0.3-0.2,0.5
		c-0.5,1.2-1.3,3-3,6.5c-0.8,1.6-1.5,2.9-2.1,3.8c-0.2-1.2-0.5-2.3-1.1-3.4c-1.7-3.2-3.8-7-4.1-9.8c-0.2-1.9-0.1-3,0-3.7
		c0.3-0.2,0.5-0.4,0.5-0.5c0.1-0.4,0.1-2.2-1.4-2.2c-1.5-0.1-3.6,0.7-5.6,2.9c-1.9,2.1-4,5.5-5.5,9.4c-2.5,6.2-5.2,13.4-6.4,15
		c-1.7,2.3-3.2,5.1-4.5,4.9C97,78.2,99,67.6,99.6,65.3c0.6-2.3,1.1-4.5,1.6-6.8c0.6-2.6,0.8-4.9-0.4-5.8c-1.1-0.9-3.1-2.6-4.1-1.1
		c0,0,0,1.6-0.5,3.4s-2.5,9.6-2.9,14.2c-0.1,0.8-0.1,1.7-0.1,2.5c-0.2,0.3-0.3,0.7-0.5,1c-0.6,1.1-1.2,2.3-1.8,3.4
		c-1.2,2-2.8,4.6-4.9,5.6c-2.4,1.1-2.4-2.3-2.4-3.7c0-4.5,0.2-9.2,1.4-13.5c0.7-2.2,1-4.4,1.5-6.6c0.2-0.8,0.6-1.2-0.5-2
		c-1.1-0.9-2.8-2.4-3.5-2.5c-0.3,0-0.7,0.1-0.8,0.8c-0.1,0.5-0.4,1.5-0.6,2.3c-0.3,0.8-2,7.3-2.5,11c-0.2,1.8-0.6,4.1-0.6,6.5
		c-1,2.1-2.1,4.2-3.5,6.1c-0.9,1.2-1.8,2.4-2.9,3.3c-0.7,0.6-1.6,1.4-2.6,1c-1.7-0.7,0-8.1,0.4-9.6c0.4-1.5,2.9-11,3.3-12.4
		c0.4-1.4,0.5-2.2-0.2-2.8c-0.6-0.6-2.2-1.8-2.7-2c-0.6-0.2-0.8,0-1.1,0.6c-0.1,0.1-0.4,0.9-0.8,2.1c-0.7-1.1-2.4-2.5-6.4-1.2
		c-5.2,1.8-12,8.1-14.6,15.7c-2.1,6.3-1,13.9,4.5,16.4c6.5,3,11.5-6.5,12.3-8.1c0.6,2.2,1.7,4,3.5,4.5c3.5,1,6.9-2.3,8.1-3.8
		c0.7-0.9,2.1-3.1,3.1-4.7c0.2,0.7,0.4,1.4,0.8,2c2,3.5,4.9,5.2,7.8,4c2.9-1.2,5.4-5,6.5-7.9c0-0.1,0-0.1,0.1-0.1
		c0.5,1.6,1.4,3.1,2.9,4.2c3.5,2.6,6.8,0.4,8.5-1.4c1.7-1.8,6-10.1,7.2-13.1c1.2-2.9,4.2-11.1,5.8-13.6c0.1,0.6,0.2,1.3,0.5,2
		c0.4,0.9,4,7.7,4.2,9.6c0.2,1.8,0.3,4.1-1,6.1c-1.3,2-2.3,3.3-5.1,3.7c-2.8,0.3-4.1-1.4-4.3-1.7c-0.2-0.3-1.2,0.4-1.1,0.7
		c0.1,0.4,1.7,4.4,6.1,5c4.4,0.6,8-3.1,9.2-6.1c0-0.1,0.1-0.2,0.1-0.4c0.7-0.7,1.5-1.6,2-2.3c0.7-0.8,2-2.9,3-4.5
		c0.5,4.7,2.3,9.5,7.2,9.1c2.5-0.2,5.1-1.7,6.9-3.5c0.5-0.5,2.7-2.7,2.7-3.5c0,0,0-0.1,0-0.1c1.1,2.1,2.8,3.5,5,3.2
		c3.1-0.4,5.1-2.7,6.3-4.6c1.1,1.9,2.8,3.2,4.8,3.6c3.6,0.6,5.5-0.4,7-1.7c-0.3,1.7-0.6,3.2-0.8,4.4l-1.2,1.3c0,0-9.7,8.2-11.3,14
		c-1.6,5.7,1.2,8.7,3.5,9.1c2.3,0.4,8.3-1.3,11.2-8.5c2.2-5.6,2.9-12,3.4-16.5c0.5-0.5,1-1.1,1.5-1.6c1.5-1.8,3.1-3.5,4.6-5.3
		c1.6-1.9,3.1-3.8,4.9-5.5c0.8,1.6,1.9,3.2,3.3,4.4c3.6,3.4,9.2,3.8,13.5,1.6c1.6-0.8,3-2,4.1-3.5c1.3-1.7,2.1-3,2.2-3.7
		c0.2-1,0.5-3.2,0.6-3.8C210.7,53.8,211.4,50.7,210.7,50.6z M63.4,76.5c-0.1,0.6-0.1,1.3-0.1,2c-1.4,2.6-3,5.1-4.9,7.4
		c-1.2,1.5-3.2,2.9-5.2,2.6c-1.9-0.3-2.6-2.3-2.8-4c-0.1-0.5-0.1-1.1-0.1-1.6C50,76.2,56,67.9,59.3,65.1c3.3-2.8,6-4.8,6.7-1.6
		c0.1,0.4,0.2,1.3,0.3,2C65,69.6,63.7,74.4,63.4,76.5z M139,69.7c-1.4-0.1-2.7-4.6-1.8-11.2c0.6-4.7,4.1-10.8,9.2-11.5
		c1.2-0.2,1.7,2.2,1.9,3.8c-0.6,2.9-1.2,6.1-1.4,8.3c-0.1,0.8-0.1,1.6,0,2.4c-0.4,0.7-0.9,1.7-1.5,2.7
		C143.3,67.7,140.8,69.9,139,69.7z M171.8,59.7c-1.2,2-5.8,8-8.7,5.1c-2.8-2.8,0.6-13.8,2.3-17.6c1.7-3.8,5.1-8,6.6-7.9
		c1.6,0.1,3.1,2.7,3.6,6.3c0,0.2,0.1,0.3,0.1,0.5c-0.1,0.7-0.3,1.3-0.4,1.9c-0.4,1.7-1.1,5.3-1.8,9.2
		C172.8,58.3,172,59.3,171.8,59.7z M167.9,84.4c-0.8,2.2-2.9,7.4-5.7,7.7c-1.1,0.1-1.1-2.2-0.5-3.7c0.6-1.5,5.3-8.5,7.2-10.2
		c0.2-0.2,0.5-0.4,0.7-0.6C169.3,79.9,168.8,82.2,167.9,84.4z M191.1,48.5c0.7-4.1,2.1-8.1,5.3-10.9c1-0.9,3.3-2.9,4.7-1.9
		c1.1,0.7-0.3,3.4-3.4,8.5c-1.6,2.6-4.8,5.9-7,8.2C190.7,51,190.8,49.8,191.1,48.5z"/>
</g>
<g class="st1">
	<path class="st0" d="M170.5,105.3c0.2,0.2,0.3,0.3,0.4,0.5c0-0.1,0-0.1,0.1-0.1C170.8,105.5,170.6,105.4,170.5,105.3z"/>
	<path class="st0" d="M144.9,142.2c4.9,1,7.4-3.2,9.5-6.8c-0.3-0.4-0.7-0.9-0.9-1.4c-2.2,3.8-4.7,8.3-9.7,7.3
		c-0.8-0.2-1.5-0.4-2.1-0.8C142.5,141.3,143.6,141.9,144.9,142.2z"/>
	<path class="st0" d="M98,152.2c0.4,0,1-0.3,1.1-2c0-1.4,0.8-10.7,1.5-15.4c1.8-3,3.4-6,5.8-8.6c1.3-1.4,2.5-3.3,4.1-4.3
		c0-0.1,0-0.3,0-0.4c0-0.8-0.1-1.2-1.2-0.6c-1.6,1-2.9,2.9-4.2,4.3c-2.4,2.6-4,5.6-5.8,8.6c-0.7,4.7-1.5,14.1-1.5,15.4
		c0,1.6-0.7,1.9-1.1,2c-0.3,0-0.8,0-1.5-0.3c0.1,0.2,0.2,0.3,0.3,0.4C96.7,152.1,97.7,152.3,98,152.2z"/>
	<path class="st0" d="M178.2,135.3c2.6-0.8,5.3-4.6,6.5-7.4c-0.2-0.3-0.5-0.6-0.7-1c-0.1-0.1-0.2-0.3-0.2-0.4c-1.1,2.8-4,7-6.8,7.9
		c-1.2,0.4-2.4,0.1-3.5-0.6C175,135.2,176.6,135.8,178.2,135.3z"/>
	<path class="st0" d="M114.2,147.3c2.5,0.2,4.8-2.4,5.6-3.6c0.4-0.6,1.2-1.7,2-2.8c-0.3-0.4-0.6-0.9-0.9-1.4
		c-0.9,1.2-1.9,2.6-2.4,3.2c-0.8,1.2-3.2,3.8-5.6,3.6c-0.7-0.1-1.3-0.3-1.9-0.6C112,146.7,113.1,147.2,114.2,147.3z"/>
	<path class="st0" d="M136.4,115.1c-3.9-5.3-9.8,11.4-10.3,13.7c-0.6,2.9-3.1,10,0.7,11.7c-2-2.6,0-8.2,0.5-10.8
		C127.7,127.6,132.5,113.8,136.4,115.1z"/>
	<path class="st0" d="M196.2,130.6c0.2-0.2,0.4-0.3,0.6-0.5c0.2-0.9,0.4-1.8,0.6-2.7c-0.6,0.6-1.4,1.4-2.3,2.2
		c-2.1,1.8-5.2,2.3-8.1,0.4C190.1,133,193.8,132.6,196.2,130.6z"/>
	<path class="st0" d="M166.7,106.4c-2.3,0.5-4.4,3.6-5.4,5.6c-1.4,2.7-2.4,5.6-3.2,8.5c-0.9,3.2-2.1,7.1-0.8,10.3
		c0.4,0.9,1,1.6,1.7,1.9c-0.2-0.3-0.4-0.6-0.6-1c-1.3-3.2-0.1-7.2,0.8-10.3c0.8-2.9,1.8-5.8,3.2-8.5c1-1.9,3.1-5.1,5.4-5.6
		c0.6-0.1,1.2,0,1.6,0.1C168.9,106.8,168.1,106.1,166.7,106.4z"/>
	<path class="st0" d="M91.8,153.5c0.9-0.5,2.1-1.5,3.2-2.7c-0.2-0.1-0.4-0.2-0.5-0.4c-0.2-0.1-0.3-0.4-0.4-0.8
		c-1.2,1.3-2.5,2.5-3.5,3c-2.3,1.1-4.1,1.1-5.5,0.3C86.6,154.4,88.8,155,91.8,153.5z"/>
	<path class="st0" d="M124.1,143c0.4,0.4,0.8,0.7,1.3,1c6,3.9,11.3-2.4,12.1-3.6c0.4-0.5,1-1.7,1.6-2.8c-0.3-0.6-0.5-1.1-0.7-1.8
		c-0.7,1.3-1.6,2.9-2.1,3.6c-0.9,1.2-6.1,7.5-12.1,3.6C124.2,143.1,124.2,143,124.1,143z"/>
	<path class="st0" d="M171.5,131.9c-0.3-0.4-0.6-0.9-0.9-1.3c-3,4.8-9.3,9.7-14.5,6.3c0.1,0.1,0.3,0.3,0.4,0.4
		C161.7,141.6,168.2,136.8,171.5,131.9z"/>
	<path class="st0" d="M100.9,125.5c0.4-0.6,0.9-1.3,1.2-1.7c0.1-0.2,0.2-0.3,0.3-0.5c0.1-0.5,0.1-0.8,0.1-1c0.1-0.6,0-1.2-1-1.7
		c-0.1,0-0.2-0.1-0.3-0.2c0.2,0.3,0.2,0.6,0.1,1C101.4,121.7,101.2,123.4,100.9,125.5z"/>
	<path class="st0" d="M85.9,141.8c-0.3,1-0.5,7.9,0.8,8c0.2,0,0.3,0,0.5,0c-0.6-1.9-0.4-6.3-0.2-7.1c0.3-1,3.5-16.2,3.7-17.2
		c0.2-1,1.2-3.1-0.5-3.6c-0.1,0-0.2-0.1-0.3-0.1c0.2,0.9-0.3,2.1-0.4,2.7C89.4,125.6,86.2,140.8,85.9,141.8z"/>
	<path class="st0" d="M76.5,130.1c0.3-1.5,1.1-3.9,0.8-4.3c-0.1-0.2-0.6-0.3-1.1-0.5c-0.1,0.8-0.6,2.7-0.9,3.8
		c-0.8,3.4-1.9,7.1-2.5,10.2c-0.3,1.3-3,14.1,0,13.5c-0.9-2.9,0.9-11.5,1.1-12.5C74.6,137.2,75.7,133.6,76.5,130.1z"/>
	<path class="st0" d="M204.7,98.7c0.7,0.5,1.2,1,1.4,1.3c0.5,0.6,0.5,1,0.3,2.2c-0.2,1.2-1,10.8-1.9,19.2c-1,8.9-2.4,15.5-5.4,22.6
		c-3,7.1-9.7,12.4-14.6,15.4c-4.8,3-14.5,4.6-21.7,5.7c-7.2,1.1-25,2.5-31.1,2.6c-7.9,0.1-19.6,0.1-27.4,0c-9.6,0-16.3,2-23,8.9
		c-4.4,4.5-6.1,10.7-6.3,12c-0.1,1.3-0.6,2.6-1.2,2.5c-0.2,0-0.4-0.1-0.7-0.3c0.7,0.8,1.5,1.2,1.9,1.2c0.7,0.1,1.1-1.2,1.2-2.5
		c0.1-1.3,1.9-7.5,6.3-12c6.8-7,13.5-9,23-8.9c7.9,0,19.6,0.1,27.4,0c6.1-0.1,23.8-1.5,31.1-2.6c7.2-1.1,16.9-2.7,21.7-5.7
		c4.8-3,11.5-8.3,14.6-15.4c3-7.1,4.4-13.7,5.4-22.6c0.9-8.4,1.7-18,1.9-19.2c0.2-1.2,0.2-1.6-0.3-2.2
		C207,100.6,205.7,99.5,204.7,98.7z"/>
	<path class="st0" d="M114,142.5c0.1,0.3,0.6,0.1,1-0.3c0-0.9,0.1-2.3,0.3-3.9c0.3-2.6,2-12.5,1.7-14.5c-0.2-1.6-0.9-3.9-2.8-5
		c1,1.2,1.4,2.8,1.6,4c0.3,2-1.4,11.9-1.7,14.5C113.9,140,113.8,142.1,114,142.5z"/>
	<path class="st0" d="M140,115.7c-0.8-1.2-1.8-2.5-2.9-3.2c0,0-0.1,0-0.1-0.1c1.2,1.2,2.3,3.1,2.8,4C139.9,116.2,140,116,140,115.7z
		"/>
	<path class="st0" d="M78.2,155.4c2-1.5,3.3-3.9,4.2-6c-0.3-0.7-0.5-1.4-0.7-2.1c-0.8,2.2-2.2,5.3-4.6,7.1c-2.5,1.9-4.8,2-6.6,0.8
		C72.4,157.3,75.2,157.7,78.2,155.4z"/>
	<path class="st0" d="M174.5,113.5c-0.7,2.9-1.1,6-1.1,9c0,0.9,0.5,8.4,2.4,8c0,0,0,0,0,0c-0.9-2-1.2-6.4-1.2-7.1c0-3,0.4-6.1,1.1-9
		c0.4-1.4,0.9-2.7,1.3-4.1c0.3-0.8,0.9-2.3,0.3-3c-0.7-0.9-2.3-3.1-3.3-3.5c0.8,0.8,1.7,2,2.1,2.6c0.6,0.7,0,2.3-0.3,3
		C175.4,110.8,174.9,112.1,174.5,113.5z"/>
	<path class="st0" d="M191.4,105.1c-0.1-0.2-1.1-1.4-2-2.2c-0.6-0.5-1.7-1.8-2.5-2.3c0.5,0.5,1,1,1.3,1.3c0.9,0.8,2,2,2,2.2
		c0.1,0.2-1,8.5-1.3,10c-0.3,1.5-1.6,10.7-0.4,12.6c0.3,0.5,0.7,0.8,1.1,0.9c-1.2-2.1,0.1-11.1,0.4-12.6
		C190.4,113.7,191.5,105.3,191.4,105.1z"/>
	<path class="st0" d="M152.5,88.2c0.1-0.2,0.1-0.5-0.5-0.9c-0.1-0.1-0.4-0.2-0.7-0.5c0.1,0.1,0,0.3,0,0.4c-0.1,0.2-0.2,2.9-0.9,5.8
		c-0.6,2.7-3.6,17-4.6,22.8c-0.7,4-2.3,12.8-2.8,17.8c-0.1,1.5-0.2,3.9,1.5,4.3c-0.5-1-0.5-2.4-0.4-3.4c0.5-5,2.1-13.8,2.8-17.8
		c1-5.8,3.9-20.1,4.6-22.8C152.2,91.1,152.4,88.4,152.5,88.2z"/>
	<path class="st0" d="M10.6,100.1c-3.1-2.7-5.5-6.8-5.4-10.8c0-2.7,1-4.9,2.8-6.9c2-2,4.4-3,4.9-3.1c0.6-0.1,1.1-0.3,1.1-0.6
		c-0.1-0.3-0.5-1-1.4-1.4c0.1,0.2,0.2,0.3,0.2,0.4c0.1,0.3-0.5,0.5-1.1,0.6c-0.6,0.1-3,1.1-4.9,3.1C5,83.4,4,85.6,4,88.3
		C3.9,92.9,6.9,97.4,10.6,100.1z"/>
	<path class="st0" d="M50.3,50.7c0.3-0.6,0.6-1.2,0.9-1.8c-0.2-1.4-0.4-2.6-0.7-3.6c-0.6-2.2-2.3-4.5-4.6-6.1c1.7,1.5,3,3.4,3.5,5.2
		C49.8,46,50.1,48.4,50.3,50.7z"/>
	<path class="st0" d="M51.8,60C51.8,60,51.8,60,51.8,60C51.8,60,51.8,60,51.8,60c3.4-6.1,9.4-20.1,26.5-24.2
		c5.5-1.3,17.6-2.8,32.2-2.6c19.3,0.3,34.5-1.1,44.7-2.4c4.1-0.5,8.2-1.1,12.2-2c0.3-0.1,0.5-0.1,0.8-0.2l0,0c0.1,0,0.3-0.1,0.4-0.1
		c9.1-2.2,20.3-9,21.2-19c0.4-4.4-1.7-6.6-3.1-7.5c1.2,1.2,2.2,3.3,2,6.5c-0.8,10.1-12,16.9-21.2,19c-0.1,0-0.3,0.1-0.4,0.1l0,0
		c-0.2,0.1-0.5,0.1-0.8,0.2c-4,0.9-8.1,1.5-12.2,2c-10.2,1.4-25.3,2.7-44.7,2.4c-14.7-0.2-26.7,1.3-32.2,2.6
		C60.1,39,54.1,53,50.7,59c0,0,0,0,0,0c0,0,0,0,0,0c-0.1,1.1-2.7,2.1-4.3,1.9c0,0.1,0,0.1,0,0.1C46.9,62.9,51.6,61.6,51.8,60z"/>
	<path class="st0" d="M36,105.4c9.7-10.6,4.2-28.1,0-38.7c-4.2-10.5-4.2-16.1-2.4-20.7c1.4-3.7,5.5-5,9-2.8
		c-3.6-3.4-8.5-2.3-10.1,1.8c-1.8,4.6-1.8,10.2,2.4,20.7c4.2,10.5,9.7,28.1,0,38.7c-7.7,8.4-19.7,6.2-26.2,1.4
		C14.8,111.3,27.8,114.4,36,105.4z"/>
	<path class="st0" d="M30.3,165.8c-0.3-0.3-0.6-0.6-0.9-0.9c-4.9-5.6-2.5-15.1,1.6-20.4c3.3-4.2,8.6-5.3,9.6-5.6
		c1.1-0.3,2.1-0.8,1.9-1.3c-0.1-0.3-0.6-0.8-1.3-1.2c0.1,0.1,0.1,0.2,0.2,0.3c0.2,0.5-0.9,1.1-1.9,1.3c-1.1,0.3-6.4,1.4-9.6,5.6
		c-4.1,5.3-6.5,14.7-1.6,20.4C28.8,164.6,29.5,165.2,30.3,165.8z"/>
	<path class="st0" d="M56.5,107.4c-7.3,4.4-2.2,18.3,0,24c4.2,10.5,9.7,27.8,0,38.4c-7.1,7.7-18.7,7.9-26.7,3.2
		c-0.2-0.1-0.4-0.3-0.7-0.4c-0.2-0.2-0.5-0.3-0.7-0.5c0.6,0.5,1.2,1,1.9,1.4c0.2,0.1,0.4,0.3,0.7,0.4c8.1,4.7,19.7,4.5,26.7-3.2
		c9.7-10.6,4.2-27.8,0-38.4c-2.2-5.6-7.4-19.6,0-24c1.4-0.8,2.7-0.7,3.8-0.1C60.1,106.9,58.4,106.3,56.5,107.4z"/>
	<path class="st0" d="M69.2,119.6c0,0,0.6-2.8,0.7-3.3c0.5-4.5-1.2-10.1-5-12.6c3,2.8,4.3,7.7,3.8,11.7c-0.1,0.5-0.7,3.3-0.7,3.3
		c-0.1,0.8-1.9,1.6-3.2,1.6c0,0.2,0,0.2,0,0.2C65.3,121.9,69.1,120.8,69.2,119.6z"/>
	<path class="st0" d="M148.3,48.6C148.3,48.6,148.3,48.6,148.3,48.6c-0.3-0.6-0.7-1-1.2-0.9c-5.2,0.7-8.6,6.8-9.2,11.5
		c-0.9,6.7,0.4,11.1,1.8,11.2c0,0,0.1,0,0.1,0c-0.9-1.6-1.4-5.3-0.8-10.3C139.7,55.4,143.2,49.3,148.3,48.6z"/>
	<path class="st0" d="M176.5,38.4c0.6,0.6,1.1,1.4,1.4,2c0-0.2,0.1-0.4,0.1-0.6C177.6,39.3,177.1,38.8,176.5,38.4z"/>
	<path class="st0" d="M123,49.7c-0.1,0.7-0.2,1.8,0,3.7c0.3,2.7,2.4,6.6,4.1,9.8c0.6,1.1,0.9,2.3,1.1,3.4c0.2-0.3,0.4-0.7,0.7-1.1
		c-0.2-0.5-0.4-0.9-0.6-1.4c-1.7-3.2-3.8-7-4.1-9.8c-0.2-1.9-0.1-3,0-3.7c0.3-0.2,0.5-0.4,0.5-0.5c0.1-0.4,0.1-2.1-1.3-2.2
		c0.2,0.5,0.2,1.1,0.1,1.3C123.4,49.3,123.2,49.5,123,49.7z"/>
	<path class="st0" d="M69.8,84.9C70,85,70.2,85,70.4,85c-0.6-2.1,0.7-7.5,1-8.8c0.4-1.5,2.9-11,3.3-12.4c0.4-1.4,0.5-2.2-0.2-2.8
		c-0.3-0.4-1-0.9-1.6-1.3c0.2,0.1,0.3,0.3,0.4,0.4c0.6,0.6,0.6,1.4,0.2,2.8c-0.4,1.4-2.9,10.9-3.3,12.4
		C69.9,76.8,68.1,84.2,69.8,84.9z"/>
	<path class="st0" d="M100.4,65.9c-0.6,2.3-2.6,12.9-0.3,13.2c0.1,0,0.2,0,0.4,0c-0.8-2.7,0.7-10.3,1.1-12.2
		c0.6-2.3,1.1-4.5,1.6-6.8c0.6-2.6,0.8-4.9-0.4-5.8c-0.3-0.2-0.6-0.5-1-0.7c0.9,1,0.7,3.2,0.2,5.5C101.5,61.4,100.9,63.6,100.4,65.9
		z"/>
	<path class="st0" d="M85.8,65.1c-1.2,4.3-1.5,9-1.4,13.5c0,1.3,0,4,1.5,3.9c-0.4-0.9-0.4-2.2-0.4-3c0-4.5,0.2-9.2,1.4-13.5
		c0.7-2.2,1-4.4,1.5-6.6c0.2-0.8,0.6-1.2-0.5-2c-0.6-0.5-1.4-1.2-2.1-1.7c0.3,0.3,0.7,0.5,0.9,0.8c1.1,0.9,0.6,1.2,0.5,2
		C86.8,60.8,86.4,62.9,85.8,65.1z"/>
	<path class="st0" d="M152,60.4c-0.3,2.5,0,4.2,0.4,5.3c0.4,1,0.9,1.5,1.5,1.6c-0.1-0.2-0.2-0.4-0.3-0.7c-0.4-1.1-0.7-2.8-0.4-5.3
		c1.1-8.1,2.8-11.9,3-12.9c0.3-0.9-0.4-1.4-1.2-2.2c-0.4-0.4-1-1-1.6-1.4c0.2,0.2,0.3,0.3,0.5,0.4c0.8,0.8,1.5,1.2,1.2,2.2
		C154.8,48.4,153.1,52.2,152,60.4z"/>
	<path class="st0" d="M179.6,63.5c1.9-8.7,5.3-22.5,5.6-23.6c0.4-1.4,0.7-1.9-0.2-2.7c-0.4-0.4-1-0.8-1.5-1.2
		c0.1,0.1,0.2,0.2,0.3,0.3c0.9,0.8,0.6,1.3,0.2,2.7c-0.3,1.2-4.6,18.6-6.2,26.5L179.6,63.5z"/>
	<path class="st0" d="M192.9,57c-0.2,0.2-0.5,0.4-0.8,0.7c0.2,0.6,0.4,1.2,0.7,1.7c0.6,1.1,1.6,2.3,2.9,3.1
		c-0.7-0.7-1.3-1.4-1.7-2.1c-0.3-0.6-0.5-1.1-0.7-1.7c0.3-0.2,0.6-0.4,0.8-0.7c1.6-1.4,6.9-5.5,10.4-12.3c3.5-6.8,0.7-11.3-0.3-12
		c-0.2-0.1-0.4-0.2-0.6-0.4c1.2,1.5,2.8,5.7-0.2,11.4C199.8,51.6,194.6,55.6,192.9,57z"/>
	<path class="st0" d="M174,40.9c0.2,0,0.3,0.1,0.5,0.1c-0.5-0.6-1.1-1-1.7-1.1c-1.6-0.1-4.9,4.1-6.6,7.9c-1.7,3.8-5.1,14.8-2.3,17.6
		c0.3,0.3,0.6,0.5,0.9,0.6c-2.3-3.2,0.9-13.6,2.6-17.2C169,45,172.4,40.8,174,40.9z"/>
	<path class="st0" d="M163.1,92.7c0.1,0,0.2,0,0.3-0.1c-0.1-0.8,0-1.9,0.3-2.7c0.5-1.3,4-6.6,6.2-9.2c0.2-0.9,0.4-1.7,0.5-2.6
		c-0.2,0.2-0.5,0.4-0.7,0.6c-1.9,1.7-6.7,8.7-7.2,10.2C162,90.5,161.9,92.8,163.1,92.7z"/>
	<path class="st0" d="M166.4,71c2.5,0.4,4.1,0.1,5.4-0.6c0.1-0.6,0.2-1.3,0.4-2c-1.5,1.3-3.4,2.3-7,1.7c-0.8-0.1-1.6-0.4-2.3-0.9
		C163.9,70.1,165.1,70.7,166.4,71z"/>
	<path class="st0" d="M191.4,52.9c0.4-0.4,0.9-0.9,1.4-1.4c0.1-0.5,0.1-1,0.2-1.5c0.7-4.1,2.1-8.1,5.3-10.9c0.8-0.7,2.5-2.2,3.9-2.2
		c0-0.3-0.1-0.6-0.4-0.7c-1.5-0.9-3.8,1.1-4.7,1.9c-3.1,2.8-4.6,6.8-5.3,10.9C191.6,50.4,191.5,51.7,191.4,52.9z"/>
	<path class="st0" d="M155.3,72c2.9-0.4,4.8-2.4,6-4.2c-0.3-0.4-0.7-0.8-0.9-1.3c-1.2,1.9-3.2,4.2-6.3,4.6c-1,0.1-1.8-0.1-2.6-0.5
		C152.6,71.6,153.8,72.2,155.3,72z"/>
	<path class="st0" d="M140.8,75.9c2.5-0.2,5.1-1.7,6.9-3.5c0.4-0.4,2.1-2,2.5-3c-0.4-0.5-0.7-1-1-1.6c0,0.1,0,0.1,0,0.1
		c0,0.8-2.2,2.9-2.7,3.5c-1.7,1.8-4.3,3.3-6.9,3.5c-1.3,0.1-2.4-0.2-3.3-0.7C137.4,75.4,138.9,76,140.8,75.9z"/>
	<path class="st0" d="M132.4,65.9c-1,1.6-2.3,3.6-3,4.5c-0.6,0.7-1.4,1.6-2,2.3c0,0.1-0.1,0.2-0.1,0.4c-1.2,3-4.8,6.7-9.2,6.1
		c-1.2-0.2-2.2-0.6-3-1.1c1,0.9,2.3,1.8,4.2,2c4.4,0.6,8-3.1,9.2-6.1c0-0.1,0.1-0.2,0.1-0.4c0.7-0.7,1.5-1.6,2-2.3
		c0.5-0.6,1.3-1.9,2.1-3.2C132.6,67.4,132.5,66.6,132.4,65.9z"/>
	<path class="st0" d="M113.9,74.3c0.1,0.1,0.3,0.2,0.5,0.3c-0.1-0.1-0.2-0.2-0.2-0.3C114.2,74.3,114.1,74.3,113.9,74.3z"/>
	<path class="st0" d="M208.7,62.3c-1.1,1.5-2.5,2.7-4.1,3.5c-3.8,1.9-8.7,1.8-12.2-0.6c3.6,3.4,9,3.7,13.1,1.7
		c1.3-0.6,2.1-1.6,2.6-2.3c0.6-0.8,1.2-2.2,1.5-3.4C209.3,61.5,209,61.9,208.7,62.3z"/>
	<path class="st0" d="M184.2,66.2c1.5-1.7,2.9-3.5,4.4-5.1c-0.3-0.4-0.5-0.9-0.8-1.4c-1.7,1.7-3.2,3.6-4.9,5.5
		c-1.5,1.8-3.1,3.5-4.6,5.3c-0.5,0.5-1,1.1-1.5,1.6c-0.4,4.5-1.1,10.9-3.4,16.5c-2.9,7.2-8.9,8.9-11.2,8.5c-0.4-0.1-0.8-0.2-1.2-0.4
		c0.7,0.8,1.6,1.2,2.4,1.4c2.3,0.4,8.3-1.3,11.2-8.5c2.2-5.6,2.9-12,3.4-16.5c0.5-0.5,1-1.1,1.5-1.6
		C181.1,69.7,182.6,67.9,184.2,66.2z"/>
	<path class="st0" d="M89.1,86.5c2.7-1.1,5-4.4,6.2-7.1c-0.3-0.6-0.6-1.2-0.8-1.8c0,0.1,0,0.1-0.1,0.1c-1.1,2.9-3.6,6.7-6.5,7.9
		c-1.6,0.7-3.2,0.4-4.7-0.5C85,86.7,87,87.4,89.1,86.5z"/>
	<path class="st0" d="M119.4,55.8C119.4,55.8,119.4,55.8,119.4,55.8c-0.3-0.8-0.5-1.5-0.5-2.1c-1.6,2.5-4.6,10.6-5.8,13.6
		c-1.2,3-5.5,11.3-7.2,13.1c-1.6,1.7-4.7,3.8-8.1,1.6c0.2,0.2,0.5,0.5,0.8,0.7c3.5,2.6,6.8,0.4,8.5-1.4c1.7-1.8,6-10.1,7.2-13.1
		C115.3,65.7,117.7,59.1,119.4,55.8z"/>
	<path class="st0" d="M68.9,60.6c-0.1-0.1-0.2-0.1-0.3-0.2c0.1,0.1,0.2,0.2,0.2,0.3C68.8,60.7,68.9,60.7,68.9,60.6z"/>
	<path class="st0" d="M52.3,91.7c-0.4-0.2-0.7-0.4-1-0.6c0.6,0.6,1.4,1.1,2.2,1.5c5.7,2.7,10.2-4.3,11.8-7.1
		c-0.3-0.6-0.5-1.2-0.7-1.9C63.8,85.3,58.8,94.8,52.3,91.7z"/>
	<path class="st0" d="M80,81.4c-0.3-0.5-0.5-1.1-0.7-1.7c-1,1.6-2.4,3.8-3.1,4.7c-1.2,1.6-4.6,4.8-8.1,3.8c-0.2-0.1-0.5-0.2-0.7-0.3
		c0.5,0.6,1.1,1,1.9,1.2c3.5,1,6.9-2.3,8.1-3.8C78,84.5,79.1,82.8,80,81.4z"/>
	<path class="st0" d="M66.5,63.5c-0.9-2.1-3.4-0.3-6.5,2.3c-3.3,2.8-9.3,11.1-9.1,17.7c0,0.5,0.1,1.1,0.1,1.6
		c0.2,1.5,0.8,3.2,2.2,3.8c-0.6-0.8-0.9-1.9-1-2.9c-0.1-0.5-0.1-1.1-0.1-1.6c-0.2-6.6,5.8-14.9,9.1-17.7
		C63.4,64.9,65.3,63.4,66.5,63.5z"/>
</g>
</svg>
