<svg xmlns="http://www.w3.org/2000/svg" viewBox="0 0 204.1 72"><path fill="#F8AB54" d="M0 36l14.4-2.5c6.2-1.1 12.2 1.8 12.2 8.3 0 6-2.1 8.9-5.5 11l6.1 14.4-11.2 2L11.3 56h-.1v14L0 72V36zm16.5 8.6c0-3.2-2.1-3.6-5.3-3.1v8c3.2-.6 5.3-1.8 5.3-4.9zM30.1 30.7l11.2-2v36l-11.2 2v-36zM44.9 46.1c0-10 4.3-19.8 15.4-21.7 8.5-1.5 12.2 2.8 13.8 9.1l-9.6 3.7c-.5-2.6-2-4.2-4.3-3.8-2.7.5-4.3 4.3-4.3 10.8 0 6.5 1.6 9.7 4.3 9.3 2.1-.4 3.2-1.6 4.3-3.3v-3l-4.3.8.5-7.6L74 38.1v14.5c-3.2 5.6-8 8.9-13.8 9.9-11.1 1.8-15.3-6.4-15.3-16.4zM84.9 21l10.6-1.9 9.6 34.3-11.7 2.1-.5-4.4-5.3.9-.5 4.6-11.7 2.1L84.9 21zm6.8 21.8L90.6 34l-.3-3h-.1l-.3 3-1.2 9.2 3-.4zM109.3 25.7l-6.4 1.1 1.1-9.2 21.8-3.8 1.1 8.8-6.4 1.1v27l-11.2 2v-27zM127.3 31.5c0-11.5 5.2-19.9 14.6-21.6 9.5-1.7 14.6 4.9 14.6 16.4s-5.2 19.9-14.7 21.6c-9.4 1.7-14.5-4.9-14.5-16.4zm18.1-3.2c0-7-.9-9.9-3.5-9.4s-3.5 3.6-3.5 10.6.9 9.8 3.5 9.4c2.6-.4 3.5-3.6 3.5-10.6zM160.1 7.8l10.6-1.9 5.6 13.5c.3.7.5 1.4.7 2.1h.1V4.8l11.2-2v36l-10.6 1.9-5.7-13.6c-.3-.7-.5-1.4-.7-2.1h-.1v16.8l-11.2 2v-36zM192.9 2l11.2-2v36l-11.2 2V2z"/></svg>