<svg xmlns="http://www.w3.org/2000/svg" viewBox="0 0 354.6 55.1"><path fill="#FFF" d="M0 47.8l8.6-4.5c1.1 2.4 2.5 2.9 3.8 2.8 1.1-.1 2.2-1.1 2.2-2.1 0-5-12.9-6.3-12.9-16.8 0-5 4.3-9.7 11.9-10.1 7.6-.4 11.3 2.4 13.5 6.3L19 27.3c-.8-1.5-1.6-2.4-3.2-2.3-1.3.1-2.2 1.1-2.2 2.6 0 3.6 13.5 5.8 13.5 16.8 0 6.5-5.9 10.3-13.5 10.7-7.7.4-11.8-3.4-13.6-7.3zM37.4 16.8l10.8-.6 9.7 35.5-11.9.7-.5-4.5-5.4.3-.5 4.5-11.9.6 9.7-36.5zm6.9 22.6l-1.2-8.9-.3-3h-.1l-.3 3-1.2 9.1 3.1-.2zM58.8 39.7v-24l11.3-.6v24c0 2.5.5 4 2.7 3.9s2.7-1.6 2.7-4.1v-24l11.3-.6v24c0 9-4.9 13.3-14 13.7s-14-3.3-14-12.3zM88.9 43.1l8.6-4.5c1.1 2.4 2.5 2.9 3.8 2.8 1.1-.1 2.2-1.1 2.2-2.1 0-5-13-6.3-13-16.8 0-5 4.3-9.7 11.9-10.1 7.6-.4 11.3 2.4 13.5 6.3l-8.1 3.9c-.8-1.5-1.6-2.4-3.2-2.3-1.3.1-2.2 1.1-2.2 2.6 0 3.6 13.5 5.8 13.5 16.8 0 6.5-5.9 10.3-13.5 10.7-7.6.4-11.8-3.4-13.5-7.3zM126.3 12.1l10.8-.6 9.7 35.5-11.9.6-.5-4.5-5.4.3-.5 4.5-11.9.6 9.7-36.4zm6.9 22.7l-1.2-8.9-.3-3h-.1l-.3 3-1.2 9.1 3.1-.2zM146.7 29.1c0-10 4.3-19.2 15.6-19.8 8.6-.5 12.4 4.3 14 10.8l-9.7 2.5c-.5-2.7-2-4.4-4.3-4.3-2.7.1-4.3 3.7-4.3 10.2 0 6.5 1.6 9.9 4.3 9.8 2.2-.1 3.2-1.2 4.3-2.7v-3l-4.3.2.5-7.5 13.5-.7V39c-3.2 5.2-8.1 7.9-14 8.2-11.3.7-15.6-8.1-15.6-18.1zM180.5 9.3l20-1 .5 9-9.2.5v4.5l8.1-.4v8.5l-8.1.4v4.5l9.2-.5-.5 9.5-20 1v-36zM205.4 25l14-.7v7.5l-14 .7V25zM230.4 6.7l10.8-.6 9.7 35.5-11.9.6-.5-4.5-5.4.3-.5 4.5-11.9.6 9.7-36.4zm6.9 22.6l-1.2-8.9-.3-3h-.1l-.3 3-1.2 9.1 3.1-.2zM253.4 5.5l15.1-.8c8-.4 11.3 4.4 11.3 8.4 0 3.5-1.6 6.6-4.9 7.7v.1c3.8 1.3 5.9 4.1 5.9 8.6 0 5-2.7 10.6-12.4 11.2l-15.1.8v-36zM269 15.7c0-2.4-1.1-3.4-4.3-3.3v7c3.2-.2 4.3-1.2 4.3-3.7zm.6 13.4c0-2.9-1.6-3.9-4.9-3.7v7.5c3.2-.2 4.9-1 4.9-3.8zM284.5 3.9l11.3-.6v27l8.6-.5-1.1 9.1-18.9 1v-36zM307 2.7l20-1 .5 9-9.2.5v4.5l8.1-.4v8.5l-8.1.4v4.5l9.2-.5-.5 9.5-20 1v-36zM336.5 24c0-8.1 8.4-8.8 8.4-13.8 0-2-.5-2.9-2.2-2.8-1.4.1-2.8.9-2.8 4 0 .5.1 1 .1 1.6l-9.2.5c-.1-.7-.1-1.4-.1-2 0-7.6 5.6-11 12.5-11.4 7.6-.4 11.3 3.8 11.3 8.7 0 10.3-7.7 9.1-7.7 16 0 .4.1.8.1 1.4l-10.3.5c0-1-.1-1.9-.1-2.7zm.3 5.6l10.3-.5v7.5l-10.3.5v-7.5z"/></svg>