<svg xmlns="http://www.w3.org/2000/svg" viewBox="0 0 235.5 76.5"><path fill="#FAAB54" d="M0 70.5L8.5 65c1.1 2.3 2.5 2.6 3.7 2.3 1.1-.2 2.1-1.4 2.1-2.4 0-5-12.8-4.7-12.8-15.2 0-5 4.3-10.3 11.7-11.6 7.4-1.3 11.2 1 13.3 4.7l-8 4.9c-.8-1.4-1.5-2.2-3.2-1.9-1.3.2-2.1 1.4-2.1 2.9 0 3.6 13.3 4.2 13.3 15.2 0 6.5-5.9 11-13.3 12.3-7.3 1.3-11.4-2-13.2-5.7zM30.2 36.2l13.3-2.3c9-1.6 13.8 3.1 13.8 9.6 0 7.7-6.1 13.2-13.6 14.6-.7.1-1.5.2-2.3.3v12l-11.2 2V36.2zm16.5 9.1c0-3-1.6-3.7-5.3-3.1v8c3.7-.6 5.3-1.9 5.3-4.9zM64.4 30.2L75 28.3l9.6 34.3-11.7 2.1-.5-4.4-5.4.9-.5 4.6-11.7 2.1 9.6-37.7zM71.2 52L70 43.2l-.3-3h-.1l-.3 3-1.2 9.2 3.1-.4zM84.4 44.6c0-10 4.3-19.8 15.4-21.7 8.5-1.5 12.2 2.8 13.8 9.1l-9.6 3.7c-.5-2.6-2-4.2-4.3-3.8-2.7.5-4.3 4.3-4.3 10.8 0 6.5 1.6 9.7 4.3 9.2 2.1-.4 3.2-1.6 4.3-3.3v-3l-4.3.8.5-7.6 13.3-2.3V51c-3.2 5.6-8 8.9-13.8 9.9-11 2-15.3-6.3-15.3-16.3zM117.8 20.8l11.2-2v12.5l5.3-.9V17.8l11.2-2v36l-11.2 2V39.3l-5.3.9v14.5l-11.2 2V20.8zM150.1 15.1l19.7-3.5.5 8.9-9 1.6v4.5l8-1.4v8.5l-8 1.4v4.5l9-1.6-.5 9.6-19.7 3.5v-36zM178.9 19l-6.4 1.1 1.1-9.2 21.8-3.8 1.1 8.8-6.4 1.1v27l-11.2 2V19zM204.3 14.5l-6.4 1.1 1.1-9.2 21.8-3.8 1.1 8.8-6.4 1.1v27l-11.2 2v-27zM224.3 2l11.2-2v36l-11.2 2V2z"/></svg>