<svg xmlns="http://www.w3.org/2000/svg" viewBox="0 0 338.3 53.7"><path fill="#FAAA5C" d="M6.5 26.7L0 27l1.1-9 22.1-1.2 1.1 8.9-6.5.3v27l-11.3.7v-27zM26.8 16.6l11.3-.6v12.5l5.4-.3V15.7l11.3-.6v36l-11.3.6V37.2l-5.4.3V52l-11.3.6v-36zM67.1 14.5l10.8-.6 9.7 35.5-11.9.6-.5-4.5-5.4.3-.5 4.5-11.9.7 9.7-36.5zM74 37.1l-1.2-8.9-.3-3h-.1l-.3 3-1.1 9.1 3-.2zM90.2 13.3l10.8-.6 5.7 14.2c.3.7.5 1.5.7 2.2h.1V12.4l11.3-.6v36l-10.8.6-5.7-14.2c-.3-.8-.5-1.5-.7-2.2h-.1v16.8l-11.3.6V13.3zM123.4 11.6l11.3-.6v15h.1l5.3-15.3 11.3-.6L144 28l8.1 18.1-11.3.6-5.9-14.7h-.1v15l-11.3.6v-36z"/><path fill="#FAAA5C" d="M151.7 39.1l8.6-4.5c1.1 2.4 2.5 2.9 3.8 2.8 1.1-.1 2.2-1.1 2.2-2.1 0-5-13-6.3-13-16.8 0-5 4.3-9.7 11.9-10.1s11.3 2.4 13.5 6.3l-8.1 3.9c-.8-1.5-1.6-2.4-3.2-2.3-1.3.1-2.2 1.1-2.2 2.6 0 3.6 13.5 5.8 13.5 16.8 0 6.5-5.9 10.3-13.5 10.7s-11.8-3.4-13.5-7.3zM181.1 26.5c0-10 4.3-19.2 15.6-19.8 8.6-.5 12.4 4.3 14 10.8L201 20c-.5-2.7-2-4.4-4.3-4.3-2.7.1-4.3 3.7-4.3 10.2 0 6.5 1.6 9.9 4.3 9.8 2.2-.1 3.2-1.2 4.3-2.7v-3l-4.3.2.5-7.5 13.5-.7v14.5c-3.2 5.2-8.1 7.9-14 8.2-11.3.6-15.6-8.2-15.6-18.2zM215 6.8l11.3-.6v36l-11.3.6v-36zM228.8 6l11.7-.6 2.5 18.9c.1 1 .3 2 .3 3h.1l.3-3 2.5-19.1 11.7-.6-8.7 36.4-11.7.6L228.8 6zM260.4 4.4l11.3-.6v36l-11.3.6v-36zM276.4 3.5l10.8-.5 5.7 14.2c.3.7.5 1.5.7 2.2h.1V2.6L305 2v36l-10.8.6-5.7-14.2c-.3-.8-.5-1.5-.7-2.2h-.1V39l-11.3.6V3.5zM308.6 19.9c0-10 4.3-19.2 15.6-19.8 8.6-.5 12.4 4.3 14 10.8l-9.7 2.5c-.5-2.7-2-4.4-4.3-4.3-2.7.1-4.3 3.7-4.3 10.2 0 6.5 1.6 9.9 4.3 9.8 2.2-.1 3.2-1.2 4.3-2.7v-3l-4.3.2.5-7.5 13.5-.7v14.5c-3.2 5.2-8.1 7.9-14 8.2-11.3.5-15.6-8.2-15.6-18.2z"/></svg>