<?xml version="1.0" encoding="utf-8"?>
<!-- Generator: Adobe Illustrator 18.1.1, SVG Export Plug-In . SVG Version: 6.00 Build 0)  -->
<svg version="1.1" id="Layer_1" xmlns="http://www.w3.org/2000/svg" xmlns:xlink="http://www.w3.org/1999/xlink" x="0px" y="0px"
	 viewBox="0 0 345 117" enable-background="new 0 0 345 117" xml:space="preserve">
<g>
	<defs>
		<rect id="SVGID_1_" x="0.1" y="0.5" width="344.5" height="116.5"/>
	</defs>
	<clipPath id="SVGID_2_">
		<use xlink:href="#SVGID_1_"  overflow="visible"/>
	</clipPath>
	<path clip-path="url(#SVGID_2_)" fill="#FFFFFF" d="M3.2,90.2l0.4-3.4C4,84,5.8,82,11.1,82h0.2c0.3,0,0.4,0.1,0.4,0.5l-0.1,0.8
		c0,0.3-0.2,0.5-0.5,0.5h-0.2c-3.8,0-5.1,1.3-5.3,3.2l-0.4,3.2h4.5c0.3,0,0.5,0.1,0.5,0.4L10,91.4c0,0.3-0.2,0.5-0.5,0.5H5.1
		L2,116.5c0,0.3-0.2,0.5-0.5,0.5H0.4c-0.3,0-0.4-0.2-0.4-0.5l3.1-24.7H0.6c-0.3,0-0.5-0.1-0.4-0.5l0.1-0.6c0-0.3,0.2-0.5,0.5-0.5
		l2.1-0.1H3.2"/>
</g>
<path fill="#FFFFFF" d="M16.7,94.6c0.3-2.8,2.2-4.8,7.5-4.8c4.6,0,6.4,1.7,6.4,4.1c0,0.2,0,0.3,0,0.7l-1.3,10.1
	c-0.3,2.8-2.2,4.7-7.5,4.7c-4.6,0-6.4-1.7-6.4-4.1c0-0.2,0-0.4,0-0.7L16.7,94.6 M28.6,94.7c0-0.3,0-0.4,0-0.5c0-1.7-1.2-2.7-4.6-2.7
	c-3.8,0-5.1,1.3-5.3,3.2l-1.2,9.8c0,0.2,0,0.3,0,0.5c0,1.7,1.2,2.7,4.6,2.7c3.8,0,5.1-1.3,5.3-3.2L28.6,94.7z"/>
<path fill="#FFFFFF" d="M49.4,90.3l-0.1,1c0,0.3-0.2,0.4-0.5,0.4c-3,0.1-5.7,1.8-6.8,2.6l-1.8,14.2c0,0.3-0.2,0.5-0.5,0.5h-1.1
	c-0.3,0-0.4-0.1-0.4-0.5l2.2-18c0-0.3,0.2-0.5,0.5-0.5h1c0.3,0,0.5,0.2,0.4,0.5l-0.2,2.1c1.2-1,3.9-2.8,6.8-2.8
	C49.3,89.8,49.4,90,49.4,90.3"/>
<path fill="#FFFFFF" d="M65.3,109c-0.5,0-0.7-0.2-0.7-0.7V69.4c0-0.5,0.2-0.7,0.7-0.7h10c9.6,0,12.4,3.5,12.4,8.1v4
	c0,3.3-1.5,5.8-5.6,7.1c5,1,7.2,3.6,7.2,7.4v5.5c0,4.7-2.8,8.3-12.4,8.3H65.3 M67.7,71.3v15.5H76c6.3,0,8.6-2.5,8.6-6.1v-3.6
	c0-3.6-2.3-5.9-9.3-5.9H67.7z M67.7,89.4v16.9h9.1c7,0,9.3-2.4,9.3-6.1v-4.9c0-3.5-2.3-6-9.3-6H67.7z"/>
<path fill="#FFFFFF" d="M106.9,100.7c0,3.6,2.3,6.1,9.3,6.1c6.9,0,9.3-2.5,9.3-6.1V69.4c0-0.5,0.2-0.7,0.7-0.7h1.8
	c0.5,0,0.7,0.2,0.7,0.7v31.7c0,4.6-2.8,8.4-12.4,8.4c-9.5,0-12.4-3.7-12.4-8.4V69.4c0-0.5,0.2-0.7,0.7-0.7h1.8
	c0.5,0,0.7,0.2,0.7,0.7V100.7"/>
<path fill="#FFFFFF" d="M164.9,76.9c0-3.6-2-6.1-8.8-6.1s-8.8,2.5-8.8,6.1v2.2c0,3,2.1,4.4,3.7,5l11.4,4.3c3,1.1,5.9,3.4,5.9,7.4
	v5.2c0,4.6-2.8,8.4-12.3,8.4c-9.4,0-12.3-3.7-12.3-8.4V98c0-0.5,0.2-0.8,0.7-0.8h1.7c0.5,0,0.7,0.2,0.7,0.8v2.7
	c0,3.6,2.2,6.1,9.1,6.1c7,0,9.3-2.5,9.3-6.1v-4.2c0-3.2-2.6-4.6-4.9-5.5l-11-4.3c-2.4-0.9-5.1-3.3-5.1-7v-3.2
	c0-4.6,2.6-8.4,11.9-8.4c9.3,0,11.9,3.7,11.9,8.4v2.9c0,0.5-0.2,0.7-0.7,0.7h-1.7c-0.5,0-0.7-0.2-0.7-0.7V76.9"/>
<path fill="#FFFFFF" d="M187.3,108.3c0,0.5-0.2,0.7-0.7,0.7h-1.8c-0.5,0-0.7-0.2-0.7-0.7V69.4c0-0.5,0.2-0.7,0.7-0.7h1.8
	c0.5,0,0.7,0.2,0.7,0.7V108.3"/>
<path fill="#FFFFFF" d="M229.9,108.3c0,0.5-0.2,0.7-0.7,0.7h-1.6c-0.4,0-0.5-0.1-0.7-0.4l-17-30.2c-0.9-1.4-1.8-3.4-1.9-3.6v33.4
	c0,0.5-0.2,0.7-0.7,0.7h-1.6c-0.5,0-0.7-0.2-0.7-0.7V69.4c0-0.5,0.2-0.7,0.7-0.7h1.6c0.3,0,0.5,0.1,0.6,0.3l17.1,30.4
	c0.5,0.9,1.7,3.4,1.7,3.4V69.4c0-0.5,0.2-0.7,0.7-0.7h1.6c0.5,0,0.7,0.2,0.7,0.7V108.3"/>
<path fill="#FFFFFF" d="M247.6,109c-0.4,0-0.7-0.2-0.7-0.7V69.4c0-0.5,0.2-0.7,0.7-0.7h20.2c0.5,0,0.7,0.2,0.7,0.7v1.3
	c0,0.5-0.2,0.7-0.7,0.7h-17.8v15.1h16.7c0.5,0,0.7,0.2,0.7,0.7v1.2c0,0.5-0.2,0.7-0.7,0.7h-16.7v17.1h18.5c0.5,0,0.7,0.2,0.7,0.7
	v1.3c0,0.5-0.2,0.7-0.7,0.7H247.6"/>
<path fill="#FFFFFF" d="M303.7,76.9c0-3.6-2-6.1-8.8-6.1c-6.9,0-8.8,2.5-8.8,6.1v2.2c0,3,2.1,4.4,3.7,5l11.4,4.3
	c3,1.1,5.9,3.4,5.9,7.4v5.2c0,4.6-2.8,8.4-12.3,8.4c-9.4,0-12.3-3.7-12.3-8.4V98c0-0.5,0.2-0.8,0.7-0.8h1.7c0.5,0,0.7,0.2,0.7,0.8
	v2.7c0,3.6,2.2,6.1,9.1,6.1c7,0,9.3-2.5,9.3-6.1v-4.2c0-3.2-2.6-4.6-4.9-5.5l-11-4.3c-2.4-0.9-5.1-3.3-5.1-7v-3.2
	c0-4.6,2.6-8.4,11.9-8.4c9.3,0,11.9,3.7,11.9,8.4v2.9c0,0.5-0.2,0.7-0.7,0.7h-1.7c-0.5,0-0.7-0.2-0.7-0.7V76.9"/>
<path fill="#FFFFFF" d="M341.1,76.9c0-3.6-2-6.1-8.8-6.1c-6.9,0-8.8,2.5-8.8,6.1v2.2c0,3,2.1,4.4,3.7,5l11.4,4.3
	c3,1.1,5.9,3.4,5.9,7.4v5.2c0,4.6-2.8,8.4-12.3,8.4c-9.4,0-12.3-3.7-12.3-8.4V98c0-0.5,0.2-0.8,0.7-0.8h1.7c0.5,0,0.7,0.2,0.7,0.8
	v2.7c0,3.6,2.2,6.1,9.1,6.1c7,0,9.3-2.5,9.3-6.1v-4.2c0-3.2-2.6-4.6-4.9-5.5l-11-4.3c-2.4-0.9-5.1-3.3-5.1-7v-3.2
	c0-4.6,2.6-8.4,11.9-8.4c9.3,0,11.9,3.7,11.9,8.4v2.9c0,0.5-0.2,0.7-0.7,0.7h-1.7c-0.5,0-0.7-0.2-0.7-0.7V76.9"/>
<path fill="#0079C1" d="M250.6,0.5c-1,0-1.9,0.8-1.9,1.9v13.1h34.5L267.6,0.5H250.6"/>
<path fill="#0079C1" d="M284.5,19.4c0-1-0.8-1.9-1.9-1.9h-13.1v34.5l14.9-15.7V19.4"/>
<path fill="#0079C1" d="M265.6,53.3c1,0,1.9-0.8,1.9-1.9V38.4H233l15.7,14.9L265.6,53.3"/>
<path fill="#0079C1" d="M231.7,34.5c0,1,0.8,1.9,1.9,1.9h13.1V1.8l-14.9,15.7L231.7,34.5"/>
<polyline fill="#FFFFFF" points="73.7,6.8 73.7,22.8 51.5,22.8 51.5,6.8 43.4,6.8 43.4,47 51.5,47 51.5,29.8 73.7,29.8 73.7,47 
	81.8,47 81.8,6.8 73.7,6.8 "/>
<polyline fill="#FFFFFF" points="181.3,6.8 181.3,47 216.8,47 212.4,39.9 189.5,39.9 189.5,29.8 211.6,29.8 211.6,22.9 189.5,22.9 
	189.5,13.7 212.3,13.7 216.7,6.8 181.3,6.8 "/>
<path fill="#FFFFFF" d="M13.4,6.8C5,6.8,0.7,11.9,0.7,19.4v15C0.7,43,6.2,47,13.3,47l25.4,0L34,39.7H14.9c-4.1,0-5.8-1.5-5.8-6V20.1
	c0-4.4,1.5-6.1,5.9-6.1h19.2l4.5-7.1H13.4"/>
<path fill="#FFFFFF" d="M145.9,6.8c-4.9,0-9.8,2.9-9.8,10.4v1.9c0,7.8,4.8,10.8,9.6,10.8h16.8c1.8,0,3.2,0.3,3.2,3.2v3.4
	c0,2.7-1.4,3.3-3.2,3.3h-22.1l-4.5,7.1h27.2c6.6,0,11-3.3,11-10.8v-2.8c0-7.3-4.1-10.7-10.6-10.7h-16.1c-1.8,0-3-0.5-3-3.1l0-2.8
	c0-2.2,0.9-3.1,2.9-3.1l21.1,0l4.4-6.9L145.9,6.8"/>
<path fill="#FFFFFF" d="M105.3,6.8L86.3,47h9l3.7-8.3h20.7l3.7,8.3h9L113.4,6.8H105.3 M109.3,15.2l7.3,16.7h-14.6L109.3,15.2z"/>
</svg>
