<svg xmlns="http://www.w3.org/2000/svg" viewBox="0 0 308 126.3"><path d="M153.9 0h-2c-29.1 1.1-53.3 15-62.5 35.8H21.5C8.7 35.8 0 43.5 0 54.9v52c0 10.9 8.9 19.4 20.2 19.4h270c8.6 0 17.8-8.2 17.8-20.3V54.9c0-8.9-7.7-19.1-18.7-19.1-25.3 0-62.1.1-71.4 0C209 15.4 185.6 1.7 156.1.1L154 0h-.1zM7.2 106.9v-52c0-7.5 5.4-11.9 14.3-11.9h72.7l.9-2.3c7.4-19.3 29.8-32.4 57-33.4h1.8c.1 0 1.7.1 1.7.1 27.5 1.5 49 14.2 56.2 32.9l.2.5c.9 2.3 3 2.3 4.1 2.3h10.8l25.4.1 36.9.1c7 0 11.5 6.9 11.5 11.7v51c0 7.7-5.6 13.1-10.6 13.1h-270c-7.3 0-12.9-5.2-12.9-12.2z"/><path fill="#FAAB54" d="M304.4 54.9V106c0 10-7.4 16.7-14.2 16.7h-270c-9.6 0-16.6-7.1-16.6-15.8v-52c0-9.1 6.5-15.5 17.9-15.5h70.2C99.6 18.8 123.2 4.7 152 3.6c.6 0 1.3-.1 1.9-.1.6 0 1.3 0 1.9.1 28.3 1.6 51.5 14.7 59.4 35.3 0 0 .1.4.2.5 0 .1 73.8 0 73.8 0 9.2 0 15.2 8.7 15.2 15.5z"/><linearGradient id="a" gradientUnits="userSpaceOnUse" x1="5066.991" y1="5011.819" x2="5066.991" y2="4932.517" gradientTransform="translate(-2122.693 -2200.11) scale(.4493)"><stop offset=".15" stop-color="#FFFEF6"/><stop offset=".594" stop-color="#FFF685"/><stop offset=".765" stop-color="#FFE375"/><stop offset="1" stop-color="#FEC35A"/></linearGradient><path fill="url(#a)" d="M153.9 9.2c1.4 0 .6 0 2 .1 26.6 1.5 48.3 14.3 54.3 34.3 2.5 8.1 1.9 10.2 1.8 16.9H95.7c-.1-6.7-.6-8.8 1.8-16.9 6-20 27.7-32.8 54.3-34.3 1.5-.1.6-.1 2.1-.1z"/><path fill="#91192D" d="M286 45h-67.8c1.1 5.8 1.7 12.3 1.6 17.5l-.1 3.2v1.1H88.3v-1.1l-.1-3.2c-.1-5.2-.1-11.6 1-17.5H22.5c-8.7 0-12.8 5.5-12.8 12.3V105c0 6.8 5.5 11.8 12.3 11.8h264c6.8 0 12.3-5.5 12.3-12.3V57.3c0-6.7-5.5-12.3-12.3-12.3z"/><path d="M286 117.4H22c-7.3 0-13-5.4-13-12.3V57.3c0-7.9 5.3-12.9 13.4-12.9h67.5l-.1.7c-1.1 5.7-1.1 12-1 17.3l.1 3.8h130.2v-.5l.1-3.2c.1-5.2-.5-11.7-1.5-17.3l-.1-.7h68.5c7.1 0 12.9 5.8 12.9 12.9v47.2c-.1 7-5.9 12.8-13 12.8zM88.5 45.6h-66c-9 0-12.2 6.1-12.2 11.7V105c0 6.3 5.1 11.2 11.7 11.2h264c6.5 0 11.7-5.3 11.7-11.7V57.3c0-6.5-5.3-11.7-11.7-11.7h-67.1c1 5.5 1.5 11.8 1.4 16.9l-.1 5H89.4c-1.5 0-1.7 0-1.7-.6l-.1-4.3c-.2-5.4-.1-11.4.9-17z"/><path d="M210.8 43.4c-3-9.8-9.8-18.3-19.7-24.4-9.7-6-21.8-9.5-35.1-10.3-.5 0-.7 0-.8-.1H154s-.1 0 0 0h-1.2c-.1 0-.3 0-.9.1-13.4.8-25.6 4.3-35.2 10.3-9.9 6.2-16.7 14.6-19.7 24.4-2.1 6.9-2 9.5-1.9 14.2l.1 2.9v.6h117.6v-.6l.1-2.9c0-4.7 0-7.3-2.1-14.2zM96.2 57.6c-.1-2.3-.1-4 .1-6 .2.1.4.1.7.2.2 0 .4 0 .5.1h.5v-.1c.1-.2.3-.2.5-.3.3-.2.6-.1.9 0 .3.2.7.2.9.4.3.2.4.4.6.7.2.1.3.4.5.5.1.4.6.7.7 1.1 0 .5 0 1-.1 1.4-.1.3-.2.6-.2.9.1.4-.4.5-.4.9-.1.1-.2.2-.2.4s-.2.2-.3.2h-4.8l.1-.4zm9.2-7.2c.2-.1.3-.2.5-.3.1 0 .2.1.2.1.1.1 0 .3 0 .4-.3.3-.6.6-.8.9-.1.1-.2.1-.2.1-.2-.1-.1-.2-.1-.4s.1-.4.1-.5c0-.2.2-.2.3-.3zm0-2.6c.1-.2.3-.1.5-.2.1 0 .1-.1.2 0s.1.2.1.3c.1.1.1.3 0 .4-.1.1-.3.1-.5.1-.1 0-.3.2-.4 0 0-.2.1-.4.1-.6zm0 5.1c.1-.1.2-.2.2-.3.1-.4.5-.5.7-.8.1-.1.2-.3.4-.4.4-.1.9-.1 1.1.2.2.1.2.3.4.3.2-.1.3.1.5.1.2.1.3-.1.5-.1.5-.5 1.5-.2 1.9-.9.1-.2.1-.4.2-.6.1-.2.1-.4.2-.6.1-.3.4-.2.6-.2l.1.1c0 .4.1.9.1 1.3v.4c-.1 1.4 0 2.7 0 4.1 0 .1-.1.1-.1.2-.3.1-.9-.1-1 .4 0 .2.1.5-.1.6-.2.1-.5-.1-.8.1-.1 0-.2 0-.2.1-.1.3.1.6-.1.9-.5.1-1 .1-1.6.1-.5 0-1-.1-1.5 0-.1-.1-.1 0-.2 0h-.8c-.1-.1-.2-.2-.2-.3-.2-.3-.6-.5-.6-.8-.2-.3-.2-.7-.2-1.1v-.9c-.1-.3 0-.6 0-.9 0-.1 0-.2.1-.3 0-.3.1-.5.4-.7zm6.1-5.5c.1.3.5.2.7.2h30.1c.3 0 .5 0 .8.1.1.1 0 .3 0 .4l-.1.2h-31.2c-.3 0-.9 0-1-.3-.1-.3.1-.5.1-.8.1-.5 1-7.2 1.1-7.4 0-.2.1-.4.2-.5.1-.1.2-.1.3-.1.1 0 .2.1.2.1 0 .2-.1.4-.1.7-.2.6-1.3 7.1-1.1 7.4zm21.1-13.3v-.9c.1-.2 0-.4 0-.6 0-.1 0-.1.1-.2h1.2c.1.1.1.1.1.2-.1.3-.1.6-.2.9 0 .3.1.7-.1 1-.2.3-.5.6-.4 1 .2.3.5.1.8.1.2 0 .4 0 .5.1.1.1 0 .2.1.2.1.1.1.3.3.4.2.1.5.1.7 0 .2-.1.2-.3.3-.4.1-.2.3-.2.5-.2.3 0 .5 0 .7-.2.1-.1 0-.2.1-.3V35c-.1-.3-.4-.5-.4-.8.1-.2-.1-.4 0-.6 0-.1 0-.2-.1-.2 0-.2-.1-.3 0-.5-.1-.1-.1-.3 0-.4.1-.1.3-.1.5-.1.2-.1.4 0 .7 0 .2.1.1.3.2.4V36c0 .4.1.8 0 1.1-.2.2-.5.1-.8.1h-3.8c-.2-.1-.6.1-.7-.1-.1-.5 0-1 0-1.4v-1.3c-.2-.1-.3-.2-.3-.3zm12.1 11.4c0 .3 0 .5.1.8v.1c.1.4-.1 1.1.6 1.1.5.1 2.9-.1 3.6 0h.6c.1.1.2.4.2.6 0 .1-.1.2-.1.2h-4.5c-.9 0-.9-.6-.9-.9-.1-.4-.1-.8-.2-1.2l-.1-.8v-.2c-.1-.2 0-.4-.1-.6v-.2c0-.2-.1-.5.1-.7.1 0 .2-.1.3 0 .1 0 .2.1.2.2.1.4.1.7.2 1.1 0 .2-.1.4 0 .5zm2.4 5.7c.4.2.3 2.2.3 2.9 0 .3.1 1 0 1.2-.1.1-.1.1-.2.1-.3 0-.5-.1-.8 0h-3.6c-.2-.1-.5 0-.5-.3-.1-.3 0-.7 0-1 .1-.1 0-.3 0-.5v-2.1c0-.2.1-.4.3-.5.2.1 4.2.2 4.5.2zm-9 1.8c0 .1 0 .3-.2.4h-2.3c-.1 0-.2 0-.3-.1-.1-.4 0-.8-.1-1.2v-1.2c.1-.2.4-.2.6-.2.4.1.7 0 1.1 0h.8c.1 0 .2.1.2.1v.1c.2.8.2 1.4.2 2.1zm-7.4-1.6c0-.1.1-.3 0-.4 0-.2.1-.3.3-.4.7 0 1.3.1 2 0 .2 0 .3 0 .4.2.1.5 0 1.1 0 1.6v.7c-.1.2-.3.1-.5.2-.3 0-.7 0-1.1-.1h-.8c-.1 0-.2-.1-.2-.2-.1-.4 0-1-.1-1.6zm-4.8-.3c0-.2 0-.4.2-.5h1.5c.3 0 .7 0 1 .1.1 0 .1.1.1.1 0 .3 0 .7.1 1-.1.4 0 .9 0 1.3-.1.3-.5.1-.8.2h-1.8c-.1 0-.1 0-.2-.1s-.1-.3-.1-.5v-.9c-.1-.2 0-.4 0-.7zm-2 1.9c0 .1-.1.2-.2.3h-2.5c-.1 0-.2-.1-.2-.2v-2.2c0-.2.2-.2.3-.3.2 0 .3-.1.5 0 .2 0 .4-.1.6 0 .3 0 .6 0 1 .1h.3c.1 0 .2.1.2.2-.1.6 0 1.4 0 2.1zm-7.9-.2V51c0-.1 0-.3.1-.4.2-.1.4 0 .6 0h2.1c.1 0 .2.1.2.2v1.4c0 .4.1.7 0 1.1-.1.1-.3.1-.4.1-.5 0-1-.1-1.5 0h-.9c-.3-.2-.2-.4-.2-.6zm-12-4.5c0 .1 0 .3-.1.3h-.2c-.1-.1-.1-.2-.1-.2 0-.1.1-.1.1-.1.2-.1.3-.1.3 0zm-1.8 2.4c-.1-.4 0-.9 0-1.3 0-.1 0-.3.1-.4.2.1.3.3.4.4.2.2.4.4.6.5.1.1.2.2.2.3 0 .2-.1.4-.1.6-.2.3-.2.8-.4 1.2 0 .1-.1 0-.1 0-.2-.1-.4-.3-.5-.5-.3-.3-.1-.5-.2-.8zm.5-4.4c.1 0 .3-.1.4.1 0 .3.3.8-.1 1-.2 0-.2-.2-.4-.2-.1-.1-.2-.2-.1-.3 0-.2 0-.5.2-.6zm-2 3.4c.1-.1.2-.2.4-.2 0 .3-.1.5 0 .8v.1c-.2.1-.3.1-.5 0s-.2-.4-.2-.5c.1 0 .2-.1.3-.2zm-.6-2.1c0-.3.1-.5.3-.7.2 0 .3.3.5.3v.3c0 .2-.2.2-.3.3-.2-.1-.4 0-.5-.2zm64.4 6.4c0 .3 0 .5-.1.7-.2.2-.5.1-.8.2-.3 0-.6 0-.9-.1-.1 0-.2-.1-.3-.3v-3.7c.2-.4.7-.2 1.1-.3h.6c.1 0 .2.1.3.2.1.3.1.6.1.9V54zm2.9-.6v1c0 .1 0 .3-.2.4-.2.1-.5 0-.8 0h-.8c-.4-.2-.1-.8-.2-1.2 0-.2-.1-.4 0-.5 0-.4-.1-.8 0-1.3v-1c0-.1.1-.2.2-.3.5-.1 1 0 1.4 0 .1 0 .2.1.2.1.1.3.1.7.1 1 .1.7 0 1.3.1 1.8zm-.2-10.1c0 .1-.1.2-.2.2-.2.1-.4 0-.5 0-.3 0-.6 0-.9-.1-.2-.2-.1-.6-.1-.8-.1-.6-.1-1.2.1-1.8.1-.3.4-.4.7-.4.3 0 .6.2.7.5 0 .2.2.3.1.5.1.2.1.5.1.8v1.1zm23.3 10.1h-3.7c-.1 0-.3 0-.3-.2v-2.5c0-.1.1-.3.3-.3.5 0 1-.1 1.5 0h.7c.4.1.9-.1 1.3.1.3.1.2.6.3.9v1.9s-.1 0-.1.1zm.1 1.4v1c0 .1 0 .1-.1.2-.2 0-.5.2-.7-.1-.1-.2 0-.4-.1-.5v-1c0-.1.2-.2.3-.2.2 0 .4 0 .5.1.1.1 0 .3.1.5zm-1.5.8c0 .2 0 .3-.2.4-.2 0-.3.1-.5 0-.1 0-.3 0-.3-.2-.1-.4 0-.8 0-1.3 0-.1 0-.2.1-.3.1-.2.4-.1.5-.1h.3c.1.2 0 .4.1.6v.9zm-1.6.3s0 .1-.1.1c-.2 0-.5.1-.7 0-.1-.1-.1-.2-.1-.3v-1.3c0-.1.1-.2.2-.2.2 0 .6-.1.7.2v1.5zM174.8 49c-.2 0-.4-.2-.5-.3-.2-.3-4.8-9-5.1-9.5v-.3c.1-.1.4 0 .5 0 .1 0 5 9 5.1 9.2.2.2.6.3.9.2l14.8-.1c.2.1.3.3.4.5 0 .1 0 .2-.1.2l-16 .1zm8.7 5c-.1.2.1.6-.2.8-.2.1-.4 0-.7.1-.5 0-1.1.1-1.7 0h-2.3c-.1-.1-.3-.2-.3-.3 0-.8-.1-1.6 0-2.4v-1.3c0-.1.1-.2.1-.2.2-.1.5 0 .8 0 .8 0 1.6-.1 2.4 0h1.7c.1.1.2.2.2.4-.1.5.1 1.1 0 1.6 0 .3.1.8 0 1.3zm-8.1-2c0-.5 0-1.1.1-1.6.1-.1.3-.1.4 0 .2.2.1.4.1.7v1.8c0 .3.1.6 0 .9v1.1c-.1.5 0 1-.1 1.5-.1.2-.4.1-.5.2-.5.1-1 0-1.5 0h-.2s-.1-.1 0-.2c.1-.2.3-.1.4-.3.2 0 .3-.1.4-.1.1 0 .2-.1.3-.1.1-.1.4-.1.5-.3v-1.5c.1-.7 0-1.4.1-2.1zm-1.3 5.5h2.5c.1 0 .1.1.1.1v.4c-.1.1-.3.1-.5.1h-2c-.5 0-1.1 0-1.6-.1-.1 0-.1-.1-.1-.2v-.3l.1-.1 1.5.1zm-4.1-6.9c.1 0 .2.1.3.2.1.6 0 1.3 0 1.9v1.9c-.1.1-.1.2-.2.2 0 .1-.1.1-.1.1h-1.5c-.1 0-.2-.1-.2-.2 0-1.1-.1-2.2 0-3.3v-.7c.1-.2.3-.2.5-.2.4 0 .8 0 1.2.1zm32.8-1.3c.2.1.3.1.4.3.1 0 .2.1.2.2 0 .2 0 .4-.1.5-.2 0-.3.1-.5 0-.2-.2-.4-.5-.6-.7 0-.1-.1-.1 0-.2.3-.2.5-.2.6-.1zm-.1-1.4c.1-.2.3-.3.5-.4.1 0 .2.1.2.1-.1.3.1.5-.2.7-.2 0-.3-.1-.5-.3v-.1zm7.5-1c-.1.1-.2.3-.3.3-.2 0-.2-.2-.2-.4.1-.1.1-.2.2-.2s.2 0 .3.1v.2zm-1.6 1.8c-.1.1-.3.1-.4.3-.2 0-.2.3-.4.3-.2.1-.4.4-.6.5-.1-.1-.1-.2-.1-.4.1-.1.2-.2.2-.4.1-.2.3-.3.3-.5.1-.3.3-.5.4-.8 0-.1.1-.1.2-.1.2 0 .3 0 .4.2 0 .2.1.3.1.5s0 .3-.1.4zm-3-2c.1-.1.3 0 .4.1.1.1.3.3.3.4-.1.2-.2.2-.3.4-.1 0-.3.3-.3.3-.3-.1-.1-.5-.2-.7-.1-.2-.1-.4.1-.5zm2.5 11.4l-.3-.3c-.1-.2-.1-.5-.3-.7-.2-.4-.7-.4-.9-.8V56c0-.2-.1-.6.1-.8 0-.2.1-.4.1-.6-.1-.2-.1-.4-.2-.6.1-.2 0-.4.1-.6 0-.4.3-.6.5-1 .2-.1.4-.3.6-.5h.2c.2.1.4.2.5.4.2.4.6.4.9.5.4 0 .8.2 1.2-.1l.3-.3c.1-.2.4-.2.6-.1.1 1.7.1 3.3 0 5.2v.5l-3.4.1zM117.3 20c9.5-5.9 21.5-9.4 34.6-10.1.5 0 .8-.1.9-.1h2.3c.1 0 .4 0 .9.1 13.1.7 25.1 4.2 34.6 10.1 6.1 3.7 10.9 8.4 14.4 13.6-.2 0-.4.1-.6-.1-.1-.1-.2-.3-.3-.4-.2-.1-.4-.3-.7-.4-.3-.1-.6 0-.9 0h-.2c-.1-.1-.4-.1-.5-.1-.3.2-.7.3-1 .5-.1 0-.2.2-.3.3-.2.2-.3.4-.5.7-.2.2-.1.5-.2.7-.2.2-.3.4-.4.6-.2.2-.3.4-.5.4-.3-.1-.6-.1-1-.1-.1.1-.3.1-.3.2-.1 0-.2.1-.3.1-.1.1-.2.3-.2.4-.1.2-.1.3-.2.5-.1.1-.3.1-.5.1h-.2c-.2-.1-.4-.1-.5-.2-.3-.1-.6.1-.8.2-.2.2-.5.3-.6.5-.2.2-.2.6-.2.9-.1.3-.4.3-.6.5-.1.2-.1.4-.1.6.1.1.1.3.1.5.1.1.2.2.1.4-.2.2-.3.3-.5.3-.4.1-.5.5-.6.9 0 .3-.3.6 0 .9.1.6-.6.7-.8 1.2 0 .2-.1.3-.2.4-.3.5.3.7.5 1 .6.5 1 1.1 1.5 1.6l1.1 1.1.5.5c.2.3.6.6.5 1.1 0 .2 0 .4-.1.6-.1.2-.3.1-.5.1h-.7c-.2.1-.4-.1-.5.1-.2.2.1.4.1.6.1.2.2.5.5.7l.6.3.3.1h.2c.2-.1.5-.1.6-.3.2 0 .4-.1.5-.3.1-.1.1-.3.2-.4.3-.1.5-.4.8-.5.1 0 .3.1.3.3.1.3 0 .7 0 1 0 .2.1.4 0 .6v.9c0 .1-.2.1-.3.1-.3.1-.6.2-.8.4-.2.2-.4.5-.5.8-.1.2-.1.5-.2.7 0 .3 0 .7.2.9.1.2.3.5.5.6.2.2.5.3.8.4.3.1.6.1.9.1.2 0 .4-.2.6-.2.3-.2.6-.3.8-.7.2-.2.2-.4.3-.6 0-.3.1-.7 0-1-.1-.1-.1-.2-.2-.4-.1-.3-.2-.5-.5-.7-.2-.2-.4-.4-.6-.4-.1 0-.3-.2-.3-.3 0-.6.1-1.2 0-1.8 0-.1 0-.3.1-.3.3-.1.4.3.5.4.1.1.3.2.4.3.1 0 .2.1.4.1.1.1.3.1.5.1.3 0 .5-.2.8-.2.2.1.5.2.6.5.2.3.5.4.8.4.2.1.4.3.5.5v.3c-.1.1 0 .3 0 .5 0 .1 0 .2-.1.3 0 .2.1.4.1.6.1.2 0 .4 0 .7-.1.1 0 .2-.1.3-.1.2 0 .6-.1.8-.1.3-.4.5-.7.6-.4.1-.3.6-.7.8-.1.1-.3 0-.4 0-.8-.1-1.6 0-2.4 0h-.9c-.2 0-.4-.1-.6 0-.3-.1-.6 0-.9 0-.2.1-.4 0-.6.1h-1c-.1-.1-.1-.2-.1-.3 0-.2.1-.5-.1-.7-.2-.2-.5 0-.8-.1-.1 0-.2 0-.3-.1-.1-.3-.1-.5-.1-.8l-.1-.2c-.1-.1-.2 0-.4-.1-.3-.1-.6.1-.8-.2 0-.6-.1-1.3 0-1.9-.1-.7-.1-1.5-.1-2.2.1-.1-.1-.3 0-.4-.1-.4 0-.9 0-1.3v-.1c.1-.2.4-.2.5-.1.7-.1 1.3.1 1.9 0l.1-.1c.1-.3-.1-.5-.2-.7l-1.2-1.2c-.6-.7-1.3-1.3-1.9-2.1-.3-.4-.7-.7-1.1-1.1-.2-.3-.6-.2-.9-.2-.7.1-4-6.5-4.2-6.6h-2.2c-.1 0-.2-.1-.2-.1-.2-.1-.1-1.6-.4-1.7h-1.8c-.2 0-.5 0-.6.2-.1.4 0 .9-.1 1.3 0 .1-.1.1-.2.1h-11c-.3 0-.5-.3-.6-.6-.3-.4-.5-.9-.7-1.4-.2-.3-.4-.7-.6-1 0-.2-.2-.4-.4-.5h-.2c-.1 0-.1.1-.1.1l-8 15c-.1.1 0 .3 0 .5 0 .1.1.2.2.2h1.8c.2 0 .4 0 .5.2 0 .4.1.6 0 1 0 .2 0 .7-.1.8l-.6.6c-.1.2-.2.4-.3.5-.2.2-.4.2-.7.2-.3.1-.6.1-.9.4-.2.2-.3.4-.4.6-.1.2-.2.5-.5.6h-.7c-.3 0-.4.3-.7.3 0 0 0-.1-.1-.2l-.1-25.3c.1-.4-.2-.8.1-1.1.1-.2.1-.4-.1-.6-.1-.2-.3-.2-.5-.2-.1 0-.2.2-.3.3-.1.3.2.6-.1.8-.3.3-.5.7-.8 1 0 .2-.2.4-.2.6-.2.5-.3 1-.7 1.4-.2.4-.6.6-.8.9-.2.3-.4.5-.5.8-.1 0-.1.1-.1.2 0 .3-.2.5-.2.8v.2c-.1.6-.1 1.3-.2 1.9v.6c0 .4-.1.8 0 1.1 0 .2 0 .5.2.6h.3c.2-.3.3-.6.5-.8.1-.2.3-.4.4-.6.3-.2.6-.5.9-.7l.1-.1c.2-.2.3-.4.4-.6 0-.1.1-.1.1-.2.1-.1.1-.2.1-.3.1-.3.2-.6.5-.8.2 0 .1.2.2.4l-.2 19c0 .4-.1.9 0 1.3 0 .2 0 .5-.2.7-.3.1-.5.3-.8.5-.1.2-.3.3-.3.4-.3.2-.3.5-.5.8-.2.1-.5 0-.8 0h-.4l-.1-.1c-.1 0-.2-.1-.2-.3v-.8c0-.1-.2-.1-.2-.2h-1.3c-.2-.1-.2-.3-.2-.4V51.8c-.1-.2 0-.5 0-.8v-1.3c0-.2 0-.2.1-.3.1-.1.2-.1.3-.1h1c.2-.1.5 0 .7-.2.1-.2.1-.5 0-.7l-2.3-6.1c-.1-.2-.2-.3-.4-.4h-4.7c-.1 0-.3 0-.4-.1-.2-.1-.3-.4-.3-.6l-.8-4.3c-.1-.2-.4-.3-.6-.3h-2.4l-.2-.2v-5.8c.1-.2.3-.1.5-.1.2-.1.5.1.7 0 .1 0 .2-.1.2-.2 0-.3.1-.7-.1-1l-.3-.3c-.4-.4-.7-.9-1.1-1.2l-.7-.7c-.1 0-.2-.1-.3-.1h-6.4c-.2.1-.4 0-.6.1l-.9 1c-.1.1-.2.2-.4.3-.4.5-1 .9-1.3 1.6 0 .3-.1.6.2.8.4 0 .7 0 1.1.1.1 0 .1.2.1.2v5.1c0 .3.1.6-.2.8h-14.6c-.3-.1-.3-.4-.4-.6-.3-.3-.4-.8-.8-1-.2 0-.4-.2-.6-.2-.3-.1-.6.1-.8-.1-.4-.2-.4-.7-.5-1-.1-.2-.3-.4-.4-.6-.2-.1-.5-.3-.7-.5-.3-.2-.7 0-1.1.1-.4-.1-.8.2-1.1.1-.3-.2-.5-.5-.5-.8.1-.2 0-.5-.2-.6-.1-.2-.3-.3-.5-.5-.2-.1-.4-.3-.7-.4-.3-.2-.5 0-.8 0-.5.1-.8-.3-1.2-.4h-.4c-.1.1-.3.1-.4.1 3.9-3.8 8.1-7.5 13.1-10.6zm83.1 28.7c0 .1-.1.2-.1.2-.1 0-.2-.1-.3-.1-.2-.1-.4-.3-.6-.3-.1-.1-.1-.2-.1-.2 0-.1.1-.2.2-.2.2 0 .3.2.4.2.1.1.2.1.3.2 0 0 .4 0 .2.2zm-1.8 5.9c.3.2.5.6.4 1 0 .3-.3.4-.4.6-.2.1-.5.1-.7 0-.3 0-.4-.4-.6-.6 0-.4 0-.7.3-.9.2-.1.5-.3.8-.1h.2zM37.4 66.2c0-5.3-2.7-1.5-2.7-6v-1h13.2v1c0 4.5-2.6.7-2.6 6v29c0 7-3 12.7-11.4 12.7-4.3 0-10.5-2.6-10.5-10.2 0-3.6 1.6-6.6 4.3-6.6 2.1 0 4.2 2.5 4.2 5.7 0 3.1-1.3 3.6-1.3 5.1 0 2.1 1.7 2.8 2.8 2.8 3.9 0 4.2-4 4.2-8.7V66.2zm35.4 25.4c0 10.2-5.7 17.2-12.6 17.2-7 0-12.5-7.4-12.5-17.5 0-10.4 5.5-17.2 12.6-17.2 7.3 0 12.5 7 12.5 17.5zm-17.1 0c0 4.3.4 13.9 4.6 13.9 4.1 0 4.4-9 4.4-13.3 0-4.3-.3-15-4.6-15-4.1.1-4.4 10.3-4.4 14.4z"/><path d="M72.8 106.7v-1c0-4.5 2.7-.7 2.7-6V66.2c0-5.3-2.7-1.5-2.7-6v-1l10.2-.5v17.7c2-2.2 4.2-3.4 6.8-3.4 4.9 0 7.6 3.6 7.6 10.1v16.6c0 5.3 2.6 1.5 2.6 6v1H87.4v-1c0-4.5 2.5-.7 2.5-6v-15c0-3.4-.3-7-3.3-7-1.3 0-2.9 1.2-3.7 2.8v19.2c0 5.3 2.5 1.5 2.5 6v1H72.8zm37.9-33.2v3.3c2.2-2.7 4-3.8 6.9-3.8 5.7 0 7.8 4.3 7.8 10.8v15.9c0 5.3 2.7 1.5 2.7 6v1h-12.6v-1c0-4.5 2.5-.7 2.5-6V83.3c0-2.7-.4-5.5-3.1-5.5-1.2 0-3 .9-3.7 2.4v19.6c0 5.2 2.8 1.3 2.8 6v1h-13v-1c0-4.5 2.6-.7 2.6-6V81c0-5.3-2.6-1.5-2.6-6v-1l9.7-.5z"/><path d="M134.4 102.3c0 1.5 2.2 1.8 2.9 1.8 1.9 0 4.6-1.1 4.6-4.5 0-6.4-13-4.1-13-15.6 0-8 5.7-11.1 10.5-11.1 2.7 0 7.8 1.3 7.8 6.5 0 2.5-1.6 4.2-3.3 4.2-1.5 0-3.1-1.4-3.1-3.6 0-.7.3-1.7.3-2.2 0-1.1-1.6-1.3-2.1-1.3-1.4 0-3.5 1.2-3.5 3.6 0 6.3 12.9 3.3 12.9 15.4 0 8.5-6.2 12.2-11.3 12.2-3.3 0-9.3-1.6-9.3-7.7 0-2.7 1.5-4.5 3.3-4.5 1.8 0 3.6 1.8 3.6 4.5 0 .5-.1.9-.2 1.5 0 .2-.1.6-.1.8zm39.7-11.8c0 10.2-5.7 17.2-12.6 17.2-7 0-12.4-7.4-12.4-17.5 0-10.4 5.5-17.2 12.6-17.2 7.3 0 12.4 7 12.4 17.5zm-17 .1c0 4.3.4 13.9 4.6 13.9 4.1 0 4.4-9 4.4-13.3 0-4.3-.3-14.9-4.6-14.9-4.1-.1-4.4 10.1-4.4 14.3zM184 73.5v3.3c2.2-2.7 4-3.8 6.9-3.8 5.7 0 7.8 4.3 7.8 10.8v15.9c0 5.3 2.7 1.5 2.7 6v1h-12.6v-1c0-4.5 2.5-.7 2.5-6V83.3c0-2.7-.4-5.5-3.1-5.5-1.2 0-3 .9-3.7 2.4v19.6c0 5.2 2.8 1.3 2.8 6v1h-13v-1c0-4.5 2.7-.7 2.7-6V81c0-5.3-2.7-1.5-2.7-6v-1l9.7-.5z"/><path d="M232.7 99.8V73.6l-8.5.4h-8.4v1c0 3.9 2.5 1.4 2.5 4.1 0 .5-.4 1.8-.6 2.2l-4.2 14.3-4.2-14.7c-.1-.5-.6-2-.6-2.5 0-1.4 2.4-.8 2.4-2.4v-1.9H198v1c0 4.3 1.6 0 3.3 5.5l8 26.2h3.9l8-26.9c.6-2 1.5-2.4 2-2.4.6 0 2 .1 2 3.6v18.7c0 5.3-2.7 1.5-2.7 6v1h12.8v-1c0-4.5-2.6-.7-2.6-6zm-4.4-29.3c2.5 0 4.4-2.8 4.4-6.3 0-3.2-1.9-5.9-4.2-5.9-2.5 0-4.3 2.8-4.3 6.2 0 3.2 1.8 6 4.1 6zm7.5 36.3v-1c0-4.5 2.7-.7 2.7-6V66.3c0-5.3-2.7-1.5-2.7-6v-1l10.2-.5v41c0 5.3 2.7 1.5 2.7 6v1h-12.9zm13.4 0v-1c0-4.5 2.7-.7 2.7-6V66.3c0-5.3-2.7-1.5-2.7-6v-1l10.2-.5v41c0 5.3 2.7 1.5 2.7 6v1h-12.9zm20.6-17.1v.8c0 6.2 1.7 13.2 6.8 13.2 2.9 0 4.7-2.2 6.6-5.2l1.8 2.3c-2.4 4.7-6.1 7-10.1 7-7.4 0-13-7.6-13-18.3 0-9.4 4.9-16.4 11.4-16.4 7.3 0 11.3 6.6 11.4 16.6h-14.9zm7.7-3.5c0-3.7-.5-9.9-3.7-9.9-3.3 0-3.9 6.1-3.9 9.9h7.6z"/><g fill="#FFFEF2"><path d="M35.6 64.3c0-5.3-2.7-1.5-2.7-6v-1h13.2v1c0 4.5-2.6.7-2.6 6v29c0 7-3 12.7-11.4 12.7-4.3 0-10.5-2.6-10.5-10.2 0-3.6 1.6-6.6 4.3-6.6 2.1 0 4.2 2.5 4.2 5.7 0 3.1-1.3 3.6-1.3 5.1 0 2.1 1.7 2.8 2.8 2.8 3.9 0 4.2-4 4.2-8.7V64.3zM71 89.6c0 10.2-5.7 17.2-12.6 17.2-7 0-12.5-7.4-12.5-17.5 0-10.4 5.5-17.2 12.6-17.2 7.4 0 12.5 7 12.5 17.5zm-17 .1c0 4.3.4 13.9 4.6 13.9 4.1 0 4.4-9 4.4-13.3 0-4.3-.3-15-4.6-15-4.1 0-4.4 10.3-4.4 14.4zm17.1 15.1v-1c0-4.5 2.7-.7 2.7-6V64.3c0-5.3-2.7-1.5-2.7-6v-1l10.1-.5v17.7c2-2.2 4.2-3.4 6.8-3.4 4.9 0 7.6 3.6 7.6 10.1v16.6c0 5.3 2.6 1.5 2.6 6v1H85.7v-1c0-4.5 2.5-.7 2.5-6v-15c0-3.4-.3-7-3.3-7-1.3 0-2.9 1.2-3.7 2.8v19.2c0 5.3 2.5 1.5 2.5 6v1H71.1zm37.8-33.3v3.3c2.2-2.7 4-3.8 6.9-3.8 5.7 0 7.8 4.3 7.8 10.8v15.9c0 5.3 2.7 1.5 2.7 6v1h-12.6v-1c0-4.5 2.5-.7 2.5-6V81.3c0-2.7-.4-5.5-3.1-5.5-1.2 0-3 .9-3.7 2.4v19.6c0 5.2 2.8 1.4 2.8 6v1h-13v-1c0-4.5 2.6-.7 2.6-6V79c0-5.3-2.6-1.5-2.6-6v-1l9.7-.5z"/><path d="M132.6 100.4c0 1.5 2.2 1.8 2.9 1.8 1.9 0 4.6-1.2 4.6-4.5 0-6.4-13-4.1-13-15.6 0-8 5.7-11.1 10.5-11.1 2.7 0 7.8 1.3 7.8 6.5 0 2.5-1.6 4.2-3.3 4.2-1.5 0-3.1-1.4-3.1-3.6 0-.7.3-1.7.3-2.2 0-1.1-1.6-1.3-2.1-1.3-1.4 0-3.5 1.2-3.5 3.6 0 6.3 12.9 3.3 12.9 15.4 0 8.5-6.2 12.2-11.3 12.2-3.3 0-9.3-1.6-9.3-7.7 0-2.7 1.5-4.5 3.3-4.5 1.8 0 3.6 1.8 3.6 4.5 0 .5-.1.9-.2 1.5 0 .1-.1.6-.1.8zm39.8-11.9c0 10.2-5.7 17.2-12.6 17.2-7 0-12.4-7.4-12.4-17.5 0-10.4 5.5-17.2 12.6-17.2 7.2 0 12.4 7.1 12.4 17.5zm-17.1.1c0 4.3.4 13.9 4.6 13.9 4.1 0 4.4-9 4.4-13.3 0-4.3-.3-14.9-4.6-14.9-4.1 0-4.4 10.2-4.4 14.3zm26.9-17.1v3.3c2.2-2.7 4-3.8 6.9-3.8 5.7 0 7.8 4.3 7.8 10.8v15.9c0 5.3 2.7 1.5 2.7 6v1H187v-1c0-4.5 2.5-.7 2.5-6V81.3c0-2.7-.4-5.5-3.1-5.5-1.2 0-3 .9-3.7 2.4v19.6c0 5.2 2.8 1.4 2.8 6v1h-13v-1c0-4.5 2.7-.7 2.7-6V79c0-5.3-2.7-1.5-2.7-6v-1l9.7-.5zm48.7 26.3V71.6l-8.5.4H214v1c0 3.9 2.6 1.4 2.6 4.1 0 .5-.4 1.8-.6 2.2l-4.2 14.3-4.2-14.8c-.1-.5-.6-2-.6-2.5 0-1.4 2.4-.8 2.4-2.4V72h-13.1v1c0 4.3 1.6 0 3.3 5.5l8 26.2h3.9l8-26.9c.6-2 1.5-2.4 2-2.4.6 0 2 .1 2 3.6v18.7c0 5.3-2.7 1.5-2.7 6v1h12.8v-1c0-4.4-2.7-.5-2.7-5.9zm-4.3-29.2c2.5 0 4.4-2.8 4.4-6.3 0-3.2-1.9-5.9-4.2-5.9-2.5 0-4.3 2.8-4.3 6.2-.1 3.2 1.8 6 4.1 6zm7.5 36.3v-1c0-4.5 2.7-.7 2.7-6V64.4c0-5.3-2.7-1.5-2.7-6v-1l10.2-.5v41c0 5.3 2.7 1.5 2.7 6v1h-12.9zm13.4 0v-1c0-4.5 2.7-.7 2.7-6V64.4c0-5.3-2.7-1.5-2.7-6v-1l10.2-.5v41c0 5.3 2.7 1.5 2.7 6v1h-12.9zm20.6-17.1v.8c0 6.2 1.7 13.2 6.8 13.2 2.9 0 4.7-2.2 6.6-5.2l1.8 2.3c-2.4 4.7-6.1 7-10.1 7-7.4 0-13-7.6-13-18.3 0-9.4 4.9-16.4 11.4-16.4 7.3 0 11.3 6.6 11.4 16.6h-14.9zm7.7-3.5c0-3.7-.5-9.9-3.7-9.9-3.3 0-3.9 6.1-3.9 9.9h7.6z"/></g><path fill="#FFFEF2" d="M290.5 73.5c.6.6 1 1.4 1 2.3 0 .9-.3 1.7-1 2.3-.6.6-1.4 1-2.3 1-.9 0-1.7-.3-2.3-1-.6-.6-1-1.4-1-2.3 0-.9.3-1.7 1-2.3.6-.6 1.4-1 2.3-1 .8 0 1.6.4 2.3 1zm.3-.4c-.7-.7-1.6-1.1-2.7-1.1-1 0-1.9.4-2.7 1.1-.8.7-1.1 1.6-1.1 2.7s.4 2 1.1 2.7c.7.8 1.6 1.1 2.7 1.1s2-.4 2.7-1.1c.7-.7 1.1-1.7 1.1-2.7.1-1-.3-1.9-1.1-2.7zm-2.1 2.6c-.2.1-.4.1-.7.1h-.7v-1.5h.6c.4 0 .7 0 .9.2.2.1.3.3.3.6 0 .2-.1.4-.4.6zm-2.1 2.2h.7v-1.7h.6c.4 0 .7 0 .8.1.3.2.4.5.4 1v.4h.7V77c0-.2-.1-.4-.2-.6-.2-.2-.4-.4-.7-.4.3 0 .5-.1.6-.2.3-.2.4-.5.4-.8 0-.5-.2-.9-.7-1.1-.2-.1-.6-.1-1.1-.1h-1.5v4.1z"/></svg>