<svg xmlns="http://www.w3.org/2000/svg" viewBox="0 0 333.6 92.6"><path fill="#FAAA5C" d="M6.4 65.6L0 66.7l1.1-9.2 21.8-3.8 1.1 8.8-6.4 1.1v27l-11.2 2v-27zm20-12.6l11.2-2v12.5l5.3-.9V50.1l11.2-2v36l-11.2 2V71.6l-5.3.9V87l-11.2 2V53zm39.8-7l10.6-1.9 9.6 34.3-11.7 2.1-.5-4.4-5.3.9-.5 4.6-11.7 2.1L66.2 46zM73 67.8L71.8 59l-.3-3h-.1l-.3 3-1.1 9.3 3-.5zM88.9 42l10.6-1.9 5.6 13.5c.3.7.5 1.4.7 2.1h.1V39l11.2-2v36l-10.6 1.9-5.6-13.5c-.3-.7-.5-1.4-.7-2.1h-.1V76l-11.2 2V42zm32.8-5.8l11.2-2v15h.1l5.2-15.9 11.2-2-7.5 18.8 8 17.1-11.2 2-5.7-14h-.1v15l-11.2 2v-36z"/><path fill="#FAAA5C" d="M149.5 60.3l8.5-5.5c1.1 2.3 2.5 2.6 3.7 2.3 1.1-.2 2.1-1.4 2.1-2.4 0-5-12.8-4.7-12.8-15.2 0-5 4.3-10.3 11.7-11.6s11.2 1 13.3 4.7l-8 4.9c-.8-1.4-1.5-2.2-3.2-1.9-1.3.2-2.1 1.4-2.1 2.9 0 3.6 13.3 4.2 13.3 15.2 0 6.5-5.9 11-13.3 12.3s-11.4-2-13.2-5.7zm29.1-16.1c0-10 4.3-19.8 15.4-21.7 8.5-1.5 12.2 2.8 13.8 9.1l-9.6 3.7c-.5-2.6-2-4.2-4.3-3.8-2.7.5-4.3 4.3-4.3 10.8 0 6.5 1.6 9.7 4.3 9.3 2.1-.4 3.2-1.6 4.3-3.3v-3l-4.3.8.5-7.6 13.3-2.3v14.5c-3.2 5.6-8 8.9-13.8 9.9-11 1.8-15.3-6.4-15.3-16.4zM212 20.3l11.2-2v36l-11.2 2v-36zm13.6-2.4l11.5-2 2.5 18.6c.1 1 .3 2 .3 2.9h.1c.1-1 .2-2 .3-3.1l2.5-19.4 11.5-2-8.6 37.5-11.5 2-8.6-34.5zm31.2-5.5l11.2-2v36l-11.2 2v-36zm15.8-2.8l10.6-1.9 5.6 13.5c.3.7.5 1.4.7 2.1h.1V6.6l11.2-2v36l-10.6 1.9-5.6-13.5c-.3-.7-.5-1.4-.7-2.1h-.1v16.8l-11.2 2V9.6zM304.4 22c0-10 4.3-19.8 15.4-21.7 8.5-1.5 12.2 2.8 13.8 9.1L324 13c-.5-2.6-2-4.2-4.3-3.8-2.7.5-4.3 4.3-4.3 10.8 0 6.5 1.6 9.7 4.3 9.3 2.1-.4 3.2-1.6 4.3-3.3v-3l-4.3.8.5-7.6 13.3-2.3v14.5c-3.2 5.6-8 8.9-13.8 9.9-11.1 2-15.3-6.3-15.3-16.3z"/></svg>